<?xml version="1.0" encoding="utf-8"?>
<!-- Generator: Adobe Illustrator 16.0.0, SVG Export Plug-In . SVG Version: 6.00 Build 0)  -->
<!DOCTYPE svg PUBLIC "-//W3C//DTD SVG 1.1//EN" "http://www.w3.org/Graphics/SVG/1.1/DTD/svg11.dtd">
<svg version="1.1" id="Layer_1" xmlns="http://www.w3.org/2000/svg" xmlns:xlink="http://www.w3.org/1999/xlink" x="0px" y="0px"
	 width="180px" height="180px" viewBox="414 -24.5 180 180" enable-background="new 414 -24.5 180 180" xml:space="preserve">
<rect x="415.28" y="-24.5" fill="#4899C3" width="180" height="180"/>
<g>
	<g>
		<path fill="#FFFFFF" d="M520.908,101.389c-0.449-2.463-2.442-3.779-4.667-4.267c1.006-0.763,1.434-2.072,0.999-3.445
			c5.513,0.401,6.438-10.077,1.056-11.35c3.271-2.351,2.161-7.69-1.43-9.011c1.62-0.702,3.07-2.613,3.539-3.966
			c0.999-2.879-0.242-5.936-2.641-7.615c1.742-1.061,2.867-3.042,2.484-5.139c-0.303-1.663-1.586-3.276-3.223-3.757
			c1.563-1.447,2.144-3.658,1.378-5.767c-0.926-2.546-3.434-3.846-6.054-3.788c-4.932,0.113-9.457,4.734-9.394,9.613
			c-0.276-0.212-0.582-0.384-0.893-0.508c-1.623-0.636-3.368,0.217-4.643,1.227c-2.236,1.772-3.045,5.542-1.126,7.544
			c-3.991,0.333-6.827,5.873-4.308,8.872c-1.78,0.268-2.745,2.138-2.593,3.843c-3.017,0.546-4.811,4.561-4.871,7.308
			c-0.081,3.678,2.187,5.687,5.261,6.618c-1.503,0.914-2.534,2.474-2.149,4.383c0.314,1.557,1.677,2.668,3.126,2.726
			c-2.293,2.317-2.278,6.393-1.138,9.348c1.473,3.822,5.211,6.562,9.246,5.659c-0.773,3.454,3.602,7.286,6.531,5.496
			c-0.131,2.985,3.172,5.479,6.216,5.164c3.015-0.312,7.089-4.15,5.027-6.908c1.757,0.113,3.119-1.259,3.304-3.306
			c0.158-1.754-0.736-3.615-2.211-4.552C519.805,105.632,521.314,103.647,520.908,101.389 M516.455,105.2
			c-0.077-0.013-0.143,0.007-0.193,0.04c-0.144-0.021-0.291-0.039-0.441-0.045c-0.353-0.013-0.51,0.521-0.185,0.684
			c1.405,0.692,2.681,1.437,3.1,3.075c0.24,0.936,0.18,2.092-0.325,2.938c-0.613,1.022-1.537,1.128-2.537,1.015
			c-0.102-0.08-0.208-0.154-0.324-0.23c-0.323-0.205-0.742,0.208-0.531,0.53c1.02,1.557,1.289,3.238-0.188,4.701
			c-1.062,1.052-2.655,1.63-4.139,1.588c-2.852-0.08-4.433-2.463-4.279-5.019c0.028-0.037,0.057-0.071,0.085-0.108
			c0.117-0.166,0.087-0.352-0.018-0.494c0.013-0.07,0.02-0.141,0.033-0.212c0.063-0.304-0.35-0.507-0.518-0.218
			c-0.049,0.086-0.091,0.169-0.134,0.254c-0.041,0.023-0.079,0.049-0.113,0.091c-1.21,1.49-3.379,1.026-4.608-0.169
			c-1.142-1.111-1.776-2.794-0.894-4.267c0.229-0.379-0.155-0.968-0.61-0.796c-7.837,2.985-12.923-9.125-7.305-14.041
			c0.089-0.051,0.178-0.1,0.265-0.162c0.528-0.38,0.083-1.126-0.505-0.863c-2.056,0.917-3.961-0.834-3.324-2.947
			c0.4-1.33,1.571-2.022,2.808-2.378c0.471-0.134,0.536-0.925,0-1.021c-3.34-0.602-6.066-2.169-6.03-5.96
			c0.028-2.973,1.686-5.089,3.99-6.596c0.354,1.198,1.337,2.17,3.077,2.204c0.444,0.01,0.477-0.593,0.1-0.731
			c-1.086-0.404-1.744-0.777-2.173-1.888c-0.676-1.748,0.887-3.935,3.099-2.923c0.567,0.259,1.064-0.581,0.493-0.843
			c-2.241-1.019-2.588-3.688-1.516-5.7c1.011-1.896,2.771-2.546,4.719-2.786c0.158,0.079,0.322,0.152,0.497,0.217
			c0.236,0.085,0.451-0.098,0.51-0.313c0.195-0.03,0.218-0.289,0.028-0.36c-0.062-0.024-0.122-0.04-0.185-0.06
			c-1.018-0.863-1.901-1.488-1.88-3.055c0.018-1.289,0.55-2.714,1.509-3.592c0.87-0.796,2.074-1.452,3.246-1.398
			c1.007,0.046,1.571,0.528,2.089,1.125c0.094,0.415,0.22,0.824,0.389,1.232c0.221,0.531,0.959,0.34,0.863-0.237
			c-0.78-4.709,1.116-9.363,6.04-10.781c2.145-0.615,4.691-0.34,6.178,1.464c1.74,2.11,1.117,4.758-0.66,6.535
			c-0.041,0.001-0.079-0.002-0.119,0c-0.439,0.024-0.516,0.539-0.192,0.748c0.075,0.09,0.187,0.148,0.307,0.139
			c1.337,0.529,2.546,1.1,3.119,2.561c0.826,2.099-0.286,4.264-2.355,5.106c-0.354,0.144-0.478,0.623-0.111,0.844
			c2.211,1.333,3.618,3.833,2.999,6.442c-0.459,1.934-2.661,4.83-4.959,4.378c-0.121-0.024-0.218,0.057-0.249,0.153
			c-0.051,0.007-0.099,0.009-0.151,0.018c-0.357,0.056-0.362,0.672,0,0.728c1.921,0.281,3.793,0.783,4.813,2.621
			c1.277,2.309-0.083,5.335-2.683,5.82c-0.517,0.096-0.384,0.901,0.121,0.9c5.684-0.004,5.639,9.204,0.474,9.865
			c-0.005-0.008-0.008-0.017-0.011-0.022c-0.235-0.448-0.872-0.144-0.82,0.281c-0.004,0.061,0.015,0.123,0.055,0.171
			c0.498,2.249-0.088,3.4-1.749,3.457c-0.146-0.004-0.295-0.008-0.438-0.006c-0.58,0.009-0.58,0.892,0,0.902
			c1.733,0.033,3.594,0.412,4.814,1.757C520.647,101.575,519.913,105.813,516.455,105.2"/>
		<path fill="#FFFFFF" d="M511.896,51.128c-1.898-1.223-3.584,0.994-4.119,2.631c-0.814,2.493-0.611,5.12,0.279,7.532
			c-1.563-0.563-3.255-0.854-4.8-0.31c-1.026-1.204-1.081-2.495-0.795-4.096c0.101-0.587-0.796-0.845-0.904-0.249
			c-0.208,1.254-1.167,1.303-2.151,0.914c-0.444-0.174-0.813,0.496-0.465,0.799c0.763,0.667,1.735,0.597,2.471,0.115
			c0.03,1.121,0.325,2.252,1.211,2.797c-0.177,0.093-0.352,0.195-0.521,0.314c-1.554,1.084-2.042,2.822-2.155,4.601
			c-0.602-0.751-1.394-1.313-2.425-1.385c-1.495-0.107-2.791,0.858-2.952,2.333c-0.063,0.574,0.803,0.631,0.965,0.129
			c0.965-2.973,3.785-0.503,4.43,1.149c0.208,0.534,1.105,0.52,1.077-0.146c-0.073-1.704-0.155-3.639,0.964-5.043
			c1.754-2.205,4.621-1.449,6.788-0.448c0.503,0.231,0.99-0.238,0.746-0.748c-1.498-3.131-2.344-9.835,2.319-10.609
			C511.998,51.384,511.997,51.192,511.896,51.128"/>
		<path fill="#FFFFFF" d="M513.918,58.379c0.445-0.35-0.187-0.987-0.628-0.627c-1.901,1.548-2.543,3.929-2.041,6.297
			c0.109,0.513,0.275,1.001,0.47,1.49c0.182,0.46,0.369,0.744,0.468,0.972c-2.434,2.334-5.621,5.457-9.108,2.96
			c-0.489-0.352-1.093,0.435-0.646,0.835c1.386,1.237,1.562,3.553,0.149,4.874c-1.477,1.38-3.676,1.105-5.254,0.126
			c-0.477-0.296-1.063,0.425-0.612,0.792c1.78,1.455,2.513,4.114,1.247,6.168c-1.279,2.073-3.915,2.489-6.059,1.732
			c-0.521-0.185-0.884,0.66-0.38,0.899c5.342,2.533,9.68-3.514,7.232-7.893c1.771,0.415,3.712,0.03,4.911-1.488
			c0.965-1.224,1.155-2.826,0.661-4.21c1.387,0.389,2.791,0.096,4.082-0.579c-1.656,3.168-0.574,7.604,3.106,8.156
			c-1.448,1.02-2.547,2.589-2.355,4.445c0.192,1.846,1.612,3.119,3.077,4.139c-2.546,0.974-4.313,3.345-4.212,6.197
			c0.047,1.302,1.639,5.771,3.538,3.803c0.039-0.043-0.002-0.105-0.056-0.094c-2.783,0.576-2.392-4.868-1.923-5.979
			c0.732-1.738,2.206-2.794,4.001-3.244c0.437-0.107,0.503-0.726,0.123-0.949c-1.365-0.802-2.9-1.67-3.486-3.232
			c-0.859-2.298,0.777-4.227,2.769-5.1c0.337-0.146,0.161-0.696-0.185-0.679c-3.25,0.147-5.09-2.854-4.309-5.825
			c0.311-1.184,0.972-2.177,1.829-2.973c0.08-0.07,0.159-0.141,0.235-0.212c0.763-0.649,1.66-1.155,2.603-1.512
			c0.239-0.091,0.37-0.34,0.236-0.58C511.83,64.267,511.01,60.665,513.918,58.379"/>
		<path fill="#FFFFFF" d="M514.193,106.057c-3.202-0.837-4.598-4.07-3.058-6.976c0.273-0.516-0.489-0.966-0.785-0.458
			c-1.767,3.038-0.585,6.577,2.402,7.986c-1.369,0.915-1.831,2.473-1.726,4.104c-0.914-1.121-2.031-2.052-3.489-2.385
			c-1.218-0.276-2.416-0.084-3.377,0.546c0.249-4.424-3.85-7.765-8.154-6.71c1.271-2.267,2.196-5.069,1.435-7.555
			c-0.571-1.856-2.427-3.362-4.407-2.75c-0.266,0.083-0.213,0.475,0.066,0.484c5.771,0.174,3.105,7.715,1.255,10.536
			c-0.304,0.462,0.276,0.922,0.708,0.707c4.547-2.256,9.238,1.801,7.839,6.621c-0.166,0.572,0.619,0.866,0.931,0.393
			c2.394-3.644,6.264,0.28,7.733,2.539c0.272,0.42,1.053,0.161,0.856-0.364c-0.79-2.115-0.887-4.964,1.771-5.741
			C514.666,106.896,514.685,106.185,514.193,106.057"/>
		<path fill="#FFFFFF" d="M508.252,105.683c-1.061-0.823-1.732-1.793-2.05-3.106c-0.067-0.28-0.382-0.362-0.616-0.25
			c-2.592,1.235-4.5-1.544-3.035-3.656c0.192-0.275-0.067-0.607-0.358-0.624c-1.491-0.084-2.259-1.784-2.28-2.999
			c-0.011-0.702,0.103-1.431,0.239-2.116c0.295-1.47,0.791-2.814,2.077-3.714c0.274-0.194,0.282-0.695-0.102-0.776
			c-1.995-0.423-2.13-2.785-1.579-4.372c0.578-1.663,1.914-2.823,3.376-3.698c0.272-0.162,0.097-0.61-0.217-0.518
			c-2.32,0.69-4.068,2.775-4.318,5.214c-0.161,1.57,0.411,3.263,1.813,3.949c-2.322,2.467-3.568,8.896,0.323,9.765
			c-1.32,2.683,1.174,5.409,3.999,4.465c0.402,1.274,1.121,2.261,2.247,3.064C508.135,106.571,508.61,105.962,508.252,105.683"/>
		<path fill="#FFFFFF" d="M504.193,93.106c2.312-2.108,2.585-5.326,0.663-7.833c2.175-1.47,3.189-4.256,2.109-6.737
			c-0.202-0.464-0.975-0.134-0.818,0.345c0.764,2.327,0.15,4.697-2.051,5.966c-0.227,0.129-0.24,0.42-0.078,0.604
			c2.053,2.322,1.789,5.523-0.678,7.405c-0.199,0.153-0.281,0.511,0,0.646c1.984,0.951,4.492,2.81,2.713,5.295
			c-0.143,0.199,0.161,0.412,0.329,0.252C508.688,96.859,506.286,94.299,504.193,93.106"/>
		<path fill="#FFFFFF" d="M525.647,105.811c-1.475,0.937-2.372,2.799-2.213,4.554c0.185,2.046,1.547,3.418,3.303,3.305
			c-2.061,2.759,2.016,6.597,5.029,6.909c3.044,0.314,6.344-2.18,6.214-5.165c2.929,1.79,7.305-2.041,6.53-5.496
			c4.034,0.903,7.776-1.836,9.249-5.658c1.14-2.957,1.154-7.032-1.139-9.35c1.448-0.056,2.813-1.168,3.126-2.725
			c0.384-1.909-0.646-3.468-2.149-4.382c3.075-0.932,5.343-2.94,5.262-6.618c-0.061-2.747-1.855-6.763-4.873-7.309
			c0.154-1.706-0.812-3.575-2.591-3.844c2.521-2.999-0.315-8.539-4.308-8.871c1.919-2.002,1.108-5.772-1.126-7.544
			c-1.275-1.01-3.019-1.863-4.643-1.227c-0.31,0.124-0.615,0.296-0.895,0.508c0.065-4.879-4.46-9.5-9.393-9.613
			c-2.619-0.057-5.126,1.241-6.052,3.788c-0.767,2.109-0.186,4.319,1.377,5.766c-1.636,0.482-2.921,2.095-3.223,3.758
			c-0.382,2.097,0.742,4.077,2.483,5.138c-2.396,1.68-3.641,4.736-2.641,7.614c0.471,1.354,1.92,3.266,3.539,3.968
			c-3.591,1.32-4.701,6.66-1.431,9.01c-5.382,1.273-4.457,11.75,1.057,11.35c-0.433,1.372-0.007,2.683,0.999,3.445
			c-2.225,0.486-4.217,1.803-4.665,4.267C522.067,103.647,523.577,105.632,525.647,105.811 M524.563,99.561
			c1.219-1.345,3.081-1.723,4.813-1.755c0.582-0.013,0.582-0.895,0-0.902c-0.146-0.002-0.291,0-0.438,0.005
			c-1.66-0.056-2.245-1.208-1.748-3.457c0.043-0.048,0.06-0.11,0.055-0.172c0.051-0.425-0.586-0.729-0.821-0.281
			c-0.003,0.01-0.006,0.017-0.009,0.023c-5.169-0.661-5.213-9.869,0.471-9.865c0.506,0.001,0.637-0.806,0.122-0.9
			c-2.602-0.485-3.961-3.512-2.682-5.82c1.017-1.838,2.888-2.339,4.812-2.622c0.36-0.054,0.358-0.67,0-0.727
			c-0.053-0.009-0.101-0.011-0.151-0.018c-0.032-0.096-0.129-0.177-0.25-0.154c-2.296,0.453-4.499-2.442-4.96-4.377
			c-0.619-2.61,0.789-5.109,3.001-6.442c0.366-0.221,0.242-0.7-0.11-0.844c-2.072-0.842-3.182-3.007-2.357-5.106
			c0.572-1.462,1.782-2.031,3.119-2.561c0.121,0.009,0.232-0.049,0.307-0.138c0.323-0.209,0.247-0.724-0.192-0.749
			c-0.04-0.002-0.079,0.001-0.12,0c-1.775-1.776-2.398-4.424-0.66-6.535c1.485-1.803,4.035-2.079,6.178-1.463
			c4.925,1.418,6.822,6.073,6.04,10.782c-0.095,0.576,0.646,0.768,0.863,0.236c0.169-0.408,0.296-0.818,0.39-1.232
			c0.519-0.597,1.081-1.08,2.087-1.125c1.174-0.055,2.376,0.601,3.247,1.397c0.959,0.878,1.493,2.302,1.51,3.592
			c0.02,1.568-0.865,2.191-1.882,3.055c-0.062,0.021-0.123,0.037-0.184,0.06c-0.19,0.072-0.167,0.331,0.028,0.36
			c0.059,0.215,0.273,0.398,0.511,0.313c0.175-0.064,0.339-0.138,0.496-0.217c1.946,0.239,3.708,0.89,4.719,2.786
			c1.07,2.011,0.727,4.682-1.517,5.699c-0.572,0.262-0.074,1.102,0.493,0.844c2.213-1.014,3.772,1.174,3.099,2.922
			c-0.428,1.11-1.085,1.484-2.173,1.887c-0.377,0.141-0.343,0.741,0.099,0.731c1.741-0.033,2.725-1.005,3.08-2.202
			c2.302,1.505,3.959,3.623,3.988,6.594c0.037,3.792-2.69,5.358-6.03,5.962c-0.538,0.095-0.472,0.886,0,1.021
			c1.235,0.355,2.405,1.046,2.807,2.378c0.638,2.112-1.27,3.864-3.324,2.946c-0.587-0.263-1.031,0.484-0.504,0.863
			c0.086,0.062,0.176,0.111,0.265,0.163c5.618,4.915,0.532,17.025-7.305,14.041c-0.455-0.174-0.838,0.415-0.61,0.796
			c0.883,1.473,0.247,3.154-0.894,4.267c-1.229,1.194-3.398,1.657-4.607,0.169c-0.034-0.044-0.074-0.069-0.115-0.092
			c-0.042-0.084-0.085-0.168-0.134-0.254c-0.166-0.289-0.58-0.087-0.518,0.218c0.015,0.071,0.021,0.142,0.034,0.213
			c-0.104,0.143-0.136,0.327-0.018,0.493c0.027,0.038,0.056,0.07,0.085,0.107c0.154,2.557-1.427,4.94-4.279,5.021
			c-1.484,0.042-3.076-0.538-4.14-1.589c-1.477-1.463-1.205-3.146-0.188-4.701c0.211-0.322-0.208-0.736-0.53-0.529
			c-0.116,0.074-0.224,0.15-0.325,0.229c-0.998,0.113-1.924,0.009-2.537-1.015c-0.506-0.845-0.565-2.001-0.326-2.938
			c0.42-1.638,1.696-2.381,3.101-3.075c0.327-0.162,0.169-0.695-0.185-0.682c-0.15,0.006-0.298,0.021-0.442,0.045
			c-0.05-0.035-0.115-0.054-0.19-0.04C523.469,105.813,522.735,101.575,524.563,99.561"/>
		<path fill="#FFFFFF" d="M531.485,51.128c1.899-1.223,3.584,0.994,4.12,2.631c0.815,2.493,0.608,5.12-0.28,7.532
			c1.563-0.563,3.254-0.854,4.8-0.31c1.027-1.204,1.081-2.495,0.795-4.096c-0.099-0.587,0.796-0.845,0.906-0.249
			c0.204,1.254,1.167,1.303,2.151,0.914c0.444-0.174,0.811,0.496,0.463,0.799c-0.762,0.667-1.734,0.597-2.471,0.115
			c-0.028,1.121-0.325,2.252-1.211,2.797c0.178,0.093,0.353,0.195,0.523,0.314c1.553,1.084,2.04,2.822,2.154,4.601
			c0.6-0.751,1.391-1.313,2.423-1.385c1.496-0.107,2.794,0.858,2.953,2.333c0.062,0.574-0.804,0.631-0.966,0.129
			c-0.964-2.973-3.783-0.503-4.428,1.149c-0.209,0.534-1.106,0.52-1.078-0.146c0.073-1.704,0.155-3.639-0.963-5.043
			c-1.756-2.205-4.622-1.449-6.789-0.448c-0.503,0.231-0.99-0.238-0.745-0.748c1.496-3.131,2.343-9.835-2.32-10.609
			C531.385,51.384,531.387,51.192,531.485,51.128"/>
		<path fill="#FFFFFF" d="M529.466,58.379c-0.447-0.35,0.186-0.987,0.627-0.627c1.901,1.548,2.544,3.929,2.041,6.297
			c-0.11,0.513-0.275,1.001-0.47,1.49c-0.182,0.46-0.37,0.744-0.469,0.972c2.436,2.334,5.621,5.457,9.109,2.96
			c0.489-0.352,1.093,0.435,0.645,0.835c-1.386,1.237-1.562,3.553-0.147,4.874c1.476,1.38,3.675,1.105,5.252,0.126
			c0.477-0.296,1.063,0.425,0.613,0.792c-1.781,1.455-2.513,4.114-1.247,6.168c1.278,2.073,3.916,2.489,6.059,1.732
			c0.521-0.185,0.885,0.66,0.379,0.899c-5.34,2.533-9.678-3.514-7.233-7.893c-1.77,0.415-3.709,0.03-4.908-1.488
			c-0.965-1.224-1.155-2.826-0.662-4.21c-1.388,0.389-2.791,0.096-4.083-0.579c1.655,3.168,0.574,7.604-3.107,8.156
			c1.451,1.02,2.55,2.589,2.357,4.445c-0.192,1.846-1.612,3.119-3.078,4.139c2.546,0.974,4.313,3.345,4.213,6.197
			c-0.047,1.302-1.64,5.771-3.536,3.803c-0.042-0.043,0-0.105,0.054-0.094c2.783,0.576,2.394-4.868,1.925-5.979
			c-0.734-1.738-2.207-2.794-4.003-3.244c-0.437-0.107-0.502-0.726-0.124-0.949c1.367-0.802,2.902-1.67,3.486-3.232
			c0.861-2.298-0.777-4.227-2.766-5.1c-0.339-0.146-0.163-0.696,0.184-0.679c3.25,0.147,5.09-2.854,4.308-5.825
			c-0.312-1.184-0.97-2.177-1.829-2.973c-0.08-0.07-0.157-0.141-0.236-0.212c-0.763-0.649-1.658-1.155-2.603-1.512
			c-0.238-0.091-0.369-0.34-0.235-0.58C531.554,64.267,532.373,60.665,529.466,58.379"/>
		<path fill="#FFFFFF" d="M529.189,106.057c3.204-0.837,4.597-4.07,3.057-6.976c-0.272-0.516,0.49-0.966,0.785-0.458
			c1.769,3.038,0.584,6.577-2.401,7.986c1.367,0.915,1.829,2.473,1.725,4.104c0.914-1.121,2.033-2.052,3.488-2.385
			c1.219-0.276,2.417-0.084,3.378,0.546c-0.25-4.424,3.85-7.765,8.155-6.71c-1.272-2.267-2.197-5.069-1.436-7.555
			c0.57-1.856,2.426-3.362,4.407-2.75c0.265,0.083,0.215,0.475-0.065,0.484c-5.771,0.174-3.106,7.715-1.257,10.536
			c0.306,0.462-0.277,0.922-0.707,0.707c-4.544-2.256-9.237,1.801-7.838,6.621c0.166,0.572-0.621,0.866-0.93,0.393
			c-2.396-3.644-6.265,0.28-7.732,2.539c-0.275,0.42-1.056,0.161-0.86-0.364c0.792-2.115,0.888-4.964-1.771-5.741
			C528.717,106.896,528.698,106.185,529.189,106.057"/>
		<path fill="#FFFFFF" d="M535.131,105.683c1.061-0.823,1.731-1.793,2.049-3.106c0.067-0.28,0.381-0.362,0.615-0.25
			c2.593,1.235,4.501-1.544,3.036-3.656c-0.191-0.275,0.068-0.607,0.358-0.624c1.491-0.084,2.26-1.784,2.28-2.999
			c0.013-0.702-0.104-1.431-0.239-2.116c-0.294-1.47-0.79-2.814-2.076-3.714c-0.274-0.194-0.284-0.695,0.102-0.776
			c1.993-0.423,2.13-2.785,1.577-4.372c-0.577-1.663-1.913-2.823-3.376-3.698c-0.271-0.162-0.094-0.61,0.22-0.518
			c2.32,0.69,4.066,2.775,4.317,5.214c0.161,1.57-0.411,3.263-1.812,3.949c2.322,2.467,3.566,8.896-0.324,9.765
			c1.321,2.683-1.173,5.409-3.999,4.465c-0.403,1.274-1.121,2.261-2.247,3.064C535.25,106.571,534.773,105.962,535.131,105.683"/>
		<path fill="#FFFFFF" d="M539.188,93.106c-2.312-2.108-2.583-5.326-0.664-7.833c-2.175-1.47-3.189-4.256-2.108-6.737
			c0.204-0.464,0.975-0.134,0.818,0.345c-0.764,2.327-0.151,4.697,2.05,5.966c0.229,0.129,0.24,0.42,0.081,0.604
			c-2.055,2.322-1.793,5.523,0.675,7.405c0.2,0.153,0.282,0.511,0,0.646c-1.983,0.951-4.491,2.81-2.712,5.295
			c0.142,0.199-0.162,0.412-0.328,0.252C534.693,96.859,537.097,94.299,539.188,93.106"/>
	</g>
	<g>
		<path fill="#FFFFFF" d="M500.186,27.782c0.056-0.032,0.078-0.128,0.01-0.181c-0.039-0.027-0.077-0.054-0.113-0.081
			c-1.167-2.803-3.503-5.103-6.531-5.713c-1.704-0.74-3.696-0.996-5.642-0.826c0.002-0.012,0.011-0.019,0.012-0.032
			c0.528-2.671-1.056-5.54-3.03-7.254c-0.481-0.418-0.992-0.778-1.527-1.093c0.037-0.067-0.01-0.167-0.108-0.146
			c-0.035,0.008-0.072,0.018-0.108,0.026c-1.607-0.893-3.416-1.367-5.26-1.558c-0.315-0.106-0.637-0.195-0.966-0.266
			c-5.708-1.241-12.037,1.959-13.178,7.875c-7.797-5.246-15.418,7.317-10.346,13.877c-3.065,1.308-5.051,4.668-3.955,7.973
			c-0.55,1.053,1.511,3.886,2.039,4.558c1.538,1.957,3.901,3.313,6.438,3.152c0.066-0.004,0.119-0.028,0.163-0.06
			c0.574,0.782,1.309,1.434,2.161,1.902c2.218,1.572,5.21,2.645,7.896,2.249c0.031,0.015,0.06,0.008,0.082-0.014
			c0.8-0.127,1.573-0.38,2.288-0.796c0.111-0.065,0.147-0.166,0.132-0.259c1.819,2.187,4.841,3.44,7.736,3.57
			c0.08,0.004,0.15-0.02,0.211-0.058c0.084,0.041,0.186,0.043,0.263-0.035c0.571-0.562,1.102-1.161,1.631-1.76
			c0.128-0.146,0.156-0.384,0-0.527c-1.031-0.945-1.627-2.001-2.111-3.231c0.001-0.001,0.001-0.001,0.004-0.001
			c0.071-0.064,0.01-0.146-0.063-0.157c-0.037-0.1-0.076-0.197-0.113-0.3c0.439,0.111,0.871,0.176,1.209,0.221
			c0.326,0.042,0.655,0.062,0.984,0.068c2.65,0.544,5.167,0.197,7.619-1.195c1.831-1.038,3.974-3.029,3.435-5.303
			c2.439,0.529,4.894-1.472,6.413-3.199c1.681-1.912,2.798-4.328,3.008-6.877C500.994,30.8,500.744,29.23,500.186,27.782
			 M498.86,26.66c-0.252-0.173-0.506-0.345-0.76-0.522c-0.08-0.056-0.154,0.076-0.076,0.131c0.354,0.259,0.702,0.522,1.054,0.783
			c0.447,0.834,0.775,1.736,0.939,2.699c-0.609-0.402-1.235-0.78-1.858-1.16c-0.019-0.421-0.052-0.84-0.124-1.246
			c-0.232-1.311-0.753-2.405-1.474-3.3C497.482,24.783,498.265,25.663,498.86,26.66 M487.145,20.844
			c0.01,0.084,0.047,0.155,0.097,0.215c-1.239,0.172-2.444,0.519-3.527,1.03c0.143-0.438,0.243-0.879,0.313-1.32
			c0.992-0.373,1.973-0.614,2.998-0.881C487.072,20.2,487.114,20.518,487.145,20.844 M486.976,19.596
			c-0.989,0.077-2.02,0.437-2.909,0.902c0.075-0.612,0.081-1.22,0.028-1.818c0.801-0.329,1.613-0.595,2.425-0.885
			C486.718,18.366,486.867,18.966,486.976,19.596 M485.351,15.559c0.459,0.619,0.813,1.28,1.08,1.985
			c-0.815,0.179-1.622,0.521-2.363,0.911c-0.085-0.723-0.264-1.426-0.521-2.098C484.152,16.123,484.778,15.869,485.351,15.559
			 M485.185,15.343c-0.587,0.222-1.166,0.512-1.718,0.801c-0.235-0.573-0.533-1.117-0.881-1.634c0.454-0.169,0.921-0.288,1.398-0.39
			C484.446,14.508,484.843,14.916,485.185,15.343 M483.761,13.936c-0.446,0.078-0.876,0.219-1.288,0.406
			c-0.296-0.417-0.633-0.81-0.995-1.174c0.271-0.063,0.542-0.13,0.813-0.203C482.802,13.247,483.296,13.567,483.761,13.936
			 M482.015,12.813c-0.215,0.072-0.43,0.145-0.642,0.22c-0.007,0.002-0.009,0.008-0.014,0.012c-0.396-0.384-0.829-0.737-1.294-1.047
			C480.736,12.22,481.39,12.488,482.015,12.813 M452.433,45.117c-0.603-0.621-1.115-1.325-1.559-2.065
			c-0.152-0.257-0.452-0.711-0.717-1.194c0.507,0.774,1.188,1.483,1.959,2.021c0.471,0.76,0.966,1.52,1.492,2.242
			C453.194,45.834,452.803,45.499,452.433,45.117 M453.756,46.218c0.039-0.017,0.066-0.057,0.037-0.106
			c-0.396-0.71-0.871-1.397-1.383-2.04c0.453,0.283,0.933,0.499,1.424,0.639c0.43,0.755,0.874,1.531,1.36,2.256
			C454.692,46.771,454.211,46.522,453.756,46.218 M455.52,47.083c-0.438-0.792-0.954-1.566-1.466-2.317
			c0.429,0.1,0.867,0.134,1.301,0.092c0.643,0.851,1.227,1.755,1.896,2.585C456.646,47.387,456.069,47.266,455.52,47.083
			 M457.493,47.461c0.004-0.024,0.004-0.049-0.009-0.072c-0.521-0.916-1.23-1.753-1.913-2.56c0.383-0.059,0.766-0.177,1.138-0.37
			c0.104,1.07,0.456,2.106,1.003,3.017C457.639,47.473,457.565,47.465,457.493,47.461 M462.609,50.666
			c0.574,0.053,1.143,0.019,1.696-0.084c0.284,0.3,0.59,0.595,0.919,0.863C464.334,51.288,463.457,51.019,462.609,50.666
			 M465.712,51.52c-0.418-0.307-0.824-0.626-1.215-0.975c0.54-0.118,1.06-0.313,1.549-0.562c0.406,0.573,0.857,1.118,1.369,1.6
			C466.847,51.617,466.279,51.592,465.712,51.52 M467.713,51.554c-0.538-0.52-1.047-1.063-1.503-1.661
			c0.467-0.254,0.9-0.567,1.289-0.925c0.657,0.745,1.304,1.505,1.997,2.213C468.906,51.376,468.312,51.499,467.713,51.554
			 M470.229,50.9c-0.176,0.08-0.354,0.148-0.534,0.212c-0.659-0.78-1.38-1.514-2.084-2.255c0.563-0.545,1.031-1.191,1.354-1.928
			c0.092,1.534,0.648,2.864,1.505,3.97C470.4,50.87,470.317,50.862,470.229,50.9 M479.707,52.629
			c-0.345,0.451-0.682,0.91-1.005,1.376c-0.01-0.011-0.017-0.025-0.027-0.036c-0.27-0.25-0.513-0.512-0.737-0.78
			c0.429-0.344,0.854-0.69,1.268-1.05C479.364,52.31,479.531,52.477,479.707,52.629 M478.466,51.181
			c0.182,0.285,0.387,0.559,0.613,0.814c-0.428,0.341-0.841,0.697-1.254,1.054c-0.245-0.309-0.455-0.634-0.643-0.968
			C477.631,51.84,478.082,51.533,478.466,51.181 M478.34,50.967c-0.407,0.331-0.814,0.66-1.24,0.971
			c-0.239-0.444-0.424-0.909-0.567-1.39c0.325-0.279,0.638-0.566,0.977-0.826c0.081-0.062,0.166-0.122,0.251-0.181
			C477.883,50.041,478.081,50.519,478.34,50.967 M476.473,50.345c-0.108-0.416-0.183-0.843-0.227-1.281
			c0.418-0.229,0.852-0.434,1.267-0.662c0.035,0.013,0.069,0.026,0.103,0.04c0.002,0.269,0.03,0.532,0.078,0.791
			C477.236,49.54,476.815,49.949,476.473,50.345 M480.367,48.11c-0.991,0.01-3.431-0.135-3.974-1.19
			c-0.089-0.168-0.309-0.041-0.284,0.12c0.087,0.568,0.522,0.952,1.074,1.22c-0.331,0.162-0.649,0.363-0.953,0.571
			c-0.029-0.402-0.037-0.811-0.013-1.231c0.032-0.523-0.733-0.494-0.796,0c-0.284,2.256,0.448,4.448,1.881,6.15
			c-4.071-0.538-7.077-3.217-7.902-7.41c-0.035-0.181-0.241-0.199-0.361-0.106c-0.128-0.093-0.333-0.094-0.43,0.069
			c-1.283,2.181-3.541,3.737-6.154,3.507c-3.025-0.264-5.093-2.943-5.162-5.87c-0.005-0.221-0.262-0.398-0.464-0.265
			c-2.748,1.823-6.159-1.284-6.827-3.885c-0.776-3.03,1.078-5.979,3.945-6.978c0.215-0.074,0.274-0.313,0.127-0.485
			c-5.085-5.978,2.21-18.716,9.674-12.932c0.18,0.14,0.544,0.139,0.588-0.156c0.861-5.766,6.447-9.015,12.014-7.865
			c5.174,1.07,7.903,6.151,6.314,11.098c-0.038,0.118-0.014,0.227,0.044,0.317c-0.083,0.36,0.3,0.795,0.718,0.553
			c2.29-1.326,4.976-1.416,7.554-1.135c3.306,0.361,5.709,2.288,6.141,5.687c0.688,5.393-3.631,12.575-9.651,11.806
			c-0.352-0.045-0.578,0.428-0.401,0.701c1.837,2.825-0.71,5.804-3.261,6.949C482.715,47.837,481.565,48.099,480.367,48.11
			 M483.435,48.444c0.352-0.117,0.698-0.25,1.033-0.411c0.59-0.282,1.158-0.652,1.68-1.079c0.237,0.198,0.501,0.379,0.777,0.523
			C485.856,47.973,484.658,48.287,483.435,48.444 M487.267,47.316c-0.323-0.151-0.633-0.315-0.932-0.519
			c0.322-0.281,0.621-0.588,0.889-0.914c0.419,0.248,0.865,0.456,1.329,0.6C488.16,46.799,487.729,47.076,487.267,47.316
			 M488.79,46.284c-0.484-0.177-0.955-0.366-1.412-0.594c0.366-0.472,0.665-0.983,0.881-1.516c0.51,0.326,1.023,0.65,1.551,0.947
			C489.519,45.553,489.179,45.942,488.79,46.284 M489.936,44.934c-0.52-0.341-1.059-0.654-1.599-0.964
			c0.325-0.914,0.394-1.891,0.091-2.865c0.741,0.562,1.513,1.117,2.314,1.57C490.614,43.534,490.335,44.285,489.936,44.934
			 M491.289,41.919v-0.002c-0.1-0.246-0.464-0.225-0.477,0.065c-0.007,0.134-0.018,0.267-0.031,0.397
			c-0.811-0.58-1.662-1.113-2.497-1.661c-0.004-0.011-0.008-0.021-0.013-0.033c0.769,0.019,1.508-0.084,2.214-0.28
			c0.635,0.456,1.29,0.882,1.971,1.262C492.075,41.775,491.688,41.862,491.289,41.919 M492.762,41.577
			c-0.688-0.402-1.369-0.813-2.041-1.244c0.852-0.266,1.651-0.68,2.389-1.202c0.678,0.475,1.394,0.887,2.153,1.211
			C494.492,40.866,493.654,41.291,492.762,41.577 M495.478,40.198c-0.752-0.361-1.485-0.748-2.186-1.194
			c0.462-0.344,0.896-0.734,1.305-1.159c0.63,0.537,1.313,1.008,2.06,1.363c0.002,0,0.004,0,0.006,0.001
			C496.291,39.564,495.895,39.899,495.478,40.198 M496.831,39.049c-0.011-0.02-0.023-0.041-0.051-0.056
			c-0.703-0.403-1.374-0.839-2.006-1.342c0.428-0.466,0.82-0.975,1.177-1.51c0.719,0.46,1.432,0.937,2.173,1.363
			C497.738,38.056,497.305,38.574,496.831,39.049 M498.247,37.319c-0.705-0.478-1.445-0.912-2.175-1.355
			c0.515-0.8,0.943-1.662,1.28-2.552c0.653,0.553,1.368,1.074,2.147,1.431C499.184,35.715,498.763,36.548,498.247,37.319
			 M499.585,34.61c-0.747-0.43-1.481-0.85-2.169-1.381c0.222-0.616,0.394-1.245,0.521-1.874c0.685,0.509,1.368,1.03,2.08,1.497
			C499.919,33.45,499.779,34.037,499.585,34.61 M500.14,31.728c-0.014,0.285-0.043,0.568-0.08,0.849
			c-0.671-0.514-1.376-0.988-2.072-1.467c0.139-0.774,0.196-1.548,0.178-2.306c0.628,0.428,1.256,0.854,1.902,1.251
			C500.141,30.596,500.168,31.155,500.14,31.728"/>
		<path fill="#FFFFFF" d="M466.4,35.998c0.062-0.91-0.121-1.866-0.153-2.764c-0.034-0.983,0.069-2.011,0.016-2.999
			c0.379-0.101,0.668-0.463,0.668-0.861c0-0.522-0.409-0.838-0.888-0.888c-0.607-0.063-1.384-0.189-1.976-0.014
			c-0.613,0.181-0.872,1.194-0.193,1.493c0.193,0.087,0.408,0.144,0.631,0.186c0.043,1.883-0.379,4.11,0.147,5.944
			c-0.063,0.013-0.126,0.019-0.188,0.036c-0.629,0.161-0.762,1.085-0.183,1.399c0.611,0.334,1.442,0.22,2.114,0.221
			C467.523,37.754,467.527,35.993,466.4,35.998"/>
		<path fill="#FFFFFF" d="M472.262,29.75c-0.885-0.807-3.483-2.009-4.456-0.713c-0.563,0.751-0.099,2.355-0.042,3.216
			c0.1,1.483,0.152,2.979,0.384,4.447c0.09,0.571,0.653,0.699,1.094,0.515c0.518,0.433,1.418,0.29,2.022,0.125
			c0.912-0.249,1.467-0.895,1.832-1.736C473.942,33.66,473.905,31.254,472.262,29.75 M471.388,35.056
			c-0.408,0.637-0.894,0.618-1.506,0.623c-0.037-0.005-0.073-0.005-0.108-0.001c-0.023-1.048-0.121-2.099-0.19-3.142
			c-0.032-0.465,0.104-1.578-0.133-1.972c0.018-0.085,0.022-0.155,0.014-0.205c0.152,0.015,0.304,0.041,0.454,0.084
			c1.267,0.344,1.992,1.487,1.941,2.777C471.836,33.778,471.688,34.587,471.388,35.056"/>
		<path fill="#FFFFFF" d="M477.67,34.566c0.059,0.002,0.124,0.003,0.201,0.006c-0.141-0.082-0.288-0.123-0.449-0.123
			c-0.229,0.013-1.067,0.209-1.095,0.165c-0.061-0.103-0.032-0.584-0.001-1.007c0.185,0.022,0.368,0.034,0.555,0.034
			c0.459,0.001,0.898-0.404,0.879-0.876c-0.022-0.477-0.387-0.879-0.879-0.879c-0.154,0-0.335,0.001-0.52,0.017
			c-0.002-0.353-0.002-0.705-0.005-1.059c0-0.318-0.004-0.636-0.007-0.955c0.074-0.018,0.194-0.063,0.36-0.133
			c0.435-0.114,0.714-0.335,1.001-0.658c0.195-0.217,0.188-0.592-0.096-0.74c-0.707-0.38-2.021-0.478-2.686,0.081
			c-0.811,0.68-0.369,2.558-0.362,3.48c0.007,1.049-0.381,3.07,0.219,4c0.604,0.937,2.017,0.426,2.873,0.285
			c0.366-0.06,0.672-0.501,0.655-0.861C478.286,34.764,478.017,34.76,477.67,34.566"/>
		<path fill="#FFFFFF" d="M484.177,35.15c-0.229-1.956,0.585-7.283-2.813-7.135c-1.271,0.056-2.039,1.195-2.256,2.334
			c-0.309,1.636-0.337,3.94,0.219,5.51c0.215,0.607,1.259,0.763,1.395,0c0.134-0.762,0.096-1.506,0.076-2.27
			c0.482-0.002,0.965-0.055,1.445,0.004c0.02,0.003,0.039-0.002,0.06-0.002c0.001,0.517,0.015,1.032,0.081,1.553
			C482.346,36.276,484.313,36.308,484.177,35.15 M481.805,31.971c-0.257,0.114-0.572,0.142-0.842,0.216
			c-0.082,0.021-0.16,0.05-0.238,0.076c-0.046-0.701-0.059-1.508,0.194-1.821c0.349-0.05,0.697-0.097,1.047-0.147
			c0.13,0.254,0.211,0.523,0.238,0.805c0.053,0.26,0.074,0.52,0.087,0.779C482.128,31.873,481.96,31.9,481.805,31.971"/>
	</g>
</g>
</svg>
