<?xml version="1.0" encoding="utf-8"?>
<!-- Generator: Adobe Illustrator 16.0.0, SVG Export Plug-In . SVG Version: 6.00 Build 0)  -->
<!DOCTYPE svg PUBLIC "-//W3C//DTD SVG 1.1//EN" "http://www.w3.org/Graphics/SVG/1.1/DTD/svg11.dtd">
<svg version="1.1" id="Layer_1" xmlns="http://www.w3.org/2000/svg" xmlns:xlink="http://www.w3.org/1999/xlink" x="0px" y="0px"
	 width="180px" height="180px" viewBox="623 -24.5 180 180" enable-background="new 623 -24.5 180 180" xml:space="preserve">
<rect x="623" y="-24.5" fill="#4899C3" width="180" height="180"/>
<g>
	<path fill="#FFFFFF" d="M732.633,35.109c-0.031-1.001,0.783-12.851-2.357-10.627c0,0-0.002-0.001-0.004-0.001
		c-9.617-0.778-19.354-0.697-29-0.775c-9.557-0.077-19.498-0.637-29.004,0.491c-0.006,0.001-0.008,0.004-0.014,0.004
		c-0.393-0.111-0.891,0.098-0.916,0.634c-0.537,11.612-0.176,23.223,0.635,34.813c0.02,0.498,0.049,0.995,0.102,1.491
		c0.016,0.202,0.105,0.352,0.223,0.464c-0.012,0.001-0.023,0.002-0.035,0.003c-0.564,0.042-0.572,0.856,0,0.882
		c9.879,0.467,19.949-0.2,29.836-0.428c9.945-0.227,19.895-0.376,29.832-0.846c0.467-0.022,0.699-0.401,0.689-0.765
		c0.227-0.027,0.455-0.196,0.477-0.452C733.738,51.807,732.885,43.318,732.633,35.109 M731.932,59.774
		c-9.947,0.276-19.885,0.769-29.832,1.059c-9.531,0.277-19.193,0.051-28.709,0.703c0.066-0.106,0.113-0.23,0.105-0.395
		c-0.053-0.923-0.096-1.847-0.145-2.77c12.094,0.588,24.471,0.997,36.568,0.55c0.215-0.009,0.215-0.323,0-0.335
		c-12.119-0.625-24.445-0.574-36.582-0.514c-0.033-0.676-0.061-1.354-0.09-2.032c0.547-0.169,2.084,0.094,2.59,0.094
		c1.072,0.002,2.143-0.019,3.211-0.021c1.928-0.004,3.854,0.01,5.781,0.032c3.85,0.044,7.701,0.268,11.553,0.248
		c0.215,0,0.207-0.311,0-0.331c-4.678-0.428-9.43-0.408-14.123-0.399c-2.139,0.005-4.281,0.022-6.422,0.083
		c-0.688,0.019-1.854-0.184-2.598,0.141c-0.037-0.859-0.059-1.717-0.09-2.577c5.23,0.003,10.51,0.293,15.73,0.064
		c0.133-0.006,0.131-0.193,0-0.205c-5.197-0.458-10.525-0.217-15.738-0.075c-0.045-1.222-0.076-2.443-0.113-3.665
		c10.418,0.632,21.168,0.688,31.584,0.183c0.197-0.009,0.199-0.299,0-0.307c-10.453-0.415-21.133-0.467-31.592-0.129
		c-0.035-1.174-0.061-2.35-0.088-3.523c9.531-0.175,19.051,0.028,28.574-0.092c0.221-0.003,0.215-0.32,0-0.34
		c-9.379-0.818-19.189-0.506-28.58,0.229c-0.027-1.256-0.051-2.512-0.074-3.77c3.357-0.076,6.715-0.189,10.072-0.302
		c3.631-0.122,7.455-0.612,11.051,0.016c0.184,0.032,0.258-0.221,0.078-0.283c-3.035-1.029-6.686-0.321-9.828-0.196
		c-3.793,0.152-7.588,0.3-11.379,0.492c-0.025-1.445-0.037-2.891-0.055-4.336c7.721-0.054,15.514,0.09,23.219-0.316
		c0.248-0.014,0.25-0.378,0-0.386c-7.701-0.292-15.52,0.105-23.221,0.431c-0.018-1.395-0.027-2.79-0.039-4.185
		c4.387-0.081,8.828-0.017,13.197-0.375c0.199-0.017,0.203-0.307,0-0.312c-4.385-0.102-8.814,0.226-13.199,0.404
		c-0.01-1.247-0.01-2.495-0.016-3.742c6.455,0.242,12.984,0.331,19.436,0.056c0.297-0.013,0.299-0.457,0-0.46
		c-6.471-0.067-12.963,0.03-19.436,0.09c-0.004-1.001-0.014-2.004-0.012-3.007c9.434,0.661,19.094-0.037,28.549,0.03
		c9.664,0.069,19.336,0.613,28.998,0.553c0.027,0,0.047-0.012,0.072-0.015c0.176,0.086,0.391,0.082,0.613-0.081
		c-0.795,0.585,0.102,6.711,0.141,8.042c0.086,3.057,0.186,6.114,0.279,9.17c0.174,5.586,0.035,11.297,0.771,16.844
		C732.078,59.794,732.012,59.773,731.932,59.774"/>
	<path fill="#FFFFFF" d="M672.598,61.857c0.006,0,0.006-0.011,0-0.011"/>
	<path fill="#FFFFFF" d="M702.227,19.619c-0.094,0.018-0.168,0.073-0.219,0.143c-0.564-0.079-1.16,0.511-1.279,1.162
		c-0.168,0.943,0.432,1.955,1.408,2.106c0.938,0.144,1.922-0.572,2.016-1.535C704.254,20.475,703.27,19.413,702.227,19.619
		 M702.301,21.994c-0.387-0.062-0.611-0.51-0.549-0.876c0.031-0.187,0.127-0.313,0.266-0.431c0.092-0.078,0.205-0.125,0.297-0.2
		c0.01-0.007,0.018-0.013,0.025-0.018c0.463,0.088,0.963,0.317,0.9,0.893C703.195,21.774,702.691,22.056,702.301,21.994"/>
	<path fill="#FFFFFF" d="M735.756,70.115c-0.141-0.507-0.58-0.934-0.863-1.377c-0.299-0.472-0.561-0.971-0.781-1.484
		c-0.135-0.315-0.496-0.264-0.693-0.055c-9.553,0.151-19.105,0.439-28.66,0.707c-0.047-0.073-0.092-0.147-0.15-0.214
		c-0.234-0.281-0.58-0.047-0.633,0.235c-0.432,0.014-0.863,0.024-1.293,0.037c-10.246,0.284-20.703-0.388-30.908,0.525
		c-0.381,0.034-0.389,0.555-0.018,0.599c-0.16,0.207-0.291,0.454-0.414,0.644c-0.279,0.426-0.533,0.871-0.77,1.32
		c-0.078,0.146-0.068,0.28-0.018,0.389c-0.006,0.126,0.076,0.271,0.223,0.286c5.17,0.501,10.553-0.003,15.742-0.102
		c5.469-0.102,10.936-0.215,16.402-0.293c10.717-0.152,21.434-0.123,32.15-0.111c0.412,0,0.604-0.342,0.58-0.663
		C735.754,70.45,735.807,70.296,735.756,70.115 M674.215,70.915c-0.826,0.058-1.65,0.125-2.469,0.224
		c0.223-0.225,0.432-0.46,0.611-0.721c0.232-0.334,0.59-0.814,0.533-1.249c0.611,0.038,1.227,0.056,1.84,0.084
		C674.352,69.693,674.182,70.397,674.215,70.915 M677.67,70.761c-0.975,0.024-1.945,0.062-2.912,0.119
		c0.096-0.284,0.189-0.567,0.32-0.836c0.125-0.249,0.283-0.491,0.369-0.758c0.826,0.031,1.654,0.048,2.482,0.063
		c-0.127,0.388-0.215,0.794-0.316,1.187C677.588,70.632,677.617,70.709,677.67,70.761 M681.094,70.724
		c-1.016,0.004-2.031,0.012-3.047,0.032c0.02-0.024,0.037-0.053,0.049-0.089c0.131-0.429,0.293-0.862,0.387-1.304
		c0.984,0.017,1.967,0.021,2.951,0.019c-0.141,0.288-0.281,0.573-0.422,0.859C680.918,70.433,680.977,70.609,681.094,70.724
		 M684.785,70.707c-1.039,0.009-2.082,0.012-3.129,0.016c0.018-0.022,0.041-0.039,0.057-0.069c0.215-0.387,0.432-0.774,0.648-1.161
		c0.023-0.041,0.027-0.08,0.037-0.119c0.998-0.008,1.996-0.032,2.994-0.052C685.129,69.746,684.957,70.236,684.785,70.707
		 M688.164,70.661c-0.547,0.011-1.096,0.016-1.643,0.025c-0.344,0.008-0.689,0.009-1.033,0.012c0.26-0.419,0.523-0.863,0.629-1.331
		c0.004-0.02,0.002-0.039,0.002-0.059c0.848-0.019,1.697-0.044,2.545-0.067C688.43,69.675,688.295,70.192,688.164,70.661
		 M692.016,70.605c-1,0.016-2,0.024-3,0.042c0.205-0.457,0.408-0.94,0.453-1.428c0.947-0.025,1.895-0.055,2.842-0.085
		C692.08,69.544,692.023,70.095,692.016,70.605 M695.143,70.562c-0.842,0.012-1.684,0.022-2.523,0.035
		c0.031-0.169,0.064-0.336,0.109-0.501c0.092-0.324,0.234-0.64,0.229-0.98c0.746-0.022,1.49-0.041,2.236-0.062
		C695.057,69.532,695.078,70.077,695.143,70.562 M695.951,70.549c-0.016-0.358,0.006-0.707,0.092-1.059
		c0.039-0.157,0.08-0.309,0.111-0.462c0.736-0.021,1.471-0.036,2.205-0.053c-0.113,0.476,0.01,1.068,0.172,1.536
		C697.67,70.526,696.811,70.536,695.951,70.549 M699.008,70.506c-0.029-0.334-0.02-0.66,0.041-0.997
		c0.031-0.182,0.09-0.367,0.115-0.552c0.674-0.014,1.346-0.019,2.018-0.026c-0.094,0.495-0.014,1.07,0.047,1.543
		C700.488,70.484,699.75,70.495,699.008,70.506 M702.266,70.46c-0.041,0-0.08,0.002-0.119,0.002
		c0.059-0.476,0.139-1.052,0.039-1.544c0.166-0.002,0.33-0.007,0.494-0.007c0.521-0.002,1.041-0.007,1.561-0.01
		c0.049,0.125,0.098,0.249,0.135,0.376c0.115,0.378,0.201,0.76,0.262,1.15C703.848,70.438,703.057,70.45,702.266,70.46
		 M705.33,70.418c-0.01-0.481-0.049-1.018-0.17-1.522c0.689-0.004,1.377-0.012,2.064-0.015c0.072,0.513,0.338,1.056,0.631,1.498
		C707.014,70.393,706.17,70.406,705.33,70.418 M708.74,70.365c-0.166-0.369-0.338-0.738-0.449-1.129
		c-0.033-0.12-0.061-0.242-0.09-0.364c0.688-0.005,1.375-0.014,2.063-0.019c0.076,0.195,0.176,0.383,0.26,0.561
		c0.146,0.31,0.309,0.612,0.467,0.917C710.24,70.343,709.49,70.355,708.74,70.365 M711.68,70.321
		c-0.162-0.395-0.322-0.792-0.496-1.184c-0.043-0.091-0.084-0.19-0.127-0.291c0.871-0.007,1.74-0.019,2.609-0.027
		c-0.029,0.51,0.285,1.07,0.66,1.461C713.443,70.294,712.563,70.308,711.68,70.321 M715.176,70.269
		c-0.002-0.037-0.014-0.074-0.031-0.11c-0.15-0.28-0.314-0.538-0.41-0.844c-0.053-0.165-0.092-0.339-0.146-0.505
		c1.059-0.014,2.119-0.027,3.18-0.042c0.145,0.504,0.412,0.99,0.641,1.452C717.332,70.236,716.254,70.252,715.176,70.269
		 M719.289,70.208c0.012-0.063,0.014-0.128-0.01-0.2c-0.139-0.404-0.27-0.843-0.443-1.254c0.793-0.011,1.59-0.03,2.383-0.044
		c0.057,0.194,0.146,0.379,0.258,0.585c0.156,0.292,0.314,0.583,0.473,0.874C721.063,70.183,720.174,70.193,719.289,70.208
		 M722.762,70.157c0-0.001,0-0.003,0-0.003c-0.152-0.403-0.309-0.805-0.465-1.207c-0.033-0.089-0.066-0.173-0.102-0.258
		c0.91-0.017,1.816-0.039,2.723-0.058c0.086,0.551,0.414,1.092,0.762,1.488C724.705,70.133,723.734,70.142,722.762,70.157
		 M726.23,70.113c0.055-0.09,0.068-0.202,0.008-0.311c-0.174-0.321-0.301-0.672-0.385-1.027c-0.016-0.054-0.023-0.107-0.033-0.162
		c1.025-0.021,2.053-0.058,3.08-0.084c0.074,0.545,0.314,1.104,0.578,1.527c0.004,0.007,0.008,0.009,0.012,0.016
		C728.402,70.087,727.316,70.098,726.23,70.113 M730.359,70.061c0.074-0.114,0.115-0.256,0.094-0.414
		c-0.051-0.371-0.188-0.708-0.33-1.054c-0.012-0.032-0.027-0.063-0.041-0.094c1.156-0.031,2.311-0.054,3.465-0.094
		c0.109,0.308,0.232,0.605,0.379,0.897c0.113,0.222,0.25,0.474,0.41,0.708C733.01,70.023,731.684,70.044,730.359,70.061"/>
	<path fill="#FFFFFF" d="M741.178,83.381c-0.857-1.539-1.953-2.918-2.775-4.492c-0.799-1.542-1.506-3.132-2.24-4.709
		c0.252-0.33,0.113-0.942-0.424-0.929c-5.113,0.118-10.23,0.215-15.348,0.301c-0.133-0.266-0.482-0.197-0.609,0.009
		c-2.709,0.044-5.42,0.092-8.129,0.126c-0.092-0.048-0.199-0.043-0.289,0.004c-0.939,0.013-1.877,0.029-2.814,0.041
		c-0.191-0.221-0.537-0.187-0.736,0.007c-1.684,0.017-3.367,0.037-5.049,0.048c-10.832,0.069-21.738-0.278-32.561,0.223
		c-0.084-0.015-0.17-0.01-0.256,0.012c-0.053,0.002-0.105,0.003-0.158,0.006c-0.186,0.008-0.268,0.155-0.256,0.294
		c-2.439,3.245-4.623,6.81-6.365,10.469c-0.117,0.246,0.164,0.545,0.385,0.397c12.713,0.917,25.727,0.274,38.473,0.309
		c12.887,0.033,25.779-0.117,38.654-0.647c0.5-0.02,0.646-0.558,0.459-0.883C741.256,83.808,741.295,83.596,741.178,83.381
		 M699.148,74.759c0.803-0.01,1.605-0.02,2.408-0.028c-0.084,0.497-0.141,0.998-0.18,1.506c-0.016-0.002-0.033-0.002-0.051-0.002
		c-0.762-0.013-1.525-0.03-2.289-0.052C699.082,75.708,699.117,75.232,699.148,74.759 M698.943,77.18
		c0.791,0.008,1.58,0.018,2.371,0.025c-0.027,0.736-0.025,1.471-0.018,2.199c-0.852-0.006-1.705-0.024-2.557-0.041
		C698.801,78.635,698.871,77.907,698.943,77.18 M698.668,80.377c0.877,0,1.754-0.001,2.629,0.001
		c-0.008,0.425-0.018,0.867-0.006,1.309c-0.891,0.003-1.781,0-2.674-0.002C698.631,81.247,698.646,80.811,698.668,80.377
		 M695.799,77.146c0.617,0.007,1.236,0.014,1.852,0.02c-0.092,0.712-0.164,1.442-0.207,2.178c-0.656-0.015-1.316-0.036-1.975-0.055
		C695.576,78.574,695.682,77.858,695.799,77.146 M695.246,80.825c0.018-0.149,0.045-0.296,0.064-0.446
		c0.701-0.001,1.402-0.002,2.102-0.003c-0.008,0.442,0.002,0.877,0.021,1.309c-0.758-0.003-1.518-0.009-2.275-0.015
		C695.184,81.387,695.211,81.104,695.246,80.825 M692.922,74.879c0.004-0.015,0-0.026,0.002-0.04
		c0.689-0.011,1.381-0.019,2.07-0.027c-0.08,0.409-0.154,0.82-0.223,1.233c-0.703-0.025-1.408-0.052-2.113-0.079
		C692.748,75.604,692.832,75.243,692.922,74.879 M689.336,75.059c0.02-0.064,0.016-0.122,0.014-0.18
		c0.861-0.007,1.719-0.017,2.58-0.027c-0.123,0.355-0.24,0.713-0.352,1.075c-0.822-0.029-1.645-0.058-2.467-0.085
		C689.186,75.582,689.262,75.32,689.336,75.059 M691.244,77.092c-0.184,0.675-0.344,1.358-0.488,2.048
		c-0.857-0.031-1.715-0.063-2.572-0.094c0.195-0.66,0.385-1.321,0.574-1.981C689.584,77.072,690.414,77.083,691.244,77.092
		 M685.42,74.899c0.943-0.002,1.885-0.003,2.828-0.011c-0.096,0.306-0.188,0.614-0.281,0.921c-0.896-0.026-1.793-0.047-2.691-0.063
		C685.34,75.465,685.389,75.184,685.42,74.899 M687.588,77.051c-0.193,0.649-0.375,1.302-0.557,1.955
		c-0.938-0.034-1.875-0.064-2.811-0.097c0.221-0.618,0.467-1.246,0.684-1.882C685.799,77.035,686.693,77.04,687.588,77.051
		 M681.686,74.895c0.963,0.007,1.926,0.01,2.889,0.01c-0.139,0.265-0.262,0.542-0.373,0.826c-0.879-0.013-1.756-0.016-2.633-0.014
		C681.623,75.444,681.662,75.169,681.686,74.895 M683.764,77.016c-0.188,0.627-0.355,1.259-0.539,1.863
		c-0.898-0.029-1.797-0.051-2.693-0.073c0.234-0.592,0.48-1.196,0.686-1.81C682.066,77.003,682.914,77.008,683.764,77.016
		 M682.791,80.311c-0.125,0.413-0.252,0.825-0.375,1.239c-1.031-0.007-2.063-0.009-3.096-0.011c0.213-0.445,0.426-0.882,0.621-1.304
		C680.889,80.264,681.84,80.292,682.791,80.311 M678.244,74.844c0.832,0.014,1.664,0.035,2.496,0.044
		c-0.15,0.269-0.291,0.547-0.42,0.836c-0.773,0.009-1.549,0.028-2.32,0.051C678.092,75.464,678.168,75.153,678.244,74.844
		 M679.836,76.986c-0.203,0.593-0.387,1.196-0.572,1.789c-0.787-0.017-1.574-0.028-2.361-0.037c0.25-0.588,0.49-1.174,0.703-1.766
		C678.35,76.978,679.092,76.98,679.836,76.986 M674.07,74.741c1.057,0.034,2.115,0.062,3.172,0.084c-0.174,0.328-0.34,0.66-0.5,1
		c-1.076,0.046-2.148,0.108-3.219,0.189C673.73,75.599,673.918,75.176,674.07,74.741 M672.014,78.736
		c0.324-0.595,0.672-1.181,1.006-1.775c1.07,0.003,2.139-0.002,3.209,0.005c-0.246,0.579-0.479,1.166-0.699,1.761
		C674.355,78.721,673.186,78.723,672.014,78.736 M675.055,80.033c-0.178,0.509-0.352,1.019-0.525,1.526
		c-1.313,0.016-2.623,0.037-3.934,0.069c0.287-0.612,0.58-1.22,0.881-1.824C672.668,79.895,673.859,79.969,675.055,80.033
		 M670.602,74.858c0.049-0.091,0.074-0.176,0.08-0.259c0.781,0.043,1.564,0.069,2.346,0.099c-0.383,0.445-0.74,0.933-1.07,1.451
		c-0.744,0.071-1.49,0.149-2.232,0.244C670.021,75.885,670.32,75.375,670.602,74.858 M669.4,76.958
		c0.691-0.004,1.383,0.001,2.074,0.001c-0.324,0.581-0.623,1.187-0.898,1.81c-0.779,0.018-1.563,0.028-2.342,0.059
		C668.633,78.21,669.021,77.586,669.4,76.958 M667.805,79.479c0.791,0.083,1.59,0.146,2.387,0.212
		c-0.262,0.654-0.498,1.314-0.715,1.972c-1.088,0.03-2.176,0.063-3.264,0.109C666.762,81.022,667.289,80.255,667.805,79.479
		 M668.658,84.36c-1.545,0.061-3.084,0.139-4.619,0.241c0.623-0.758,1.23-1.536,1.82-2.328c1.107,0.11,2.221,0.191,3.332,0.271
		C669,83.166,668.822,83.775,668.658,84.36 M673.605,84.226c-1.408,0.023-2.814,0.061-4.219,0.109c0.246-0.575,0.5-1.148,0.756-1.72
		c1.318,0.083,2.637,0.151,3.957,0.202C673.936,83.293,673.773,83.762,673.605,84.226 M677.58,84.185
		c-1.115,0.004-2.229,0.012-3.342,0.027c0.229-0.448,0.459-0.902,0.695-1.362c0.918,0.03,1.838,0.056,2.756,0.074
		C677.576,83.352,677.525,83.776,677.58,84.185 M675.588,81.55c0.24-0.481,0.475-0.964,0.703-1.452
		c0.832,0.038,1.666,0.074,2.498,0.103c-0.152,0.415-0.369,0.866-0.578,1.337C677.336,81.539,676.461,81.543,675.588,81.55
		 M681.668,84.191c-1.105-0.007-2.215-0.007-3.318-0.005c0.074-0.408,0.199-0.824,0.361-1.247c1.1,0.017,2.201,0.03,3.301,0.032
		C681.896,83.379,681.781,83.783,681.668,84.191 M685.713,84.23c-1.135-0.016-2.27-0.025-3.404-0.035
		c0.156-0.406,0.307-0.814,0.457-1.224c1.082,0,2.164-0.006,3.246-0.018C685.91,83.381,685.809,83.806,685.713,84.23
		 M683.285,81.557c0.148-0.41,0.291-0.819,0.434-1.229c0.982,0.016,1.963,0.027,2.945,0.036c-0.107,0.406-0.215,0.813-0.316,1.219
		C685.326,81.57,684.307,81.564,683.285,81.557 M690.02,84.291c-1.141-0.018-2.283-0.033-3.426-0.05
		c0.139-0.43,0.268-0.863,0.4-1.294c1.053-0.015,2.104-0.03,3.156-0.051C690.098,83.362,690.055,83.827,690.02,84.291
		 M690.313,81.624c-0.965-0.011-1.932-0.021-2.898-0.032c0.123-0.406,0.254-0.811,0.375-1.218c0.91,0.005,1.816,0.008,2.725,0.009
		C690.439,80.796,690.373,81.21,690.313,81.624 M690.727,84.3c0.104-0.476,0.213-0.946,0.318-1.42
		c0.99-0.019,1.979-0.041,2.965-0.062c0.006,0.523,0.064,1.036,0.195,1.53C693.047,84.334,691.887,84.318,690.727,84.3
		 M694.064,81.663c-0.912-0.011-1.826-0.019-2.74-0.029c0.094-0.416,0.184-0.834,0.281-1.251c0.867,0,1.734,0,2.602-0.001
		C694.156,80.801,694.104,81.231,694.064,81.663 M694.336,79.259c-0.814-0.024-1.635-0.054-2.451-0.082
		c0.162-0.69,0.334-1.382,0.5-2.072c0.74,0.009,1.479,0.019,2.219,0.025C694.502,77.838,694.416,78.549,694.336,79.259
		 M694.676,84.354c0.188-0.501,0.295-1.025,0.365-1.558c0.824-0.018,1.65-0.036,2.473-0.055c0.064,0.571,0.162,1.12,0.289,1.645
		C696.764,84.378,695.721,84.366,694.676,84.354 M697.799,76.147c-0.607-0.018-1.213-0.04-1.822-0.06
		c0.068-0.393,0.133-0.787,0.199-1.18c0.01-0.041-0.002-0.075-0.002-0.112c0.625-0.008,1.248-0.017,1.871-0.024
		C697.959,75.213,697.875,75.671,697.799,76.147 M698.381,84.388c0.102-0.548,0.156-1.106,0.189-1.669
		c0.934-0.019,1.867-0.039,2.799-0.054c0.09,0.631,0.271,1.23,0.643,1.728c0.002,0.002,0.006,0.002,0.008,0.004
		C700.809,84.401,699.594,84.395,698.381,84.388 M737.227,79.406c0.26,0.577,0.547,1.142,0.861,1.683
		c-1.014,0.011-2.025,0.027-3.039,0.041c-0.215-0.491-0.418-0.992-0.621-1.488c0.842-0.047,1.686-0.094,2.527-0.147
		C737.064,79.488,737.15,79.452,737.227,79.406 M729.754,76.929c0.797-0.028,1.596-0.061,2.395-0.093
		c0.254,0.583,0.514,1.162,0.771,1.745c-0.773,0.042-1.545,0.084-2.322,0.123C730.32,78.11,730.041,77.518,729.754,76.929
		 M730.596,81.19c-0.947,0.017-1.891,0.03-2.836,0.049c-0.205-0.396-0.404-0.778-0.563-1.136c-0.02-0.042-0.037-0.082-0.057-0.124
		c0.902-0.034,1.805-0.077,2.707-0.116C730.09,80.313,730.34,80.754,730.596,81.19 M733.416,79.696
		c0.07,0.152,0.137,0.308,0.205,0.461c0.145,0.314,0.281,0.648,0.424,0.986c-0.768,0.01-1.531,0.018-2.297,0.028
		c-0.213-0.453-0.426-0.907-0.637-1.362C731.881,79.773,732.646,79.735,733.416,79.696 M736.232,76.609
		c0.16,0.578,0.344,1.159,0.561,1.732c-0.949,0.066-1.896,0.125-2.846,0.18c-0.252-0.577-0.506-1.154-0.766-1.729
		c0.957-0.042,1.918-0.088,2.875-0.139C736.123,76.651,736.18,76.633,736.232,76.609 M735.771,74.383
		c0.057,0.418,0.137,0.847,0.23,1.274c-1.088,0.061-2.176,0.11-3.262,0.158c-0.211-0.462-0.426-0.923-0.639-1.385
		c1.213-0.013,2.424-0.023,3.637-0.041C735.75,74.39,735.76,74.383,735.771,74.383 M731.131,74.442c0.197,0.471,0.4,0.941,0.6,1.411
		c-0.82,0.034-1.641,0.066-2.463,0.096c-0.25-0.498-0.508-0.991-0.777-1.478C729.369,74.463,730.25,74.451,731.131,74.442
		 M729.279,78.769c-0.883,0.042-1.764,0.089-2.645,0.126c-0.293-0.616-0.592-1.229-0.898-1.839c0.904-0.023,1.809-0.056,2.713-0.088
		C728.699,77.575,728.982,78.175,729.279,78.769 M713.717,80.332c0.189,0.39,0.383,0.777,0.582,1.162
		c-1.088,0.02-2.172,0.043-3.26,0.061c-0.125-0.395-0.252-0.789-0.381-1.184C711.68,80.364,712.699,80.345,713.717,80.332
		 M710.328,79.367c-0.232-0.705-0.463-1.412-0.689-2.118c0.906,0,1.809-0.007,2.713-0.011c0.281,0.697,0.574,1.392,0.887,2.077
		C712.27,79.331,711.299,79.355,710.328,79.367 M713.494,77.235c0.975-0.005,1.947-0.018,2.922-0.024
		c0.314,0.675,0.646,1.345,0.992,2.01c-0.977,0.023-1.953,0.054-2.932,0.072C714.156,78.603,713.826,77.919,713.494,77.235
		 M717.967,80.258c0.213,0.386,0.43,0.771,0.65,1.152c-1.051,0.021-2.102,0.043-3.152,0.062c-0.172-0.386-0.35-0.771-0.525-1.156
		C715.949,80.302,716.957,80.278,717.967,80.258 M717.824,77.199c1.027-0.012,2.055-0.028,3.082-0.045
		c0.262,0.649,0.535,1.298,0.828,1.939c-0.971,0.03-1.941,0.064-2.914,0.091C718.504,78.515,718.17,77.852,717.824,77.199
		 M722.236,80.153c0.191,0.395,0.385,0.787,0.586,1.176c-1.008,0.019-2.014,0.037-3.02,0.057c-0.162-0.385-0.328-0.772-0.502-1.155
		C720.279,80.209,721.258,80.18,722.236,80.153 M722.107,77.137c0.867-0.017,1.732-0.035,2.6-0.058
		c0.252,0.626,0.512,1.248,0.771,1.867c-0.838,0.034-1.676,0.078-2.514,0.108C722.686,78.411,722.395,77.774,722.107,77.137
		 M725.945,80.026c0.182,0.413,0.365,0.825,0.557,1.235c-0.857,0.017-1.713,0.03-2.572,0.047c-0.166-0.395-0.338-0.79-0.508-1.186
		C724.264,80.096,725.105,80.056,725.945,80.026 M727.594,74.481c0.137,0.504,0.303,1.005,0.482,1.505
		c-0.945,0.032-1.891,0.065-2.834,0.092c-0.266-0.521-0.527-1.04-0.789-1.563C725.498,74.507,726.545,74.492,727.594,74.481
		 M723.674,74.526c0.213,0.527,0.426,1.053,0.637,1.578c-0.877,0.022-1.756,0.056-2.635,0.073c-0.256-0.547-0.525-1.082-0.791-1.62
		C721.813,74.549,722.742,74.535,723.674,74.526 M719.979,74.566c0.17,0.545,0.355,1.088,0.557,1.63
		c-1.072,0.019-2.148,0.038-3.225,0.051c-0.316-0.562-0.645-1.108-0.98-1.645C717.545,74.59,718.762,74.578,719.979,74.566
		 M715.318,74.61c0.209,0.55,0.434,1.101,0.672,1.649c-0.984,0.009-1.969,0.022-2.955,0.025c-0.273-0.553-0.557-1.1-0.838-1.646
		C713.236,74.63,714.277,74.618,715.318,74.61 M711.4,74.646c0.184,0.55,0.379,1.097,0.584,1.644
		c-0.881,0.002-1.762,0.01-2.645,0.008c-0.164-0.541-0.324-1.084-0.479-1.629C709.709,74.661,710.555,74.652,711.4,74.646
		 M707.785,74.678c0.127,0.535,0.262,1.075,0.402,1.617c-0.74-0.004-1.482,0.002-2.225-0.006c-0.109-0.653-0.207-1.209-0.285-1.595
		C706.381,74.689,707.082,74.683,707.785,74.678 M705.654,81.639c-1.008,0.013-2.014,0.032-3.021,0.04
		c-0.023-0.438-0.059-0.873-0.074-1.298c0.975,0.004,1.951,0.004,2.926,0.006C705.541,80.803,705.594,81.223,705.654,81.639
		 M705.311,79.053c0.02,0.119,0.033,0.24,0.051,0.36c-0.938,0.002-1.875,0.007-2.814,0.004c0-0.731,0.002-1.465,0-2.2
		c0.836,0.005,1.67,0.011,2.506,0.015C705.135,77.841,705.229,78.45,705.311,79.053 M702.764,74.719
		c0.701-0.006,1.4-0.013,2.1-0.018c-0.004,0.523,0.021,1.05,0.076,1.578c-0.803-0.011-1.605-0.018-2.408-0.029
		c-0.014-0.511-0.039-1.022-0.086-1.528C702.553,74.722,702.658,74.72,702.764,74.719 M702.207,84.396
		c0-0.002,0.004-0.002,0.004-0.004c0.307-0.536,0.412-1.134,0.438-1.748c1.055-0.017,2.113-0.022,3.168-0.035
		c0.107,0.597,0.232,1.189,0.402,1.77C704.883,84.385,703.543,84.392,702.207,84.396 M706.117,77.237
		c0.775,0.005,1.551,0.006,2.324,0.008c0.199,0.714,0.41,1.427,0.639,2.136c-0.881,0.009-1.76,0.027-2.639,0.031
		C706.34,78.674,706.227,77.928,706.117,77.237 M706.57,80.389c0.951,0,1.902-0.006,2.852-0.012
		c0.145,0.404,0.295,0.802,0.451,1.198c-1.051,0.015-2.104,0.037-3.156,0.051C706.676,81.234,706.627,80.818,706.57,80.389
		 M706.895,84.376c0.002-0.007,0.006-0.014,0.008-0.021c0.035-0.1-0.07-0.173-0.158-0.157c0.139-0.025,0.141-0.662,0.066-1.6
		c1.16-0.015,2.318-0.021,3.479-0.032c0.271,0.609,0.564,1.203,0.881,1.781C709.744,84.357,708.32,84.369,706.895,84.376
		 M711.875,84.342c-0.164-0.598-0.34-1.191-0.521-1.785c1.164-0.011,2.328-0.019,3.494-0.027c0.328,0.601,0.666,1.193,1.016,1.775
		C714.533,84.318,713.205,84.334,711.875,84.342 M716.686,84.298c-0.248-0.594-0.508-1.185-0.764-1.777
		c1.113-0.008,2.227-0.016,3.34-0.023c0.361,0.596,0.729,1.182,1.102,1.754C719.137,84.268,717.91,84.286,716.686,84.298
		 M720.939,84.245c-0.217-0.582-0.445-1.167-0.682-1.755c1.055-0.007,2.107-0.018,3.162-0.026c0.314,0.585,0.635,1.161,0.959,1.726
		C723.232,84.21,722.088,84.229,720.939,84.245 M725.154,84.176c-0.246-0.568-0.49-1.146-0.732-1.721
		c0.852-0.007,1.707-0.017,2.563-0.023c0.23,0.59,0.502,1.215,0.875,1.682C726.957,84.134,726.055,84.159,725.154,84.176
		 M729.053,84.087c-0.16-0.546-0.41-1.11-0.686-1.669c0.982-0.011,1.967-0.022,2.949-0.032c0.342,0.548,0.688,1.088,1.031,1.614
		C731.248,84.03,730.15,84.062,729.053,84.087 M733.061,83.82c-0.252-0.477-0.494-0.96-0.732-1.446
		c0.758-0.01,1.514-0.024,2.27-0.034c0.324,0.607,0.725,1.152,1.268,1.547c-0.924,0.029-1.84,0.067-2.764,0.093
		C733.102,83.929,733.09,83.877,733.061,83.82 M736.609,83.861c-0.008-0.051-0.023-0.1-0.061-0.144
		c-0.357-0.437-0.654-0.907-0.918-1.394c0.98-0.015,1.959-0.025,2.938-0.044c0.096-0.001,0.178-0.021,0.25-0.054
		c0.383,0.541,0.785,1.058,1.225,1.518C738.898,83.792,737.754,83.822,736.609,83.861"/>
	<path fill="#FFFFFF" d="M710.773,91.021c-0.096-0.526-0.596-1.067-0.83-1.51c-0.344-0.646-0.584-1.303-0.824-1.979
		c0.008-0.155-0.047-0.306-0.16-0.413c-0.162-0.34-0.674-0.393-0.875-0.134c-1.969-0.001-3.938-0.005-5.904-0.025
		c-0.994-0.01-1.986-0.019-2.98-0.03c-0.828-0.008-3.025,0.37-3.697-0.04c-0.096-0.059-0.217-0.034-0.295,0.038
		c-0.037,0.032-0.072,0.064-0.107,0.096c-0.172,0.155-0.146,0.404-0.016,0.568c-0.275,0.547-0.527,1.102-0.781,1.664
		c-0.277,0.615-0.674,1.233-0.824,1.892c-0.047,0.217,0.053,0.398,0.207,0.493c0.051,0.157,0.18,0.294,0.393,0.319
		c5.428,0.661,11.092,0.417,16.537,0.071C711.215,91.992,711.27,91.151,710.773,91.021 M694.664,91.082
		c0.637-0.86,1.025-2.061,1.191-3.109c1.428,0.417,3.51,0.03,4.834,0.025c2.48-0.01,4.965-0.003,7.445,0.012
		c0.166,0.681,0.447,1.354,0.795,1.938c0.184,0.309,0.441,0.746,0.76,1.079C704.672,91.202,699.676,91.02,694.664,91.082"/>
	<path fill="#FFFFFF" d="M758.127,96.572c0,0,0,0-0.002,0c-0.021-0.079-0.055-0.162-0.123-0.235
		c-3.016-3.354-1.385-6.88-0.863-10.791c0.396-2.986,0.25-6.127-0.916-8.938c-1.549-3.732-5.34-7.147-9.566-6.549
		c-0.164-0.79-0.516-1.473-1.332-1.447c-0.895,0.025-1.912,0.398-2.773,0.63c-0.293,0.079-0.939,0.158-1.156,0.378
		c0,0.002-0.15,0.178-0.189,0.294c-0.006,0.004-0.014-0.002-0.02,0.002c-0.018,0.018-0.033,0.035-0.053,0.054
		c-0.01,0.011-0.014,0.025-0.018,0.039c-0.645-1.928-1.291-3.86-1.953-5.8c-0.041-0.123-0.113-0.201-0.199-0.247
		c-0.211-15.08-1.184-30.158-1.398-45.245c-0.004-0.379-0.277-0.577-0.57-0.609c-0.102-0.106-0.242-0.181-0.432-0.183
		c-11.381-0.117-22.764-0.135-34.146,0.006c-5.504,0.067-11.008,0.153-16.512,0.23c-5.723,0.083-11.639-0.132-17.328,0.521
		c-0.061-0.653-1.064-0.648-1.072,0.036c-0.084,8.063,0.184,16.142,0.291,24.205c0.055,3.925,0.094,7.851,0.172,11.775
		c0.07,3.451-0.209,7.155,0.383,10.575c-0.055,0.031-0.104,0.072-0.148,0.13c-3.361,4.406-6.111,9.26-8.826,14.082
		c-2.49,4.424-5.443,8.992-7.133,13.791c-0.082,0.23,0.002,0.411,0.15,0.52c-0.379,1.771-0.492,4.03,0.133,5.575
		c0.17,0.418,0.834,0.616,1.109,0.263c7.418,1.137,15.277,0.589,22.768,0.653c8.098,0.067,16.193,0.07,24.293,0.072
		c16.193,0.005,32.395-0.047,48.584-0.377c0.09-0.001,0.17-0.019,0.242-0.041c0.26,0.166,0.639,0.12,0.738-0.27
		c0.408-1.577,0.332-3.315,0.176-4.923c-0.031-0.311-0.225-0.507-0.457-0.598c-0.002-0.011-0.002-0.021-0.004-0.032
		c-0.094-0.566-0.201-1.131-0.318-1.694c-0.041-0.212-0.148-0.347-0.281-0.427c-0.01-0.07-0.018-0.141-0.051-0.214
		c-2.787-6.054-4.975-12.199-7.078-18.416c1.396-0.333,2.795-0.665,4.193-0.995c0.207-0.05,0.387-0.277,0.375-0.494
		c-0.016-0.303-0.023-0.709-0.064-1.132c7.521,1.729,10.223,8.339,8.826,15.707c-0.658,3.476-2.242,8.619,1.777,10.699
		c-6.623,5.216,5.854,20.344,13.314,14.823C780.148,104.958,766.703,92.555,758.127,96.572 M685.252,19.28
		c5.721-0.067,11.443-0.14,17.166-0.196c11.285-0.111,22.576-0.094,33.865,0.1c0.182,14.847,0.273,29.9,1.707,44.687
		c-11.563,0.317-23.123,0.787-34.686,1.135c-5.354,0.161-10.705,0.289-16.059,0.445c-3.061,0.088-6.121,0.217-9.186,0.301
		c-1.627,0.045-8.41,1.146-9.076-0.34c-0.027-0.061-0.076-0.084-0.131-0.09c-0.025-0.023-0.053-0.045-0.084-0.061
		c0.482-3.228,0.158-6.663,0.15-9.912c-0.008-4.142-0.053-8.286-0.09-12.43c-0.068-7.898,0.012-15.818-0.234-23.714
		C674.078,19.689,679.754,19.345,685.252,19.28 M749.189,98.341c-15.945,0.261-31.887,0.527-47.834,0.567
		c-7.881,0.018-15.762-0.034-23.639-0.089c-7.865-0.056-16.111-0.856-23.932,0.075c0.045-0.834-0.082-1.679-0.113-2.516
		c-0.037-0.929-0.063-1.858-0.146-2.784c15.824,1.257,31.791,1.362,47.656,1.558c15.963,0.196,31.93,0.138,47.889-0.116
		C749.146,96.136,749.145,97.241,749.189,98.341 M748.17,92.454c0.035,0.073,0.082,0.12,0.129,0.167
		c-0.004,0.059-0.016,0.112-0.006,0.174c0.041,0.269,0.09,0.534,0.133,0.801c-15.746,0.299-31.498,0.347-47.246,0.157
		c-15.785-0.192-31.574-0.963-47.357-1.041c2.654-4.122,4.686-8.783,7.117-13.029c2.582-4.507,5.385-8.897,7.803-13.496
		c0.203,0.407,0.641,0.543,1.328,0.688c2.826,0.598,6.414-0.051,9.301-0.109c6.4-0.129,12.795-0.271,19.191-0.443
		c13.213-0.356,26.432-0.526,39.643-0.887c0.125-0.003,0.23-0.034,0.322-0.078C740.264,74.691,744.059,83.956,748.17,92.454
		 M741.902,72.339c-0.252-0.743-0.504-1.488-0.752-2.234c0.408,0.582,1.498,0.081,2.01-0.037c0.57-0.131,1.227-0.379,1.811-0.397
		c0.668-0.021,0.586,0.267,0.688,0.81c0.059,0.33,0.088,0.661,0.111,0.992C744.479,71.76,743.189,72.049,741.902,72.339
		 M765.994,97.669c-0.914,0.723-1.664,1.579-2.332,2.542c-0.131-0.137-0.289-0.254-0.477-0.333
		c-0.543-0.235-1.096-0.131-1.484,0.222c-0.926-1.063-1.955-2.099-3.166-2.839C761.209,96.635,763.709,96.734,765.994,97.669
		 M763.156,101.469c-0.119,0.388-0.436,0.729-0.873,0.577c-0.529-0.187-0.598-0.696-0.563-1.173c0.15-0.039,0.264-0.177,0.254-0.339
		C762.584,100.368,763.381,100.744,763.156,101.469 M758.045,97.595c0.928,1.099,2.043,2.046,3.127,2.989
		c-0.043,0.025-0.084,0.054-0.111,0.1c-0.352,0.616-0.012,1.384,0.523,1.808c-0.539,0.406-1.029,0.903-1.533,1.337
		c-0.617,0.536-1.236,1.073-1.857,1.607C756.793,102.965,756.365,100.238,758.045,97.595 M770.836,110.167
		c-3.73,3.588-8.053,0.981-10.844-2.226c-0.566-0.653-1.08-1.341-1.521-2.05c1.293-0.798,2.775-1.849,3.627-3.127
		c0.746,0.22,1.533-0.215,1.84-0.92c0.148-0.341,0.156-0.707,0.059-1.038c0.855-1.013,1.887-1.889,2.936-2.694
		c1,0.524,1.955,1.216,2.861,2.098C772.809,103.14,774.225,106.909,770.836,110.167"/>
</g>
</svg>
