<?xml version="1.0" encoding="utf-8"?>
<!-- Generator: Adobe Illustrator 16.0.0, SVG Export Plug-In . SVG Version: 6.00 Build 0)  -->
<!DOCTYPE svg PUBLIC "-//W3C//DTD SVG 1.1//EN" "http://www.w3.org/Graphics/SVG/1.1/DTD/svg11.dtd">
<svg version="1.1" id="Layer_1" xmlns="http://www.w3.org/2000/svg" xmlns:xlink="http://www.w3.org/1999/xlink" x="0px" y="0px"
	 width="180px" height="180px" viewBox="203 -24.5 180 180" enable-background="new 203 -24.5 180 180" xml:space="preserve">
<rect x="203" y="-24.5" fill="#4899C3" width="180" height="180"/>
<g>
	<path fill="#FFFFFF" d="M282.655,18.185c-0.902,0.208-1.73,0.6-2.483,1.101c-2.623-1.968-7.014-2.233-9.573-0.719
		c-0.376,0.222-0.716,0.479-1.038,0.748c-2.402-1.74-5.932-2.148-8.568-0.76c-0.813,0.429-1.498,0.977-2.08,1.594
		c-2.155-1.522-5.252-1.953-7.633-0.821c-0.784,0.373-1.497,0.859-2.141,1.417c-2.356-1.945-5.849-2.375-8.782-0.292
		c-1.876,1.329-3.005,3.39-3.519,5.59c-0.901,0.096-1.78,0.258-2.591,0.555c-1.862,0.68-3.164,1.935-3.153,3.587
		c-0.155,0.085-0.269,0.24-0.252,0.45c0.983,11.95,2.939,23.815,4.047,35.765c1.104,11.915,0.927,24.096,2.424,35.941
		c0.021,0.177,0.089,0.309,0.172,0.419c0.105,1.883,1.097,3.07,2.524,3.83c1.961,2.147,4.377,3.92,6.811,5.521
		c-0.034,0.161,0.028,0.33,0.236,0.37c0.146,0.028,0.298,0.049,0.447,0.076c0.061,0.04,0.122,0.079,0.183,0.12
		c0.235,0.151,0.448,0.124,0.617,0.015c9.232,1.489,19.467,0.284,28.692-0.393c4.813-0.354,15.93,0.512,17.459-5.774
		c0.007-0.024,0-0.045,0.004-0.066c1.563-3.95,0.736-8.957,0.632-12.997c-0.181-7.217-0.388-14.431-0.583-21.646
		c-0.37-13.759,0.023-27.816-1.802-41.476c-0.049-0.362-0.245-0.604-0.492-0.757C296.441,23.737,288.575,16.826,282.655,18.185
		 M271.501,21.466c0.32-0.214,0.668-0.412,1.056-0.575c1.465-0.623,3.112-0.553,4.52,0.186c0.286,0.15,0.532,0.328,0.763,0.517
		c-0.522,0.754-0.938,1.574-1.202,2.433c-1.463,0.076-2.927,0.149-4.389,0.223C272.221,23.211,271.95,22.281,271.501,21.466
		 M269.64,23.585c0.135,0.253,0.258,0.514,0.376,0.777l-0.705,0.038C269.395,24.119,269.509,23.849,269.64,23.585 M260.426,21.643
		c0.377-0.38,0.817-0.729,1.339-1.023c2.43-1.359,4.532-0.813,6.116,0.637c-0.605,1.005-0.979,2.124-1.101,3.271
		c-1.769,0.092-3.536,0.197-5.305,0.297C261.466,23.609,261.075,22.538,260.426,21.643 M251.758,21.756
		c1.902-1.061,4.139-0.929,5.676,0.621c-0.373,0.859-0.593,1.776-0.646,2.71c-0.86,0.051-1.721,0.09-2.582,0.145
		c-0.821,0.051-1.643,0.102-2.466,0.155c-0.155-1.076-0.526-2.052-1.059-2.901C251.011,22.222,251.368,21.974,251.758,21.756
		 M242.301,22.384c1.604-0.886,3.367-0.931,4.804,0.271c0.071,0.059,0.128,0.126,0.195,0.188c-0.58,0.898-1.007,1.878-1.244,2.889
		c-0.889,0.054-1.775,0.11-2.666,0.157c-1.231,0.063-2.579,0.021-3.934,0.025C240.007,24.458,240.889,23.165,242.301,22.384
		 M239.181,102.947c3.373-0.479,6.757-0.93,10.111-1.525c0.272-0.05,0.264-0.479-0.021-0.442c-3.447,0.452-6.877,1.051-10.306,1.615
		c-0.035-0.058-0.076-0.114-0.108-0.177c0.012-0.054,0.034-0.1,0.037-0.161c0.067-1.201,0.096-2.412,0.12-3.623
		c1.631-0.391,3.285-0.644,4.963-0.796c0.199-0.018,0.188-0.323-0.017-0.313c-1.685,0.091-3.323,0.378-4.937,0.813
		c0.024-1.449,0.016-2.906-0.015-4.367c1.322-0.354,2.64-0.716,3.947-1.122c0.222-0.067,0.108-0.391-0.112-0.337
		c-1.291,0.319-2.569,0.677-3.849,1.044c-0.035-1.499-0.102-3-0.183-4.503c1.159-0.283,2.317-0.567,3.45-0.941
		c0.211-0.069,0.098-0.357-0.105-0.318c-1.136,0.224-2.253,0.532-3.368,0.843c-0.101-1.821-0.235-3.645-0.383-5.47
		c1.7-0.359,3.398-0.723,5.09-1.128c0.229-0.054,0.11-0.391-0.114-0.343c-1.674,0.356-3.336,0.753-4.998,1.154
		c-0.142-1.735-0.304-3.465-0.47-5.191c3.996-0.686,7.986-1.395,11.964-2.195c0.193-0.04,0.132-0.381-0.067-0.347
		c-3.991,0.669-7.958,1.429-11.931,2.212c-0.154-1.593-0.316-3.175-0.48-4.758c2.547-0.56,5.07-1.357,7.556-2.143
		c0.215-0.066,0.104-0.386-0.11-0.33c-2.5,0.665-5.036,1.336-7.471,2.218c-0.173-1.695-0.343-3.37-0.51-5.047
		c3.708-0.932,7.44-1.712,11.212-2.336c0.254-0.042,0.238-0.443-0.021-0.406c-3.797,0.553-7.535,1.358-11.226,2.403
		c-0.055-0.53-0.111-1.073-0.163-1.599c-0.116-1.187-0.232-2.374-0.349-3.562c2.185-0.311,4.324-0.829,6.396-1.602
		c0.212-0.082,0.104-0.413-0.114-0.34c-2.072,0.689-4.161,1.244-6.311,1.631c-0.207-2.114-0.422-4.233-0.645-6.352
		c0.022,0.003,0.043,0.02,0.074,0.013c4.835-1.133,9.663-2.292,14.475-3.521c0.272-0.071,0.132-0.476-0.138-0.413
		c-4.83,1.13-9.644,2.329-14.452,3.558c-0.231-2.145-0.479-4.293-0.746-6.438c1.967-0.691,3.967-1.254,6.012-1.673
		c0.261-0.052,0.127-0.442-0.131-0.389c-2.024,0.411-3.991,0.973-5.931,1.676c-0.211-1.668-0.444-3.338-0.69-5.001
		c2.539-0.849,5.129-1.504,7.762-1.988c0.203-0.037,0.193-0.361-0.017-0.328c-2.66,0.45-5.243,1.124-7.792,2.009
		c-0.295-1.968-0.615-3.931-0.97-5.887c1.656-0.035,3.313-0.076,4.971-0.144c0.275-0.011,0.252-0.43-0.022-0.426
		c-1.677,0.032-3.353,0.09-5.028,0.151c-0.314-1.712-0.655-3.416-1.032-5.113c0.287-1.502,2.054-2.505,4.55-3.172
		c-0.064,0.89-0.083,2.093,0.229,3.072c-0.529,0.452-0.851,1.355-0.558,1.994c0.078,0.17,0.159,0.338,0.244,0.504
		c0.358,0.412,0.404,0.459,0.13,0.142c0.234,0.31,0.584,0.583,0.979,0.68c0.062,0.025,0.126,0.04,0.191,0.057
		c0.736,0.319,1.727,0.148,2.244-0.492c0.586-0.728,0.575-1.568,0.156-2.371c-0.302-0.577-0.817-0.89-1.387-0.993
		c-0.308-0.929-0.056-2.146,0.198-3.109c2.126-0.354,4.525-0.555,6.908-0.66c-0.128,1.399,0.121,2.816,0.84,4.12
		c-0.268,0.415-0.442,0.915-0.397,1.386c-0.095,0.868,0.619,1.752,1.385,2.02c0.635,0.222,1.211,0.114,1.694-0.198
		c0.741-0.26,1.243-1.128,1.298-1.856c0.065-0.841-0.384-1.771-1.187-2.132c-0.362-0.162-0.757-0.232-1.146-0.209
		c-0.349-1.067-0.428-2.16-0.253-3.206c0.365-0.009,0.725-0.015,1.08-0.018c0.042,0.122,0.081,0.242,0.126,0.365
		c0.502,1.364,2.387,0.984,2.497-0.383c2.041,0.006,3.82,0.041,5.063,0.05c0.175,1.105,0.579,2.187,1.228,3.17
		c-0.771,0.551-1.204,1.593-0.854,2.51c0.431,1.123,1.625,1.795,2.804,1.403c1.099-0.366,1.832-1.684,1.404-2.803
		c-0.282-0.732-0.889-1.267-1.604-1.445c-0.514-0.903-0.853-1.887-0.989-2.875c1.387-0.08,4.423-0.278,7.924-0.476
		c0.12,1.062,0.464,2.1,1.022,3.053c-0.013,0.01-0.025,0.018-0.037,0.027c-0.863,0.756-0.922,1.883-0.388,2.855
		c0.013,0.026,0.027,0.052,0.041,0.077c0.64,1.169,2.368,1.211,3.273,0.416c1.061-0.933,0.908-2.33,0.014-3.302
		c-0.019-0.02-0.039-0.041-0.058-0.06c-0.284-0.311-0.671-0.473-1.075-0.523c-0.355-0.875-0.536-1.783-0.533-2.669
		c2.451-0.13,4.99-0.248,7.26-0.316c-0.091,1.395,0.215,2.783,1.012,3.989c-0.102,0.123-0.192,0.254-0.261,0.404
		c-0.472,1.054-0.085,2.185,0.915,2.748l-0.249-0.148c0.744,0.776,2.242,0.626,2.897-0.188c0.716-0.89,0.653-2.112-0.188-2.899
		c-0.137-0.127-0.302-0.237-0.469-0.335c-0.464-1.183-0.742-2.442-0.71-3.631c2.685-0.022,4.525,0.08,4.555,0.408
		c0.03,0.365,0.225,0.585,0.467,0.697c0.337,12.908,1.074,25.819,1.576,38.722c0.246,6.309,0.508,12.621,0.751,18.931
		c0.148,3.873,2.657,18.35-1.617,20.834c-0.153-0.157-0.373-0.256-0.655-0.239c-7.431,0.41-14.867,0.699-22.306,0.865
		C256.582,106.103,242.913,108.293,239.181,102.947 M292.439,68.966l0.597,19.673c0.165,5.508,1.553,12.408,0.188,17.928
		c-2.914,3.843-8.254,3.58-12.585,3.957c-3.719,0.323-7.442,0.572-11.17,0.747c-6.908,0.323-14.044-0.273-20.933,0.413
		c-0.055-0.092-0.124-0.182-0.23-0.251c-1.144-0.766-2.247-1.588-3.345-2.417c6.513,0.651,13.243,0.811,19.712-0.217
		c0.245-0.038,0.235-0.391-0.02-0.391c-6.7,0.026-13.382,0.372-20.09,0.307c-0.513-0.388-1.022-0.775-1.535-1.163
		c2.137,0.374,4.529,0.355,6.47,0.344c11.652-0.075,23.288-0.337,34.927-0.981c0.326-0.02,0.543-0.182,0.674-0.396
		c2.84,0.159,3.721-2.756,3.803-5.469c0.245-8.156-0.434-16.442-0.688-24.598c-0.511-16.212-0.903-32.468-1.859-48.661
		c0.453,0.462,0.925,0.908,1.457,1.322c0.834,0.652,1.828,1.444,2.881,1.847C291.991,43.58,292.057,56.296,292.439,68.966
		 M289.898,28.058c-0.075,0.117-0.119,0.235-0.148,0.353c-0.379-0.188-0.749-0.376-1.075-0.582
		c-1.102-0.694-2.196-1.466-3.213-2.299c-0.236-1.327-1.583-1.797-3.169-1.899c0.017-0.083,0.037-0.163,0.037-0.248
		c-0.007-0.704-0.149-1.342-0.395-1.919c0.236-0.119,0.469-0.238,0.744-0.335C286.335,19.857,292.523,23.961,289.898,28.058"/>
	<g>
		<path fill="#FFFFFF" d="M258.543,73.836c-0.287-2.655-0.352-5.479-0.936-8.081c-0.005-0.141-0.131-0.28-0.242-0.161
			c-0.014,0.013-0.023,0.029-0.037,0.043c0,0-0.002,0-0.003,0c-1.415,0.218-2.851,0.35-4.253,0.643
			c-0.065,0.016-0.094,0.071-0.094,0.129c-0.652,0.434-1.226,1.132-1.801,1.688c-0.032,0.032-0.044,0.072-0.044,0.111
			c-0.002,0.01-0.004,0.016-0.004,0.026c-0.014,1.245,0.199,2.521,0.325,3.764c0.144,1.427,0.288,2.854,0.432,4.282
			c0.281,2.794,0.552,5.587,0.829,8.382c0.007,0.065,0.033,0.111,0.066,0.144c-0.047,0.138,0.003,0.334,0.155,0.343
			c1.828,0.112,3.682-0.079,5.483-0.332c0.137-0.02,0.185-0.161,0.164-0.282c0.002-0.003,0.004-0.006,0.007-0.008
			c0.038-0.004,0.076-0.027,0.1-0.081c0.335-0.747,0.634-1.623,0.784-2.456c0.012-0.058-0.005-0.106-0.032-0.142
			C259.126,79.181,258.833,76.508,258.543,73.836 M256.956,66.115c-0.265,0.381-0.494,0.813-0.686,1.229
			c-0.025-0.003-0.051-0.001-0.08,0.011c-0.46,0.167-0.924,0.286-1.393,0.373c0.522-0.434,1.064-0.951,1.464-1.509
			C256.493,66.186,256.726,66.15,256.956,66.115 M256.069,66.249c-0.239,0.231-0.461,0.496-0.692,0.736
			c-0.251,0.259-0.511,0.509-0.758,0.773c-0.336,0.055-0.671,0.093-1.016,0.119c0.221-0.216,0.423-0.475,0.629-0.7
			c0.227-0.248,0.48-0.488,0.68-0.771C255.299,66.36,255.685,66.307,256.069,66.249 M254.717,66.429
			c-0.234,0.229-0.444,0.506-0.657,0.748c-0.203,0.229-0.434,0.456-0.619,0.711c-0.004,0-0.007,0.001-0.01,0.001
			c-0.274,0.018-0.567,0.011-0.863,0.014c0.249-0.185,0.477-0.412,0.705-0.624c0.26-0.246,0.544-0.486,0.762-0.784
			C254.261,66.478,254.488,66.455,254.717,66.429 M253.168,66.628c0.021-0.028,0.028-0.058,0.03-0.086
			c0.227-0.007,0.452-0.019,0.679-0.036c-0.256,0.214-0.489,0.476-0.732,0.704c-0.242,0.229-0.501,0.44-0.729,0.694
			c-0.216,0.003-0.432,0.016-0.641,0.05C252.264,67.544,252.774,67.133,253.168,66.628 M253.092,84.67
			c0.001-0.017,0.007-0.031,0.005-0.051c-0.286-2.728-0.579-5.458-0.861-8.189c-0.141-1.364-0.281-2.729-0.422-4.096
			c-0.135-1.324-0.187-2.716-0.46-4.019c0.002-0.001,0.002-0.002,0.003-0.003c0.718,0.203,1.554,0.047,2.269,0.002
			c0.876-0.055,1.741-0.177,2.569-0.488c0.064,2.715,0.58,5.508,0.918,8.2c0.351,2.783,0.73,5.563,1.137,8.338
			C256.531,84.593,254.821,84.623,253.092,84.67 M256.498,67.616c-0.006-0.026-0.017-0.049-0.026-0.071
			c0.181-0.259,0.352-0.531,0.529-0.795c0.15-0.224,0.313-0.441,0.457-0.674c-0.001,0.3,0.005,0.6,0.015,0.902
			c-0.197,0.199-0.353,0.466-0.513,0.704c-0.123,0.181-0.236,0.367-0.35,0.554C256.575,68.029,256.538,67.824,256.498,67.616
			 M257.02,67.809c0.147-0.213,0.32-0.416,0.463-0.634c0.013,0.332,0.035,0.666,0.062,0.998c-0.183,0.254-0.35,0.526-0.522,0.79
			c-0.079,0.119-0.156,0.257-0.238,0.387c-0.046-0.321-0.093-0.643-0.147-0.961C256.763,68.193,256.89,67.999,257.02,67.809
			 M257.668,69.471c-0.144,0.229-0.27,0.481-0.411,0.707c-0.103,0.161-0.206,0.319-0.312,0.479
			c-0.045-0.386-0.091-0.771-0.142-1.155c0.074-0.094,0.142-0.198,0.215-0.306c0.179-0.264,0.369-0.524,0.545-0.795
			C257.594,68.757,257.629,69.112,257.668,69.471 M257.813,70.719c-0.159,0.259-0.294,0.537-0.453,0.792
			c-0.09,0.146-0.185,0.286-0.279,0.425c-0.037-0.374-0.074-0.746-0.117-1.118c0.145-0.196,0.286-0.393,0.42-0.598
			c0.102-0.157,0.212-0.317,0.313-0.484C257.732,70.063,257.773,70.393,257.813,70.719 M257.098,72.104
			c0.279-0.343,0.548-0.732,0.747-1.137c0.051,0.397,0.101,0.794,0.15,1.188c-0.171,0.216-0.318,0.469-0.468,0.704
			c-0.104,0.164-0.206,0.328-0.307,0.495C257.18,72.939,257.14,72.521,257.098,72.104 M257.616,72.944
			c0.13-0.191,0.273-0.375,0.407-0.568c0.037,0.309,0.073,0.616,0.106,0.922c-0.252,0.478-0.504,0.945-0.774,1.403
			c-0.043-0.391-0.082-0.781-0.12-1.175C257.362,73.331,257.487,73.136,257.616,72.944 M257.375,74.881
			c0.297-0.396,0.571-0.843,0.787-1.309c0.005,0.039,0.011,0.078,0.014,0.117c0.036,0.319,0.073,0.642,0.106,0.961
			c-0.267,0.438-0.522,0.886-0.779,1.334C257.457,75.617,257.416,75.249,257.375,74.881 M257.522,76.139
			c0.265-0.426,0.527-0.854,0.783-1.287c0.045,0.417,0.092,0.833,0.139,1.251c-0.133,0.217-0.247,0.459-0.37,0.683
			c-0.126,0.234-0.254,0.465-0.377,0.7C257.638,77.035,257.579,76.588,257.522,76.139 M257.716,77.624
			c0.16-0.269,0.314-0.54,0.472-0.811c0.094-0.16,0.192-0.316,0.283-0.478c0.051,0.445,0.103,0.891,0.152,1.338
			c-0.143,0.216-0.259,0.47-0.38,0.697c-0.114,0.208-0.243,0.422-0.34,0.648C257.84,78.554,257.776,78.09,257.716,77.624
			 M257.919,79.134c0.172-0.239,0.306-0.528,0.454-0.79c0.086-0.152,0.185-0.301,0.273-0.456c0.048,0.425,0.096,0.847,0.144,1.271
			c-0.121,0.223-0.205,0.472-0.324,0.697c-0.11,0.213-0.237,0.413-0.364,0.614C258.041,80.026,257.979,79.579,257.919,79.134
			 M258.579,83.843c-0.159-1.085-0.312-2.172-0.461-3.26c0.005-0.002,0.011-0.002,0.016-0.009c0.252-0.328,0.531-0.758,0.684-1.189
			c0.048,0.427,0.097,0.85,0.144,1.277c-0.098,0.232-0.195,0.464-0.292,0.697c-0.114,0.271-0.256,0.542-0.32,0.837
			c-0.007,0.03,0.032,0.045,0.047,0.024c0.164-0.234,0.266-0.534,0.383-0.803c0.071-0.163,0.144-0.324,0.214-0.488
			c0.04,0.353,0.081,0.704,0.12,1.057c0.003,0.017,0.008,0.026,0.013,0.04C258.921,82.612,258.742,83.232,258.579,83.843"/>
		<path fill="#FFFFFF" d="M269.477,76.277c-0.154-1.172-0.308-2.341-0.462-3.512c0.029-0.058,0.058-0.119,0.087-0.177
			c0.025-0.058-0.055-0.115-0.087-0.063c-0.008,0.017-0.017,0.032-0.025,0.047c-0.09-0.678-0.179-1.358-0.271-2.037
			c-0.097-0.716-0.19-1.432-0.281-2.148c0.012-0.023,0.025-0.049,0.037-0.072c0.022-0.044-0.021-0.083-0.057-0.073
			c-0.051-0.397-0.101-0.792-0.151-1.188c0.001-0.003,0.003-0.005,0.004-0.008c0.014-0.027,0.003-0.051-0.014-0.064
			c-0.058-0.458-0.117-0.919-0.175-1.378c0.004-0.004,0.007-0.01,0.009-0.015c0.021-0.037,0.004-0.075-0.022-0.091
			c-0.277-2.213-0.557-4.423-0.862-6.631c-0.021-0.149-0.143-0.199-0.234-0.164c-0.039-0.008-0.082,0.005-0.125,0.045
			c-0.016,0.015-0.027,0.028-0.042,0.043c-0.904,0.084-1.801,0.355-2.7,0.498c-0.888,0.138-1.806,0.168-2.679,0.39
			c-0.064-0.059-0.152-0.078-0.22-0.004c-0.253,0.27-0.432,0.631-0.627,0.957c-0.196,0.33-0.382,0.665-0.547,1.018
			c-0.006,0.017-0.01,0.034-0.012,0.054c-0.077,0.055-0.064,0.212,0.039,0.231c0.002,0.001,0.004,0.001,0.005,0
			c-0.021,0.032-0.034,0.075-0.03,0.13c0.276,3.708,0.97,7.438,1.493,11.119c0.521,3.665,0.912,7.389,1.586,11.029
			c0.001,0.015,0.01,0.027,0.015,0.04c-0.044,0.082,0,0.209,0.11,0.212c1.811,0.067,3.676-0.151,5.478-0.3
			c0.1-0.007,0.153-0.077,0.169-0.16c0.002,0,0.003-0.004,0.005-0.004c0.017,0.004,0.032,0.002,0.053,0
			c0.021-0.005,0.045-0.021,0.056-0.047c0.073-0.064,0.133-0.166,0.196-0.235c0.144-0.163,0.279-0.33,0.402-0.513
			c0.225-0.334,0.488-0.735,0.564-1.16c0.003-0.02,0.001-0.039,0-0.058c0.005-0.013,0.007-0.03,0.007-0.051
			C270.086,80.056,269.721,78.146,269.477,76.277 M269.681,80.376c-0.29,0.464-0.553,0.976-0.8,1.475
			c-0.047-0.471-0.103-0.942-0.164-1.413c0.004-0.002,0.007-0.002,0.011-0.005c0.26-0.405,0.553-0.826,0.787-1.265
			C269.565,79.57,269.621,79.977,269.681,80.376 M269.489,78.958c-0.126,0.198-0.234,0.416-0.349,0.621
			c-0.146,0.259-0.294,0.517-0.435,0.778c-0.066-0.497-0.138-0.996-0.209-1.491c0.194-0.267,0.382-0.538,0.562-0.817
			c0.09-0.136,0.185-0.273,0.274-0.416C269.385,78.074,269.435,78.517,269.489,78.958 M267.604,64.493
			c-0.147,0.203-0.279,0.426-0.415,0.638c-0.176,0.274-0.355,0.548-0.513,0.839c-0.021,0.044,0.016,0.09,0.054,0.065
			c0.039-0.021,0.076-0.042,0.115-0.062c0.019-0.009,0.012-0.044-0.008-0.038c-0.015,0.004-0.027,0.005-0.043,0.009
			c0.171-0.236,0.329-0.483,0.491-0.724c0.113-0.167,0.235-0.333,0.349-0.503c0.051,0.372,0.1,0.74,0.15,1.112
			c-0.136,0.208-0.268,0.426-0.4,0.634c-0.096,0.151-0.192,0.302-0.288,0.452c-0.073,0.113-0.16,0.289-0.263,0.418
			c-0.132-0.914-0.266-1.827-0.4-2.74c0.368-0.394,0.73-0.863,1-1.359C267.49,63.655,267.547,64.073,267.604,64.493 M267.406,63.045
			c-0.167,0.253-0.317,0.523-0.488,0.774c-0.161,0.234-0.33,0.456-0.498,0.682c-0.063-0.435-0.127-0.871-0.19-1.305
			c0.304-0.49,0.646-0.928,1.017-1.349C267.298,62.248,267.353,62.646,267.406,63.045 M267.226,61.7
			c-0.384,0.417-0.716,0.902-1.01,1.409c-0.06-0.408-0.121-0.818-0.183-1.228c0.38-0.41,0.729-0.926,1.03-1.416
			C267.115,60.877,267.172,61.289,267.226,61.7 M266.918,59.354c0.039,0.313,0.081,0.625,0.122,0.936
			c-0.21,0.284-0.403,0.584-0.607,0.873c-0.099,0.139-0.2,0.278-0.299,0.417c-0.04,0.055-0.082,0.108-0.12,0.166
			c-0.044-0.29-0.087-0.577-0.13-0.866c-0.008-0.05-0.025-0.088-0.048-0.122c0.046-0.045,0.091-0.09,0.128-0.136
			c0.14-0.171,0.275-0.347,0.409-0.525C266.554,59.853,266.749,59.614,266.918,59.354 M265.769,59.454
			c0.194-0.039,0.386-0.081,0.574-0.133c-0.205,0.272-0.398,0.561-0.588,0.834c-0.05,0.072-0.171,0.23-0.254,0.393
			c-0.037-0.012-0.078-0.016-0.122-0.004c-0.197,0.054-0.394,0.102-0.592,0.15c0.102-0.125,0.198-0.254,0.298-0.377
			c0.225-0.276,0.455-0.548,0.668-0.833C265.762,59.473,265.767,59.462,265.769,59.454 M265.572,59.492
			c-0.187,0.225-0.364,0.458-0.545,0.688c-0.146,0.187-0.308,0.369-0.449,0.568c-0.271,0.063-0.546,0.123-0.819,0.177
			c0.34-0.413,0.669-0.84,0.959-1.299C265.002,59.586,265.288,59.543,265.572,59.492 M263.384,59.823
			c0.258-0.038,0.514-0.078,0.769-0.116c0.129-0.018,0.261-0.037,0.393-0.055c-0.316,0.433-0.623,0.876-0.943,1.306
			c-0.365,0.073-0.732,0.139-1.098,0.203c0.294-0.441,0.589-0.883,0.877-1.33C263.382,59.827,263.381,59.825,263.384,59.823
			 M263.223,59.844c-0.293,0.441-0.581,0.89-0.864,1.339c-0.277,0.044-0.563,0.076-0.849,0.115c0.108-0.132,0.207-0.281,0.263-0.351
			c0.261-0.323,0.503-0.667,0.727-1.026C262.741,59.904,262.982,59.875,263.223,59.844 M260.952,60.889
			c0.19-0.301,0.415-0.595,0.546-0.939c0.004-0.008,0.004-0.017,0.006-0.025c0.285,0.024,0.571,0.021,0.859,0.005
			c-0.16,0.239-0.32,0.479-0.489,0.707c-0.095,0.129-0.192,0.254-0.291,0.378c-0.07,0.089-0.146,0.203-0.225,0.307
			c-0.274,0.041-0.549,0.09-0.812,0.169C260.686,61.294,260.822,61.094,260.952,60.889 M268.661,83.686
			c-1.706,0.039-3.521,0.1-5.2,0.453c-0.364-3.673-1.021-7.347-1.531-11.003c-0.513-3.687-0.864-7.462-1.589-11.107
			c-0.005-0.025-0.015-0.046-0.023-0.064c0.815,0.074,1.672-0.161,2.462-0.295c0.904-0.155,1.798-0.348,2.683-0.594
			c0.533,3.79,1.107,7.574,1.662,11.362c0.274,1.86,0.559,3.722,0.828,5.582c0.272,1.886,0.443,3.798,0.762,5.673
			C268.696,83.688,268.68,83.686,268.661,83.686 M266.852,67.459c0.182-0.155,0.31-0.448,0.436-0.635
			c0.173-0.259,0.355-0.516,0.528-0.779c0.055,0.409,0.109,0.816,0.164,1.225c-0.337,0.489-0.632,1.037-0.93,1.557
			C266.983,68.368,266.918,67.913,266.852,67.459 M267.07,68.962c0.313-0.474,0.65-0.947,0.943-1.445
			c0.05,0.366,0.098,0.736,0.146,1.102c-0.144,0.239-0.277,0.487-0.416,0.727c-0.159,0.272-0.31,0.596-0.493,0.85
			C267.189,69.784,267.13,69.373,267.07,68.962 M267.27,70.339c0.026-0.043,0.053-0.089,0.082-0.136
			c0.135-0.219,0.268-0.44,0.4-0.661c0.143-0.234,0.294-0.468,0.437-0.705c0.05,0.372,0.099,0.741,0.147,1.113
			c-0.164,0.24-0.298,0.525-0.439,0.783c-0.151,0.271-0.302,0.545-0.45,0.818C267.387,71.147,267.328,70.742,267.27,70.339
			 M267.567,72.388c-0.035-0.24-0.069-0.48-0.104-0.72c0.185-0.303,0.363-0.606,0.543-0.91c0.117-0.197,0.247-0.39,0.357-0.593
			c0.019,0.134,0.037,0.27,0.055,0.405c0.047,0.361,0.095,0.721,0.141,1.081c-0.353,0.45-0.63,1.06-0.861,1.627
			C267.653,72.981,267.612,72.684,267.567,72.388 M267.72,73.438c0.149-0.311,0.302-0.621,0.468-0.921
			c0.127-0.228,0.272-0.444,0.396-0.674c0.052,0.396,0.104,0.794,0.157,1.191c-0.121,0.234-0.237,0.474-0.357,0.708
			c-0.076,0.146-0.15,0.296-0.227,0.444c-0.021,0.041-0.158,0.274-0.263,0.455C267.836,74.24,267.777,73.839,267.72,73.438
			 M267.922,74.833c0.223-0.273,0.379-0.711,0.541-1.017c0.101-0.19,0.203-0.379,0.307-0.569c0.048,0.361,0.095,0.722,0.143,1.082
			c-0.267,0.558-0.526,1.104-0.83,1.632C268.028,75.587,267.977,75.209,267.922,74.833 M268.101,76.093
			c0.313-0.476,0.611-0.989,0.842-1.53c0.077,0.584,0.153,1.168,0.229,1.75c0.05,0.371,0.094,0.746,0.139,1.122
			c-0.123,0.195-0.233,0.406-0.354,0.597c-0.155,0.251-0.314,0.499-0.474,0.744c-0.039-0.27-0.078-0.534-0.115-0.803
			c-0.023-0.172-0.049-0.345-0.072-0.518c0.282-0.473,0.583-0.946,0.813-1.45c0.022-0.053-0.048-0.101-0.077-0.055
			c-0.281,0.421-0.52,0.902-0.758,1.369C268.218,76.91,268.159,76.501,268.101,76.093 M269.863,81.889
			c-0.234,0.322-0.374,0.74-0.597,1.082c-0.069,0.109-0.179,0.229-0.276,0.355c-0.02-0.437-0.053-0.875-0.094-1.313
			c0.282-0.453,0.572-0.933,0.818-1.423c0.066,0.416,0.142,0.833,0.229,1.242C269.915,81.841,269.886,81.858,269.863,81.889"/>
		<path fill="#FFFFFF" d="M281.142,80.145c-0.619-4.296-1.161-8.604-1.728-12.906c-0.279-2.126-0.569-4.251-0.813-6.381
			c-0.227-1.988-0.363-4.035-0.771-5.994c-0.094-0.864-0.186-1.726-0.287-2.586c-0.046-0.38-0.017-0.951-0.342-1.172
			c-0.018-0.013-0.037-0.012-0.055-0.004c-0.023-0.038-0.06-0.064-0.112-0.067c-1.008-0.06-2.028,0.063-3.026,0.169
			c-0.944,0.101-1.929,0.174-2.834,0.495c-0.046-0.025-0.1-0.024-0.15,0.027c-0.491,0.504-0.974,1.174-1.317,1.825
			c-0.001,0.002-0.001,0.005-0.002,0.01c-0.091,0.022-0.169,0.125-0.15,0.238c0.032,0.178,0.064,0.342,0.107,0.505
			c0,0.013,0,0.022,0.001,0.036c0.524,4.875,1.027,9.754,1.556,14.63c0.528,4.857,0.965,9.791,1.824,14.602
			c0.007,0.041,0.025,0.069,0.05,0.086c0.018,0.049,0.056,0.09,0.106,0.088c2.048-0.078,4.111-0.615,6.147-0.871
			c0.09-0.011,0.134-0.084,0.142-0.166c0.046-0.023,0.078-0.078,0.073-0.155c-0.002-0.031-0.005-0.06-0.007-0.09
			c0.296-0.134,0.522-0.544,0.716-0.81c0.249-0.344,0.503-0.688,0.74-1.046c0.098-0.014,0.185-0.098,0.164-0.243
			c-0.002-0.006-0.002-0.012-0.002-0.019C281.194,80.272,281.179,80.2,281.142,80.145 M280.59,79.013
			c-0.406,0.659-0.794,1.345-1.162,2.034c-0.002,0.002-0.003,0.005-0.004,0.008c-0.054-0.55-0.114-1.097-0.181-1.643
			c0.384-0.557,0.773-1.104,1.173-1.647c0.003-0.003,0.003-0.005,0.005-0.008C280.478,78.174,280.534,78.593,280.59,79.013
			 M280.411,77.679c-0.022-0.023-0.062-0.034-0.088,0c-0.395,0.504-0.766,1.058-1.094,1.626c-0.05-0.404-0.1-0.81-0.152-1.213
			c0.389-0.632,0.753-1.284,1.125-1.93c0.002-0.004,0.002-0.007,0.004-0.009C280.275,76.661,280.343,77.171,280.411,77.679
			 M278.521,63.122c-0.374,0.613-0.69,1.295-0.985,1.965c-0.051-0.458-0.1-0.919-0.15-1.378c0.316-0.612,0.669-1.197,0.984-1.809
			C278.42,62.306,278.47,62.714,278.521,63.122 M278.24,60.897c0.034,0.271,0.068,0.54,0.104,0.81
			c-0.381,0.56-0.689,1.228-0.974,1.871c-0.061-0.57-0.123-1.142-0.182-1.711c0.364-0.465,0.739-1.01,0.965-1.593
			C278.184,60.481,278.212,60.691,278.24,60.897 M276.885,58.718c0.327-0.412,0.602-0.912,0.87-1.388
			c0.051,0.433,0.109,0.864,0.17,1.296c-0.355,0.475-0.641,1.056-0.902,1.607c-0.053-0.503-0.102-1.007-0.152-1.509
			C276.875,58.725,276.882,58.724,276.885,58.718 M276.864,58.667c-0.052-0.513-0.101-1.026-0.15-1.539
			c0.062,0.024,0.173-0.203,0.166-0.193c0.233-0.381,0.505-0.767,0.723-1.173c0.031,0.451,0.075,0.902,0.126,1.354
			C277.429,57.612,277.097,58.123,276.864,58.667 M277.952,58.835c0.058,0.413,0.116,0.822,0.173,1.232
			c-0.165,0.303-0.301,0.632-0.471,0.935c-0.147,0.261-0.309,0.509-0.478,0.751c-0.05-0.463-0.096-0.926-0.143-1.39
			C277.312,59.825,277.642,59.341,277.952,58.835 M277.589,55.482c-0.15,0.231-0.275,0.493-0.409,0.736
			c-0.076,0.134-0.15,0.27-0.226,0.404c-0.021,0.039-0.178,0.39-0.229,0.44c0.004-0.01,0-0.023-0.01-0.025
			c-0.005,0-0.009-0.001-0.014-0.001c-0.04-0.437-0.084-0.874-0.126-1.31c0.149-0.243,0.299-0.487,0.454-0.725
			c0.133-0.2,0.281-0.389,0.414-0.592c0.02,0.176,0.04,0.352,0.061,0.528c0.007,0.056,0.028,0.099,0.059,0.125
			C277.572,55.202,277.581,55.342,277.589,55.482 M276.565,55.598c-0.041-0.437-0.085-0.875-0.125-1.312
			c0.15-0.224,0.289-0.457,0.441-0.679c0.128-0.189,0.275-0.369,0.41-0.559c0.043,0.4,0.091,0.8,0.137,1.201
			C277.097,54.637,276.815,55.131,276.565,55.598 M277.17,51.643c0.003,0.133-0.002,0.266,0.009,0.379
			c0.023,0.276,0.057,0.554,0.091,0.828c-0.175,0.208-0.321,0.456-0.471,0.678c-0.126,0.192-0.257,0.384-0.374,0.586
			c-0.035-0.379-0.071-0.757-0.106-1.137c0.118-0.153,0.224-0.331,0.314-0.464C276.811,52.254,277.053,51.961,277.17,51.643
			 M274.783,51.586c0.325-0.021,0.649-0.036,0.975-0.054c-0.396,0.475-0.76,0.999-1.142,1.493c-0.318,0.031-0.637,0.067-0.952,0.104
			c0.146-0.197,0.29-0.395,0.436-0.592c0.227-0.305,0.488-0.594,0.68-0.931C274.783,51.602,274.781,51.594,274.783,51.586
			 M274.057,51.647c0.202-0.022,0.405-0.037,0.608-0.052c-0.419,0.442-0.777,1.014-1.123,1.548
			c-0.188,0.023-0.375,0.044-0.562,0.062c-0.154,0.016-0.31,0.032-0.466,0.047c0.168-0.264,0.33-0.531,0.501-0.792
			c0.166-0.253,0.359-0.492,0.524-0.748C273.714,51.688,273.885,51.665,274.057,51.647 M273.352,51.739
			c-0.149,0.205-0.286,0.428-0.422,0.639c-0.185,0.286-0.364,0.578-0.522,0.885c-0.429,0.041-0.855,0.082-1.282,0.127
			c0.464-0.434,0.914-0.941,1.253-1.509C272.703,51.837,273.028,51.787,273.352,51.739 M271.254,52.003
			c0.005-0.005,0.006-0.014,0.009-0.02c0.323-0.01,0.646-0.041,0.968-0.082c-0.402,0.532-0.802,1.044-1.27,1.507
			c-0.291,0.031-0.58,0.064-0.869,0.102C270.522,53.071,270.941,52.534,271.254,52.003 M273.251,83.474
			c-0.368-4.854-1.097-9.708-1.646-14.546c-0.558-4.878-1.065-9.75-1.479-14.64c-0.013-0.136-0.091-0.21-0.181-0.23
			c0-0.023-0.002-0.048-0.002-0.074c0.98-0.081,1.958-0.192,2.937-0.286c0.997-0.097,2.046-0.096,3.026-0.313
			c0.484,4.838,1.03,9.672,1.575,14.503c0.273,2.43,0.586,4.856,0.881,7.282c0.293,2.428,0.504,4.891,0.907,7.301
			C277.29,82.73,275.166,82.859,273.251,83.474 M275.813,52.979c-0.354-0.011-0.712,0.005-1.069,0.036
			c0.417-0.462,0.848-0.95,1.176-1.491c0.271-0.017,0.54-0.034,0.81-0.057c-0.158,0.206-0.284,0.464-0.42,0.675
			C276.143,52.402,275.93,52.679,275.813,52.979 M277.55,65.228c0.309-0.652,0.659-1.271,0.994-1.901
			c0.061,0.495,0.122,0.99,0.183,1.484c-0.348,0.622-0.688,1.254-1.011,1.892C277.661,66.21,277.604,65.719,277.55,65.228
			 M277.847,67.846c-0.039-0.332-0.075-0.666-0.112-0.999c0.35-0.598,0.689-1.21,1.02-1.826c0.06,0.503,0.123,1.006,0.187,1.51
			c-0.217,0.344-0.391,0.731-0.594,1.087c-0.143,0.254-0.299,0.498-0.438,0.751C277.887,68.193,277.868,68.021,277.847,67.846
			 M277.923,68.497c0.211-0.283,0.393-0.603,0.571-0.914c0.161-0.278,0.332-0.561,0.469-0.859c0.03,0.249,0.061,0.497,0.091,0.745
			c0.031,0.253,0.065,0.507,0.098,0.759c-0.204,0.269-0.371,0.593-0.548,0.882c-0.171,0.277-0.344,0.559-0.513,0.84
			C278.036,69.465,277.98,68.982,277.923,68.497 M278.107,70.076c0.205-0.314,0.409-0.63,0.612-0.946
			c0.149-0.231,0.318-0.458,0.458-0.703c0.048,0.361,0.095,0.724,0.143,1.086c-0.389,0.624-0.724,1.329-1.045,2.015
			C278.221,71.046,278.163,70.561,278.107,70.076 M278.295,71.693c0.369-0.64,0.748-1.3,1.052-1.983
			c0.083,0.64,0.169,1.278,0.253,1.916c-0.012,0.002-0.022,0.007-0.032,0.018c-0.397,0.477-0.744,1.038-1.093,1.57
			C278.414,72.706,278.354,72.2,278.295,71.693 M278.486,73.318c0.383-0.506,0.796-1.016,1.129-1.567
			c0.054,0.403,0.108,0.806,0.162,1.209c-0.001,0.002-0.001,0.002-0.003,0.002c-0.246,0.326-0.431,0.736-0.633,1.104
			c-0.157,0.28-0.315,0.562-0.468,0.848C278.611,74.383,278.549,73.852,278.486,73.318 M278.701,75.131
			c-0.003-0.019-0.005-0.038-0.008-0.057c0.209-0.344,0.404-0.701,0.604-1.053c0.167-0.296,0.36-0.59,0.503-0.907
			c0.059,0.444,0.118,0.888,0.178,1.332c-0.386,0.646-0.797,1.298-1.113,1.996C278.808,76.006,278.752,75.568,278.701,75.131
			 M278.88,76.56c0.403-0.609,0.752-1.276,1.125-1.916c0.064,0.473,0.127,0.946,0.191,1.419c-0.027-0.031-0.071-0.043-0.095,0.003
			c-0.332,0.632-0.691,1.247-1.042,1.865C278.997,77.472,278.938,77.016,278.88,76.56 M280.021,81.324
			c-0.143,0.209-0.355,0.426-0.506,0.667c-0.024-0.295-0.056-0.589-0.086-0.884c0.017,0.025,0.047,0.037,0.068,0.005
			c0.387-0.604,0.766-1.225,1.123-1.857c0.045,0.33,0.091,0.659,0.133,0.988C280.502,80.594,280.267,80.967,280.021,81.324"/>
	</g>
	<path fill="#FFFFFF" d="M349.314,54.379c-0.078-0.086-0.204-0.121-0.34-0.065c-0.073,0.01-0.131,0.046-0.175,0.096
		c-0.686,0.422-1.273,1.106-1.853,1.65c-0.367,0.345-1.229,0.87-1.142,1.457c0.004,0.024,0.013,0.045,0.021,0.065
		c-1.219-0.349-2.322-0.123-2.801,1.34c-0.006,0.017-0.007,0.03-0.009,0.046c-0.783-0.043-1.501,0.269-2.031,1.165
		c-0.008,0.015-0.01,0.026-0.015,0.042c-1.2,0.231-2.041,1.215-2.021,2.522c0.002,0.044,0.012,0.08,0.027,0.109
		c-6.188,4.344-12.069,9.196-17.812,14.098c-2.88,2.458-5.72,4.968-8.511,7.528c-2.854,2.617-6.168,5.238-8.581,8.313
		c-0.134,0.136-0.261,0.279-0.392,0.417c-0.001,0-0.003-0.001-0.003,0c-0.187,0.027-0.275,0.166-0.288,0.308
		c-3.064,3.275-5.62,7.246-7.946,10.995c-0.168,0.272,0.185,0.668,0.476,0.524c2.134-1.069,4.331-2.021,6.542-2.913
		c2.2-0.889,4.558-1.526,6.686-2.566c0.101-0.05,0.15-0.155,0.155-0.258c3.284-2.145,6.302-4.734,9.343-7.199
		c3.194-2.585,6.352-5.217,9.481-7.877c5.538-4.706,10.973-9.528,16.327-14.442c1.268,0.735,2.897,0.423,3.501-1.057
		c0.097-0.236,0.149-0.478,0.17-0.722c0.003,0.001,0.005,0.003,0.008,0.002c1.026,0.056,1.528-0.312,1.704-0.894
		c0.009,0.001,0.016,0.005,0.025,0.005c2.234-0.018,2.368-1.803,1.854-3.548c1.027-0.78,2.191-1.624,2.979-2.639
		c0.039-0.053,0.061-0.105,0.072-0.159c0.195-0.025,0.381-0.19,0.39-0.438C355.264,57.312,351.887,55.044,349.314,54.379
		 M304.642,92.898c2.673-2.086,5.009-4.733,7.491-7.017c3.188-2.931,6.434-5.801,9.737-8.603
		c6.15-5.217,12.588-10.026,18.953-14.974c0.454,0.383,0.902,0.756,1.327,1.149c-0.051,0.004-0.102,0.019-0.155,0.06
		c-6.453,5.148-12.727,10.541-18.991,15.917c-5.866,5.034-12.01,9.977-17.435,15.5c-0.019-0.364-0.194-0.753-0.377-1.008
		c-0.197-0.272-0.482-0.519-0.806-0.657C304.469,93.145,304.558,93.023,304.642,92.898 M340.539,66.863
		c0.098-0.523,0.245-1.05,0.319-1.58c0.328-0.275,0.658-0.553,0.989-0.829c-0.134,1.076-0.282,2.141-0.489,3.202
		c-0.381,0.328-0.759,0.66-1.14,0.986C340.367,68.062,340.427,67.455,340.539,66.863 M339.272,66.613
		c0.366-0.307,0.729-0.613,1.096-0.919c-0.281,0.955-0.42,2.067-0.391,2.978c0.004,0.063,0.047,0.094,0.094,0.099
		c-0.469,0.403-0.938,0.809-1.408,1.21C338.87,68.858,339.093,67.737,339.272,66.613 M337.619,67.999
		c0.399-0.334,0.796-0.669,1.195-1c-0.232,1.066-0.369,2.173-0.471,3.256c-0.484,0.413-0.966,0.828-1.452,1.241
		C337.174,70.347,337.464,69.167,337.619,67.999 M336.189,69.197c0.316-0.266,0.634-0.531,0.952-0.796
		c-0.25,1.104-0.408,2.254-0.57,3.368c-0.389,0.334-0.78,0.669-1.173,1.002C335.705,71.6,336.023,70.389,336.189,69.197
		 M335.034,73.082c-0.332,0.279-0.661,0.563-0.993,0.844c0.247-1.159,0.512-2.33,0.677-3.496c0.341-0.283,0.679-0.568,1.02-0.852
		C335.434,70.723,335.234,71.928,335.034,73.082 M333.755,74.168c-0.461,0.391-0.922,0.78-1.383,1.17
		c0.217-1.184,0.51-2.358,0.718-3.543c0.423-0.355,0.848-0.711,1.272-1.066C334.054,71.836,333.878,73.024,333.755,74.168
		 M331.743,72.921c0.289-0.241,0.579-0.484,0.868-0.727c-0.268,1.074-0.41,2.202-0.532,3.28c-0.006,0.037,0.006,0.067,0.021,0.091
		c-0.336,0.283-0.669,0.566-1.006,0.851C331.365,75.273,331.621,74.08,331.743,72.921 M330.727,76.726
		c-0.434,0.365-0.867,0.73-1.3,1.095c0.344-1.201,0.642-2.436,0.844-3.667c0.336-0.28,0.673-0.562,1.009-0.843
		C331.022,74.429,330.864,75.602,330.727,76.726 M329.893,74.47c-0.264,1.193-0.503,2.396-0.751,3.592
		c-0.365,0.306-0.729,0.614-1.096,0.92c0.335-1.215,0.671-2.463,0.887-3.706C329.253,75.004,329.573,74.738,329.893,74.47
		 M327.461,76.509c0.343-0.289,0.687-0.575,1.031-0.864c-0.302,1.173-0.516,2.393-0.728,3.573c-0.286,0.239-0.572,0.481-0.858,0.722
		C327.115,78.801,327.349,77.649,327.461,76.509 M326.553,80.237c-0.487,0.408-0.973,0.817-1.46,1.226
		c0.318-1.227,0.648-2.464,0.891-3.708c0.361-0.308,0.724-0.611,1.086-0.916C326.803,77.939,326.668,79.108,326.553,80.237
		 M325.587,78.09c-0.307,1.199-0.547,2.423-0.799,3.628c-0.323,0.273-0.648,0.546-0.975,0.819c0.163-0.514,0.262-1.054,0.382-1.575
		c0.163-0.697,0.346-1.395,0.482-2.101C324.978,78.603,325.283,78.349,325.587,78.09 M323.517,82.787
		c-0.413,0.347-0.825,0.693-1.238,1.04c0.34-1.199,0.689-2.438,0.869-3.657c0.173-0.149,0.344-0.301,0.519-0.45
		c0.198-0.171,0.401-0.34,0.6-0.511c-0.135,0.563-0.252,1.134-0.38,1.695C323.745,81.527,323.571,82.151,323.517,82.787
		 M319.983,82.94c0.439-0.389,0.88-0.776,1.321-1.166c-0.398,1.219-0.718,2.481-1.01,3.727c-0.368,0.311-0.735,0.619-1.099,0.928
		C319.581,85.299,319.927,84.083,319.983,82.94 M321.759,81.375c0.338-0.295,0.677-0.586,1.016-0.88
		c-0.361,1.173-0.597,2.419-0.835,3.62c-0.425,0.357-0.851,0.714-1.275,1.073C321.08,83.936,321.478,82.654,321.759,81.375
		 M318.431,84.312c0.406-0.359,0.813-0.719,1.22-1.078c-0.365,1.141-0.582,2.372-0.865,3.544c-0.369,0.315-0.74,0.628-1.109,0.943
		C317.969,86.599,318.273,85.444,318.431,84.312 M317.37,87.979c-0.314,0.269-0.63,0.534-0.943,0.803
		c0.274-1.067,0.538-2.157,0.646-3.231c0-0.013-0.007-0.019-0.008-0.029c0.344-0.306,0.69-0.61,1.034-0.918
		C317.751,85.682,317.539,86.86,317.37,87.979 M316.072,89.088c-0.49,0.42-0.982,0.838-1.47,1.259
		c0.318-1.131,0.665-2.276,0.884-3.422c0.44-0.391,0.881-0.782,1.319-1.173C316.472,86.825,316.27,87.968,316.072,89.088
		 M314.372,90.542c-0.312,0.271-0.626,0.536-0.937,0.808c0.226-1.057,0.458-2.118,0.644-3.178c0.346-0.306,0.69-0.61,1.034-0.917
		C314.77,88.312,314.553,89.448,314.372,90.542 M313.221,91.534c-0.402,0.35-0.809,0.696-1.21,1.047
		c0.288-1.076,0.583-2.164,0.768-3.262c0.343-0.301,0.687-0.605,1.03-0.908C313.527,89.423,313.342,90.484,313.221,91.534
		 M312.501,89.563c-0.311,1.067-0.534,2.17-0.763,3.257c-0.301,0.262-0.601,0.521-0.899,0.781c0.21-1.041,0.439-2.083,0.624-3.128
		C311.81,90.173,312.155,89.866,312.501,89.563 M310.6,93.812c-0.378,0.334-0.757,0.66-1.133,0.994
		c0.287-1.073,0.563-2.169,0.758-3.257c0.314-0.27,0.624-0.545,0.938-0.814C310.891,91.735,310.716,92.783,310.6,93.812
		 M309.104,92.498c0.278-0.233,0.558-0.474,0.835-0.708c-0.281,1.057-0.499,2.144-0.7,3.214c-0.286,0.254-0.575,0.504-0.859,0.758
		C308.66,94.688,308.947,93.59,309.104,92.498 M307.234,96.672c-0.005,0.034,0.016,0.057,0.039,0.071
		c-0.065,0.059-0.132,0.117-0.197,0.175c0.024-0.363-0.077-0.729-0.289-1.029c0.11-0.582,0.244-1.159,0.339-1.743
		c0.293-0.237,0.581-0.48,0.872-0.72C307.589,94.452,307.36,95.586,307.234,96.672 M308.28,93.227
		c0.004-0.013-0.003-0.02-0.005-0.031c0.191-0.157,0.38-0.317,0.569-0.479c-0.305,1.063-0.507,2.179-0.712,3.264
		c-0.243,0.218-0.488,0.431-0.732,0.648C307.621,95.466,307.955,94.365,308.28,93.227 M306.599,95.668
		c-0.254-0.234-0.579-0.361-0.907-0.367c0.406-0.319,0.808-0.649,1.21-0.977C306.754,94.758,306.657,95.213,306.599,95.668
		 M300.823,101.864c-0.093-0.359-0.451-0.694-0.716-0.895c-0.285-0.217-0.604-0.38-0.947-0.469c1.604-2.185,3.234-4.349,4.77-6.569
		c0.245,0.107,0.458,0.254,0.622,0.494c0.227,0.336,0.14,0.692,0.284,1.045c0.014,0.033,0.037,0.054,0.057,0.079
		c-0.146,0.137-0.05,0.42,0.171,0.392c0.725-0.097,1.413,0.443,1.04,1.187c-0.079,0.157-0.057,0.301,0.013,0.412
		c-0.025,0.182,0.118,0.401,0.338,0.398c0.455-0.006,0.883,0.116,1.263,0.367c0.338,0.222,0.52,0.515,0.742,0.817
		C305.874,99.7,303.316,100.732,300.823,101.864 M326.778,84.187c-5.75,4.898-11.986,9.383-17.525,14.521
		c-0.259-0.799-1.065-1.296-1.896-1.425c11.607-9.245,22.635-19.226,34.047-28.716c0.023-0.012,0.044-0.026,0.06-0.051
		c0.935-0.776,1.866-1.557,2.806-2.327c0.021-0.019,0.041-0.038,0.058-0.058c0.322,0.516,0.633,1.038,0.96,1.551
		C339.242,73.32,333.072,78.826,326.778,84.187 M342.465,63.751c0.198,0.195,0.392,0.395,0.578,0.606
		c-0.025,0.018-0.049,0.042-0.059,0.08c-0.206,0.685-0.294,1.427-0.391,2.147c-0.269,0.232-0.533,0.464-0.801,0.695
		c0.236-1.032,0.397-2.089,0.434-3.14c0.042-0.037,0.084-0.072,0.127-0.107C342.448,63.952,342.474,63.852,342.465,63.751
		 M343.243,64.602c0.089,0.107,0.182,0.208,0.266,0.321c0.136,0.179,0.262,0.364,0.387,0.55c-0.029,0.014-0.058,0.032-0.088,0.057
		c-0.283,0.249-0.569,0.494-0.855,0.743C343.079,65.717,343.197,65.156,343.243,64.602 M345.379,68.887
		c0.239-0.221,0.481-0.439,0.72-0.659c0.042-0.039,0.071-0.081,0.093-0.122c0.083-0.093,0.12-0.221,0.051-0.362
		c-1.054-2.142-2.811-4.991-5.158-5.921c-0.063-0.175-0.263-0.298-0.465-0.161c-0.357,0.244-0.708,0.494-1.063,0.741
		c1.207-3.46,4.512-0.285,5.757,1.333c0.364,0.474,0.731,0.951,1.05,1.457c0.307,0.473,0.567,0.972,0.777,1.498
		C347.749,67.946,347.159,68.677,345.379,68.887 M348.162,67.323c-0.02,0.002-0.033,0.014-0.051,0.02
		c-0.18-1.395-1.269-2.816-2.011-3.791c-1.096-1.438-2.424-3.331-4.424-3.43c-0.008-0.002-0.018-0.001-0.024-0.001
		c1.76-1.237,3.911,0.76,5.122,1.949C347.386,62.673,351.043,66.791,348.162,67.323 M349.903,66.288
		c-0.12-1.464-1.31-3.463-1.95-4.166c-0.905-0.993-2.813-2.764-4.525-3.102c1.799-1.747,4.328,0.169,5.649,1.506
		C350.143,61.609,353.105,65.765,349.903,66.288 M354.19,60.322c-1.004,0.637-1.892,1.607-2.713,2.5
		c-0.345-0.885-0.813-1.694-1.2-2.171c-0.688-0.846-2.449-2.348-4.094-2.95c0.035-0.022,0.067-0.054,0.09-0.099
		c0.127-0.257,0.635-0.55,0.854-0.742c0.267-0.236,0.533-0.475,0.801-0.712c0.394-0.351,0.839-0.7,1.187-1.106
		c1.197,0.625,2.433,1.21,3.411,2.166c0.935,0.911,1.305,1.925,1.76,3.076C354.257,60.294,354.223,60.303,354.19,60.322"/>
</g>
</svg>
