<?xml version="1.0" encoding="utf-8"?>
<!-- Generator: Adobe Illustrator 16.0.0, SVG Export Plug-In . SVG Version: 6.00 Build 0)  -->
<!DOCTYPE svg PUBLIC "-//W3C//DTD SVG 1.1//EN" "http://www.w3.org/Graphics/SVG/1.1/DTD/svg11.dtd">
<svg version="1.1" id="Layer_1" xmlns="http://www.w3.org/2000/svg" xmlns:xlink="http://www.w3.org/1999/xlink" x="0px" y="0px"
	 width="180px" height="180px" viewBox="-6.5 -24.5 180 180" enable-background="new -6.5 -24.5 180 180" xml:space="preserve">
<rect x="-6.5" y="-24.5" fill="#4899C3" width="180" height="180"/>
<g>
	<g>
		<g>
			<g>
				<path fill="#FFFFFF" d="M126.826,84.86c-3.061,0-6.313-0.215-7.094-0.521c-0.779-0.244-0.766-1.68-0.565-8.336l0.866,0.025
					c-0.116,3.885-0.209,6.973,0.055,7.522l0.035,0.026c0.85,0.453,10.602,0.682,11.902,0.074c0.152-1.005,0.056-8.982-0.057-14.186
					h-0.023l0.014-0.448c0.002-3.24-2.615-5.855-5.829-5.855c-1.17,0-2.296,0.344-3.26,0.995l-0.486-0.718
					c1.107-0.749,2.402-1.144,3.744-1.144c3.694,0,6.698,3.005,6.698,6.697h-0.001l0.001,0.03
					c0.119,5.391,0.271,14.521-0.053,15.109l-0.055,0.078C132.313,84.677,129.651,84.86,126.826,84.86z"/>
			</g>
		</g>
		<g>
			<g>
				<path fill="#FFFEFE" d="M139.422,84.319c-0.725,0-1.599-0.043-2.368-0.081c-0.671-0.033-1.266-0.066-1.426-0.046l-0.27,0.009
					l-0.14-0.136c-0.157-0.161-0.484-0.494-0.108-16.558c-0.027-0.906,0.219-1.637,0.731-2.166c0.529-0.546,1.313-0.834,2.263-0.834
					c1.65,0,2.994,1.343,2.994,2.993c0.639,16.23,0.064,16.509-0.244,16.657C140.689,84.238,140.391,84.319,139.422,84.319z
					 M135.881,83.322c0.289,0.005,0.723,0.025,1.215,0.05c0.76,0.038,1.623,0.081,2.326,0.081c0.531,0,0.803-0.025,0.938-0.048
					c0.308-1.361,0.091-10.333-0.127-15.871c0-1.207-0.955-2.16-2.128-2.16c-0.496,0-1.183,0.099-1.641,0.571
					c-0.343,0.354-0.507,0.873-0.487,1.542C135.851,72.947,135.725,81.581,135.881,83.322z"/>
			</g>
		</g>
		<g>
			<g>
				<path fill="#FFFFFF" d="M113.483,81.681h-7.249c-1.977,0-3.585-1.608-3.585-3.586s1.607-3.585,3.585-3.585h5.658l9.45-10.184
					c1.254-1.39,3.136-1.426,4.625-0.083c1.469,1.323,1.586,3.594,0.264,5.063l-10.086,11.189
					C115.467,81.249,114.495,81.681,113.483,81.681z M106.232,75.376c-1.498,0-2.718,1.22-2.718,2.719s1.22,2.72,2.718,2.72h7.249
					c0.769,0,1.505-0.328,2.02-0.899l10.086-11.188c1.003-1.113,0.914-2.836-0.199-3.84c-1.137-1.024-2.455-1.03-3.405,0.023
					l-9.715,10.465H106.232z"/>
			</g>
		</g>
		<g>
			<g>
				<g>
					<path fill="#FFFFFF" d="M131.729,31.685c-0.044-0.036-0.091-0.066-0.138-0.099c-0.002-0.018-0.003-0.033-0.006-0.052
						c-0.165-1.369-0.565-2.661-1.158-3.835c0.01-0.021,0.006-0.045-0.02-0.065c-0.006-0.004-0.014-0.009-0.019-0.013
						c-0.581-1.132-1.341-2.148-2.245-3.022c-0.005-0.014-0.013-0.026-0.026-0.036c-0.009-0.006-0.018-0.011-0.024-0.018
						c-1.648-1.576-3.768-2.671-6.146-3.067c-0.022-0.003-0.043-0.002-0.061,0.002c-3.843-1.147-8.242-1.011-11.863,0.632
						c-1.906,0.863-3.765,2.159-4.681,4.101c-0.832,1.767-0.92,3.876-0.294,5.722c0.027,0.079,0.058,0.155,0.086,0.233
						c0.604,2.259,2.05,4.242,3.933,5.638c2.621,1.944,5.871,2.325,9.036,2.502c0.04,0.002,0.074-0.007,0.103-0.021
						c0.209,0.151,0.429,0.279,0.655,0.394c0.222,0.172,0.471,0.325,0.764,0.45c1.125,0.485,2.298,0.862,3.53,0.816
						c0.078-0.003,0.156-0.081,0.125-0.164c-0.244-0.679-0.5-1.353-0.802-2.008c4.663,0.246,9.58-2.928,9.131-7.997
						c0.019,0.008,0.036,0.019,0.055,0.024C131.724,31.827,131.784,31.726,131.729,31.685 M131.214,30.783
						c0.034,0.203,0.059,0.405,0.078,0.607c-0.211-0.126-0.427-0.246-0.633-0.375c-0.31-0.197-0.614-0.398-0.919-0.602
						c-0.027-0.336-0.08-0.67-0.149-1.001c0.476,0.353,0.991,0.685,1.529,0.905C131.153,30.472,131.188,30.625,131.214,30.783
						 M131.077,30.113c-0.51-0.314-1.03-0.603-1.536-0.923c-0.085-0.36-0.195-0.716-0.323-1.065c0.448,0.305,0.905,0.604,1.382,0.84
						c0.056,0.028,0.128-0.049,0.071-0.093c-0.477-0.368-1.012-0.679-1.544-0.983c-0.159-0.401-0.347-0.792-0.559-1.173
						c0.501,0.326,1.014,0.675,1.544,0.932C130.535,28.418,130.866,29.243,131.077,30.113 M129.906,27.282
						c-0.48-0.304-1.002-0.563-1.491-0.835c-0.208-0.352-0.44-0.692-0.686-1.02c0.46,0.218,0.905,0.46,1.36,0.687
						C129.387,26.487,129.66,26.876,129.906,27.282 M128.828,25.798c-0.399-0.201-0.819-0.375-1.23-0.538
						c-0.322-0.411-0.674-0.798-1.048-1.159c0.318,0.103,0.624,0.231,0.928,0.362C127.963,24.872,128.416,25.317,128.828,25.798
						 M126.957,24.05c-0.171-0.052-0.344-0.098-0.509-0.141c-0.032-0.009-0.059,0.004-0.075,0.025
						c-0.462-0.427-0.955-0.811-1.474-1.143C125.624,23.142,126.315,23.564,126.957,24.05 M109.58,37.611
						c-0.953-0.656-1.759-1.449-2.435-2.339c0.497,0.498,1.052,0.941,1.646,1.329c0.28,0.383,0.587,0.751,0.919,1.095
						C109.667,37.668,109.623,37.642,109.58,37.611 M110.169,37.983c-0.358-0.393-0.715-0.784-1.064-1.186
						c0.355,0.216,0.726,0.409,1.104,0.584c0.294,0.387,0.609,0.767,0.956,1.108C110.825,38.34,110.492,38.172,110.169,37.983
						 M111.527,38.648c-0.364-0.38-0.726-0.757-1.068-1.153c0.343,0.149,0.695,0.281,1.053,0.396
						c0.305,0.384,0.633,0.759,0.983,1.098C112.167,38.886,111.844,38.776,111.527,38.648 M112.731,39.06
						c-0.323-0.372-0.658-0.732-0.99-1.097c0.307,0.091,0.62,0.167,0.932,0.234c0.162,0.201,0.328,0.399,0.504,0.59
						c0.156,0.167,0.316,0.349,0.489,0.512C113.353,39.227,113.041,39.151,112.731,39.06 M113.968,39.366
						c-0.221-0.234-0.476-0.443-0.698-0.671c-0.144-0.15-0.282-0.304-0.418-0.458c0.268,0.053,0.535,0.093,0.805,0.126
						c0.37,0.39,0.749,0.792,1.148,1.157C114.524,39.474,114.245,39.424,113.968,39.366 M115.144,39.569
						c-0.395-0.416-0.839-0.805-1.275-1.18c0.378,0.04,0.757,0.054,1.135,0.056c0.201,0.22,0.404,0.439,0.607,0.658
						c0.182,0.191,0.355,0.414,0.556,0.596C115.826,39.662,115.483,39.621,115.144,39.569 M116.413,39.728
						c-0.187-0.274-0.46-0.506-0.688-0.74c-0.176-0.181-0.355-0.361-0.533-0.54c0.281-0.005,0.561-0.018,0.837-0.043
						c0.462,0.478,0.949,0.981,1.496,1.349c0.026,0.02,0.057,0.017,0.081,0.002c0.021,0.024,0.04,0.047,0.055,0.061
						c0.006,0.007,0.015,0.012,0.018,0.019C117.26,39.807,116.838,39.771,116.413,39.728 M116.212,38.386
						c0.184-0.019,0.366-0.042,0.547-0.073c0.044,0.271,0.236,0.617,0.437,0.912C116.873,38.941,116.536,38.668,116.212,38.386
						 M118.707,39.998c-0.353-0.238-0.668-0.525-0.937-0.856c-0.058-0.071-0.73-0.933-0.644-1.079
						c0.056-0.092-0.035-0.222-0.142-0.187c-0.034,0.012-0.062,0.026-0.088,0.044c-0.016-0.004-0.028-0.01-0.046-0.01
						c-2.205-0.018-4.342-0.063-6.395-0.984c-1.694-0.76-3.211-2.005-4.186-3.597c-2.241-3.657-0.951-7.912,2.653-10.04
						c3.404-2.01,7.597-2.365,11.417-1.571c2.011,0.417,3.953,1.098,5.478,2.524c1.392,1.303,2.642,3.076,3.231,4.902
						c0.237,0.739,0.32,1.628,0.251,2.53c-0.023,0.019-0.032,0.054-0.005,0.08c-0.136,1.552-0.729,3.13-1.784,4.029
						c-1.858,1.581-4.469,2.174-6.847,1.829c-0.12-0.017-0.215,0.041-0.27,0.123c-0.05,0.039-0.08,0.1-0.074,0.187
						c0.096,1.064,0.395,2.028,0.886,2.952C120.323,40.75,119.459,40.506,118.707,39.998 M120.832,41.279
						c-0.002,0-0.007-0.002-0.008-0.002c0.263,0.041,0.527,0.07,0.792,0.09c0.07,0.004,0.127-0.027,0.165-0.075
						c0.158,0.09,0.315,0.182,0.475,0.271c0.063,0.037,0.127,0.074,0.189,0.112C121.944,41.681,121.141,41.378,120.832,41.279
						 M122.853,41.486c-0.021,0.061-0.066,0.104-0.126,0.134c-0.281-0.178-0.593-0.328-0.893-0.472
						c0.002-0.041-0.005-0.082-0.024-0.117c-0.174-0.308-0.321-0.624-0.451-0.945c0.393,0.376,0.891,0.783,1.391,0.975
						C122.833,41.254,122.879,41.413,122.853,41.486 M122.632,40.805c-0.154-0.091-0.312-0.176-0.459-0.274
						c-0.303-0.199-0.582-0.423-0.862-0.651c-0.011-0.01-0.021-0.011-0.034-0.012c-0.094-0.261-0.175-0.526-0.243-0.795
						c0.162,0.126,0.323,0.255,0.488,0.379c0.217,0.166,0.438,0.373,0.683,0.504C122.303,40.171,122.484,40.5,122.632,40.805
						 M122.311,39.527c-0.082,0.011-0.119,0.077-0.111,0.137c-0.021,0.017-0.037,0.035-0.049,0.057
						c-0.15-0.118-0.319-0.22-0.472-0.328c-0.227-0.16-0.452-0.314-0.681-0.469c-0.055-0.233-0.099-0.469-0.135-0.706
						c0.508,0.465,1.091,0.947,1.708,1.277C122.484,39.506,122.397,39.518,122.311,39.527 M122.866,39.458
						c-0.633-0.438-1.284-0.826-1.896-1.3c0.347,0.041,0.694,0.063,1.04,0.068c0.566,0.405,1.165,0.802,1.794,1.107
						C123.491,39.378,123.179,39.418,122.866,39.458 M124.096,39.29c-0.627-0.356-1.263-0.688-1.877-1.063
						c0.432-0.002,0.86-0.036,1.286-0.094c0.478,0.333,0.96,0.701,1.462,1.001C124.68,39.193,124.389,39.244,124.096,39.29
						 M125.247,39.075c-0.486-0.361-1.038-0.661-1.563-0.969c0.432-0.068,0.858-0.169,1.278-0.299
						c0.203,0.171,0.428,0.323,0.641,0.477c0.231,0.163,0.462,0.355,0.708,0.507C125.961,38.901,125.607,38.996,125.247,39.075
						 M126.542,38.715c-0.225-0.198-0.493-0.352-0.739-0.52c-0.218-0.148-0.438-0.307-0.666-0.445
						c0.347-0.116,0.688-0.255,1.023-0.415c0.175,0.23,0.409,0.43,0.626,0.607c0.182,0.15,0.381,0.318,0.598,0.435
						C127.108,38.506,126.828,38.617,126.542,38.715 M127.603,38.272c-0.221-0.167-0.476-0.297-0.696-0.467
						c-0.211-0.165-0.395-0.363-0.59-0.544c0.119-0.061,0.236-0.124,0.355-0.19c0.152-0.086,0.295-0.178,0.433-0.271
						c0.398,0.374,0.849,0.755,1.316,0.998C128.154,37.976,127.882,38.133,127.603,38.272 M128.721,37.587
						c-0.046,0.035-0.091,0.065-0.137,0.098c-0.236-0.181-0.503-0.33-0.741-0.503c-0.208-0.15-0.413-0.309-0.613-0.47
						c0.273-0.194,0.517-0.401,0.735-0.621c0.438,0.341,0.903,0.695,1.393,0.949C129.158,37.233,128.948,37.416,128.721,37.587
						 M129.486,36.916c-0.445-0.339-0.939-0.632-1.413-0.938c0.225-0.241,0.42-0.498,0.594-0.769
						c0.442,0.367,0.882,0.757,1.354,1.083C129.859,36.509,129.682,36.717,129.486,36.916 M130.113,36.163
						c-0.43-0.383-0.918-0.721-1.379-1.065c0.171-0.284,0.315-0.586,0.439-0.902c0.447,0.395,0.954,0.783,1.495,1.021
						C130.512,35.546,130.328,35.862,130.113,36.163 M130.728,35.088c-0.499-0.346-1.02-0.647-1.506-1.015
						c0.117-0.316,0.213-0.651,0.295-1c0.225,0.179,0.453,0.354,0.682,0.528c0.275,0.208,0.549,0.441,0.84,0.632
						C130.953,34.524,130.852,34.811,130.728,35.088 M131.096,34.035c-0.221-0.175-0.46-0.329-0.688-0.492
						c-0.284-0.205-0.57-0.411-0.862-0.607c0.057-0.26,0.107-0.527,0.149-0.805c0.005-0.036,0.009-0.073,0.014-0.108
						c0.218,0.139,0.437,0.275,0.656,0.41c0.3,0.184,0.598,0.395,0.925,0.53C131.25,33.327,131.188,33.686,131.096,34.035
						 M131.303,32.805c-0.263-0.203-0.566-0.357-0.852-0.523c-0.24-0.14-0.482-0.278-0.726-0.415
						c0.047-0.43,0.055-0.862,0.027-1.294c0.488,0.386,1.01,0.783,1.557,1.063C131.335,32.032,131.335,32.422,131.303,32.805"/>
				</g>
			</g>
		</g>
		<g>
			<g>
				<path fill="#FFFEFE" d="M126.02,61.661c-2.138,0-4.395-1.216-6.191-3.336c-1.428-1.686-2.224-3.602-2.041-4.904
					c-0.165-1.736,0.569-3.651,2.018-5.264c1.662-1.849,3.985-2.952,6.215-2.952c2.597,0,4.834,0.847,6.301,2.384
					c1.375,1.442,2.04,3.47,1.929,5.864C134.249,57.97,130.558,61.661,126.02,61.661z M126.02,46.071
					c-1.988,0-4.069,0.996-5.57,2.665c-1.301,1.449-1.956,3.143-1.794,4.65l0.006,0.058l-0.009,0.058
					c-0.175,1.046,0.563,2.759,1.838,4.262c1.606,1.897,3.674,3.03,5.529,3.03c4.06,0,7.361-3.303,7.361-7.362
					c0.104-2.204-0.464-3.961-1.688-5.246C130.392,46.822,128.378,46.071,126.02,46.071z"/>
			</g>
		</g>
	</g>
	<g>
		<g>
			<path fill="#FFFEFE" d="M97.29,80.9c-0.571,0-1.26-0.213-1.456-0.277c-1.972-0.569-3.001-1.957-2.962-4.012l0.001-0.211
				c0-5.734-4.205-10.4-9.373-10.4s-9.372,4.666-9.372,10.4c0,1.669-0.398,3.585-3.508,3.585c-3.237-0.031-3.662-1.83-3.662-3.585
				c0-10.466,6.332-17.2,16.526-17.57c0.257-0.01,0.512-0.014,0.762-0.014c9.597,0,15.798,6.902,15.798,17.584l-0.008,0.729
				c-0.016,1.535-0.034,3.443-2.5,3.758C97.458,80.896,97.377,80.9,97.29,80.9z M83.5,65.134c5.648,0,10.24,5.055,10.24,11.267
				l-0.002,0.227c-0.03,1.644,0.758,2.709,2.346,3.166c0.396,0.131,0.979,0.283,1.342,0.234c1.638-0.209,1.727-1.19,1.744-2.906
				l0.007-0.721c0-7.712-3.91-16.718-14.931-16.718c-0.24,0-0.483,0.004-0.729,0.014C73.69,60.053,67.824,66.299,67.824,76.4
				c0,1.704,0.445,2.694,2.724,2.719h0.001c2.28,0,2.713-0.996,2.713-2.719C73.261,70.188,77.854,65.134,83.5,65.134z"/>
		</g>
		<g>
			<path fill="#FFFEFE" d="M82.321,82.046c-6.084,0-6.334-0.739-6.439-1.054c-0.686-1.251-0.139-10.171-0.021-11.947l0.007-0.118
				l0.068-0.1c0.1-0.144,2.496-3.541,7.553-3.693c5.104-0.123,7.43,3.479,7.525,3.63l0.057,0.092l0.009,0.11
				c0.763,11.745,0.095,12.121-0.155,12.263C89.872,81.824,85.089,82.046,82.321,82.046z M76.715,69.23
				c-0.261,4.026-0.498,10.576-0.043,11.416c0.193,0.183,1.64,0.533,5.648,0.533c3.986,0,7.309-0.337,8.094-0.664
				c0.282-0.864,0.129-6.361-0.194-11.377c-0.367-0.526-2.4-3.143-6.426-3.143L83.513,66C79.353,66.126,77.122,68.713,76.715,69.23z
				"/>
		</g>
		<g>
			<g>
				<g>
					<g>
						<path fill="#FFFFFF" d="M86.859,20.707c-2.098-1.098-5.192-1.398-7.244-0.042c-1.953,1.291-2.485,3.875-1.861,6.022
							c0.393,1.354,1.169,2.576,2.077,3.642c0.384,0.452,0.741,0.891,1.021,1.384c-0.019,0.003-0.039,0.005-0.059,0.008
							c-0.018,0.002-0.013,0.031,0.004,0.029c0.024-0.002,0.048-0.002,0.071-0.005c0.151,0.271,0.28,0.556,0.375,0.868
							c0.243,0.803,0.273,1.638,0.28,2.471c-0.31,0.011-0.527,0.338-0.541,0.632c-0.007,0.136,0.039,0.307,0.123,0.449
							c-0.278,0.266-0.265,0.661-0.047,0.99c-0.295,0.585-0.019,1.005,0.462,1.296c0.596,1.751,3.961,1.652,4.418-0.186
							c0.344-0.347,0.495-0.821,0.25-1.438c-0.005-0.013-0.013-0.021-0.019-0.031c0.037-0.191,0.022-0.408-0.061-0.658
							c-0.014-0.043-0.041-0.074-0.071-0.093c0.203-0.373,0.188-0.805-0.268-1.182c-0.025-0.021-0.053-0.03-0.078-0.032
							c-0.441-3.192,2.764-5.284,3.785-8.044C90.38,24.342,89.082,21.873,86.859,20.707 M81.23,36.323
							c0.05,0.046,0.105,0.083,0.166,0.102c0.691,0.782,2.552,0.668,3.39,0.499c0.362-0.074,0.748-0.288,1.021-0.569
							C86.155,38.442,80.789,37.926,81.23,36.323 M83.659,39.376c-0.683-0.015-1.313-0.275-1.773-0.745
							c0.621,0.261,1.392,0.372,1.799,0.381c0.498,0.015,1.131-0.093,1.65-0.34C84.918,39.142,84.373,39.39,83.659,39.376
							 M85.979,37.21c0.123,1.095-1.248,1.493-2.17,1.487c-0.899-0.006-2.654-0.146-2.6-1.361c0.446,0.438,1.259,0.565,1.821,0.631
							C83.814,38.056,85.408,37.948,85.979,37.21 M85.694,35.209c0-0.006,0-0.01-0.003-0.015c0.383,0.5-0.062,1.128-0.594,1.344
							c-0.395,0.162-0.833,0.178-1.252,0.19c-0.686,0.018-1.621,0-2.237-0.408c-0.003-0.008-0.007-0.016-0.012-0.021
							c-0.142-0.186-0.342-0.282-0.338-0.551c0.002-0.202,0.13-0.349,0.266-0.484c0,0.028,0.001,0.056,0.001,0.083
							c0,0.001,0,0.002,0,0.002c-0.03,0.023-0.049,0.064-0.03,0.108c0.048,0.111,0.192,0.171,0.295,0.223
							c0.106,0.053,0.234,0.106,0.355,0.093c0.545,0.242,1.351,0.216,1.809,0.208c0.113-0.002,0.247-0.004,0.391-0.015
							c0.044,0.013,0.091,0.009,0.13-0.01C85.013,35.909,85.619,35.751,85.694,35.209 M82.821,34.899
							c0.177-0.897,0.038-1.979-0.055-2.8c-0.13-1.153-0.382-2.283-0.706-3.396c-0.068-0.229-0.131-0.523-0.218-0.819
							c0.166-0.034,0.331-0.07,0.484-0.095c0.768-0.131,1.533-0.28,2.281-0.495c0.091-0.025,0.194-0.054,0.304-0.085
							c-0.216,0.872-0.378,1.759-0.504,2.648c-0.271,1.937-0.337,3.887-0.2,5.838c-0.276,0.01-0.549-0.008-0.766-0.02
							c-0.281-0.016-0.533-0.053-0.777-0.106c0.055-0.13,0.1-0.258,0.129-0.399C82.811,35.082,82.83,34.99,82.821,34.899
							 M88.659,27.768c-1.322,2.289-3.957,4.424-3.228,7.372c0.001,0.005,0.005,0.007,0.007,0.013
							c-0.165,0.319-0.512,0.458-0.891,0.514c-0.124-1.748-0.093-3.502,0.122-5.242c0.134-1.102,0.296-2.251,0.629-3.328
							c0.729-0.233,1.551-0.619,1.459-1.395c-0.069-0.58-0.771-0.805-1.111-0.313c-0.018,0.026-0.021,0.054-0.021,0.08
							c-0.337,0.359-0.487,0.882-0.616,1.355c-0.041,0.013-0.081,0.025-0.118,0.038c-0.451,0.146-0.914,0.261-1.377,0.363
							c-0.466,0.1-0.936,0.184-1.406,0.262c-0.125,0.02-0.249,0.043-0.376,0.063c-0.149-0.402-0.363-0.762-0.715-0.915
							c-0.449-0.194-0.95,0.059-0.941,0.535c-0.092,0.33,0.294,0.746,0.685,0.805c0.253,0.039,0.524,0.012,0.795-0.034
							c0.009,0.024,0.018,0.049,0.025,0.075c0.108,0.334,0.21,0.672,0.306,1.012c0.187,0.681,0.35,1.37,0.475,2.065
							c0.136,0.765,0.22,1.538,0.232,2.317c0.007,0.526-0.086,1.076-0.092,1.609c-0.004,0.022-0.009,0.046-0.013,0.07
							c-0.021,0.134-0.051,0.271-0.079,0.403c0,0.004,0.001,0.008,0,0.014c-0.212-0.06-0.423-0.134-0.646-0.221
							c0.024-0.314,0.03-0.632,0.021-0.95c0.111,0.002,0.225,0.005,0.337,0.001c0.027-0.001,0.027-0.041,0-0.043
							c-0.114-0.004-0.227-0.001-0.34,0.001c-0.007-0.151-0.019-0.3-0.033-0.449c0.11-0.008,0.219,0.002,0.328,0.021
							c0.021,0.003,0.032-0.028,0.011-0.035c-0.112-0.031-0.228-0.036-0.342-0.025c-0.022-0.216-0.056-0.431-0.099-0.643
							c0.106,0.002,0.214,0.004,0.32-0.003c0.016-0.002,0.016-0.023,0-0.024c-0.108-0.008-0.218-0.006-0.325-0.003
							c-0.046-0.223-0.103-0.442-0.171-0.658c0.139-0.01,0.277-0.012,0.417-0.004c0.026,0,0.024-0.038,0-0.042
							c-0.145-0.016-0.288-0.011-0.431,0.006c-0.059-0.183-0.126-0.362-0.203-0.538c-0.025-0.055-0.053-0.111-0.079-0.165
							c0.146-0.001,0.292,0.002,0.441,0.001c0.021,0,0.028-0.037,0.006-0.042c-0.155-0.02-0.314-0.02-0.472-0.009
							c-0.11-0.214-0.238-0.415-0.375-0.612c0.15,0.003,0.302,0.005,0.452,0c0.028-0.001,0.029-0.043,0-0.045
							c-0.161-0.006-0.322-0.004-0.483,0c-0.148-0.209-0.31-0.412-0.475-0.61c0.203-0.01,0.406-0.01,0.608-0.004
							c0.027,0,0.025-0.039,0-0.041c-0.217-0.021-0.432-0.02-0.646-0.003c-0.18-0.214-0.361-0.427-0.54-0.643
							c0.318,0.023,0.636,0.048,0.954,0.065c0.024,0.002,0.024-0.037,0-0.038c-0.329-0.027-0.658-0.048-0.986-0.068
							c-0.129-0.157-0.254-0.317-0.373-0.483c0.259,0.005,0.518,0.008,0.775,0.002c0.027-0.001,0.027-0.041,0-0.042
							c-0.268-0.005-0.536-0.001-0.804,0.002c-0.022-0.032-0.047-0.063-0.069-0.094c-0.142-0.203-0.274-0.416-0.398-0.635
							c0.216,0.013,0.433,0.025,0.649,0.036c0.029,0.001,0.029-0.042,0-0.045c-0.225-0.014-0.449-0.025-0.674-0.035
							c-0.105-0.191-0.204-0.385-0.295-0.584c0.271,0.001,0.543,0.002,0.814-0.007c0.02-0.001,0.02-0.03,0-0.031
							c-0.278-0.01-0.556-0.008-0.834-0.007c-0.107-0.239-0.202-0.484-0.285-0.733c0.282,0.005,0.563,0.009,0.847,0.005
							c0.034-0.001,0.034-0.054,0-0.054c-0.288-0.006-0.574-0.001-0.861,0.004c-0.074-0.229-0.139-0.46-0.19-0.695
							c0.26,0.003,0.52,0.005,0.778,0.001c0.029-0.001,0.029-0.046,0-0.047c-0.264-0.004-0.525-0.001-0.787,0.002
							c-0.06-0.275-0.102-0.553-0.127-0.829c0.356-0.017,0.712-0.02,1.068-0.008c0.041,0.001,0.041-0.061,0-0.062
							c-0.358-0.019-0.717-0.015-1.074,0.019c-0.021-0.258-0.024-0.516-0.012-0.771c0.271-0.017,0.543-0.031,0.814-0.054
							c0.03-0.001,0.031-0.049,0-0.046c-0.271,0.015-0.542,0.038-0.813,0.059c0.017-0.29,0.056-0.581,0.119-0.863
							c0.335,0.003,0.67,0.008,1.005,0.002c0.037-0.001,0.037-0.058,0-0.06c-0.331-0.006-0.662,0-0.992,0.004
							c0.057-0.246,0.135-0.487,0.23-0.723c0.396,0.002,0.792,0.003,1.188,0.001c0.038-0.001,0.038-0.059,0-0.059
							c-0.388-0.003-0.776,0-1.163,0c0.123-0.29,0.276-0.568,0.464-0.836c0.324,0.005,0.647,0.009,0.971,0.002
							c0.039-0.002,0.04-0.06,0-0.062c-0.309-0.006-0.617-0.002-0.928,0.001c0.041-0.055,0.08-0.111,0.124-0.166
							c0.133-0.167,0.278-0.32,0.432-0.461c0.382-0.045,0.765-0.061,1.15-0.056c0.031,0.001,0.031-0.047,0-0.049
							c-0.363-0.021-0.723-0.001-1.082,0.044c0.256-0.225,0.538-0.414,0.837-0.569c0.444-0.008,0.89,0.006,1.333,0.029
							c0.046,0.002,0.046-0.066,0-0.07c-0.397-0.036-0.795-0.042-1.193-0.03c1.84-0.885,4.314-0.603,6.077,0.216
							c1.21,0.562,2.232,1.497,2.749,2.742C89.724,25.007,89.405,26.472,88.659,27.768 M85.438,26.682
							c0.137-0.379,0.299-0.748,0.492-1.101c0.56,0.132,0.653,0.33,0.279,0.591c-0.097,0.172-0.237,0.29-0.42,0.353
							C85.687,26.586,85.565,26.635,85.438,26.682 M81.44,27.593c-0.034,0.005-0.068,0.011-0.103,0.016
							c-0.299,0.039-0.906-0.087-0.971-0.384c0.601-0.268,0.956-0.153,1.067,0.35C81.437,27.582,81.438,27.586,81.44,27.593"/>
					</g>
				</g>
			</g>
			<g>
				<g>
					<g>
						<path fill="#FFFFFF" d="M76.32,25.083c-0.053-0.195-0.07-0.382-0.065-0.583c0-0.008-0.002-0.014-0.002-0.021
							c0.002-0.027-0.007-0.055-0.031-0.075c-0.015-0.016-0.031-0.028-0.054-0.035c-0.761-0.518-1.847-0.657-2.734-0.79
							c-0.133-0.02-0.206,0.108-0.162,0.199c-0.004,0.613,0.07,1.232,0.278,1.81c0.03,0.086,0.146,0.107,0.207,0.062
							c0.353,0.005,0.702-0.114,1.048-0.18c0.456-0.089,0.915-0.155,1.376-0.205C76.273,25.257,76.347,25.182,76.32,25.083
							 M73.784,25.47c-0.063-0.513-0.133-1.023-0.172-1.539c0.763,0.235,1.583,0.365,2.358,0.561c0,0.002-0.002,0.004-0.002,0.008
							c-0.012,0.176,0,0.333,0.033,0.496C75.285,25.07,74.406,25.13,73.784,25.47"/>
					</g>
				</g>
			</g>
			<g>
				<g>
					<g>
						<path fill="#FFFFFF" d="M79.239,19.896c-0.471-0.839-0.911-1.695-1.393-2.528c-0.051-0.088-0.14-0.095-0.207-0.059
							c-0.041-0.016-0.092-0.018-0.147,0.005c-0.573,0.246-1.063,0.762-1.431,1.251c-0.068,0.09,0.012,0.193,0.104,0.212
							c0.563,0.519,1.25,0.926,1.848,1.408c0.455,0.368,0.634,0.176,1.166-0.061C79.263,20.088,79.279,19.968,79.239,19.896
							 M78.078,19.813c-0.193-0.129-0.371-0.285-0.561-0.42c-0.366-0.263-0.744-0.535-1.158-0.72
							c0.39-0.396,0.828-0.693,1.266-1.029c0.384,0.766,0.813,1.511,1.232,2.257C78.576,20.012,78.389,20.023,78.078,19.813"/>
					</g>
				</g>
			</g>
			<g>
				<g>
					<g>
						<path fill="#FFFFFF" d="M82.843,15.372c-0.012-0.057-0.068-0.119-0.126-0.127c-0.525-0.084-1.143,0.124-1.688,0.126
							c-0.176,0.001-0.22,0.201-0.135,0.305c-0.031,0.02-0.053,0.054-0.041,0.095c0.257,0.917,0.506,1.824,0.636,2.766
							c0.011,0.075,0.097,0.125,0.165,0.126c0.742,0.014,0.944,0.116,1.034-0.654c0.057-0.48,0.101-0.96,0.13-1.442
							C82.843,16.195,82.921,15.741,82.843,15.372 M82.464,16.327c-0.021,0.402-0.052,0.803-0.091,1.203
							c-0.053,0.55-0.068,0.75-0.578,0.787c-0.149-0.891-0.374-1.763-0.765-2.581c0.37-0.003,0.735-0.024,1.101-0.076
							C82.611,15.593,82.484,15.926,82.464,16.327"/>
					</g>
				</g>
			</g>
			<g>
				<g>
					<g>
						<path fill="#FFFFFF" d="M88.882,16.5c-0.221-0.199-0.501-0.334-0.762-0.478c-0.284-0.157-0.572-0.314-0.87-0.446
							c-0.071-0.03-0.158,0.035-0.146,0.1c-0.017,0.009-0.029,0.019-0.038,0.039c-0.436,0.827-0.764,1.738-1.096,2.611
							c-0.206,0.544,0.07,0.628,0.602,0.804c0.028,0.01,0.054,0.009,0.079,0.004c0.018,0,0.036-0.003,0.056-0.015
							c0.427-0.285,0.81-0.639,1.157-1.014c0.335-0.361,0.737-0.789,0.942-1.24c0.013-0.025,0.015-0.052,0.015-0.078
							C88.923,16.744,88.976,16.584,88.882,16.5 M87.598,17.836c-0.289,0.339-0.598,0.66-0.894,0.991
							c-0.002-0.001-0.002-0.001-0.002-0.001c-0.104-0.079-0.218-0.139-0.34-0.185c-0.221-0.034-0.234-0.107-0.042-0.221
							c0.027-0.261,0.223-0.581,0.316-0.83c0.218-0.585,0.457-1.173,0.605-1.78c0.212,0.167,0.432,0.326,0.651,0.477
							c0.2,0.138,0.399,0.289,0.613,0.405C88.175,17.04,87.912,17.469,87.598,17.836"/>
					</g>
				</g>
			</g>
			<g>
				<g>
					<g>
						<path fill="#FFFFFF" d="M92.688,20.402c0.005-0.022,0.007-0.048,0.001-0.072c-0.058-0.287-0.35-0.542-0.54-0.755
							c-0.234-0.262-0.488-0.509-0.751-0.741c-0.046-0.041-0.097-0.038-0.135-0.018c-0.029-0.001-0.062,0.005-0.094,0.03
							c-0.43,0.332-0.811,0.74-1.197,1.121c-0.241,0.237-0.645,0.517-0.705,0.877c-0.059,0.017-0.103,0.086-0.067,0.153
							c0.077,0.144,0.164,0.282,0.233,0.429c0.061,0.13,0.097,0.303,0.229,0.377c0.055,0.032,0.127,0.013,0.163-0.039
							c0.006-0.001,0.01,0.001,0.015-0.001c0.942-0.273,1.866-0.64,2.773-1.012C92.769,20.688,92.774,20.493,92.688,20.402
							 M89.809,21.499c-0.036-0.076-0.087-0.149-0.13-0.216c-0.075-0.118-0.16-0.232-0.252-0.337c0-0.001,0.003-0.002,0.003-0.006
							c0.068-0.224,0.323-0.366,0.489-0.509c0.165-0.143,0.327-0.29,0.488-0.437c0.312-0.28,0.645-0.556,0.925-0.867
							c0.188,0.235,0.373,0.473,0.557,0.714c0.139,0.186,0.267,0.434,0.45,0.592C91.484,20.755,90.626,21.094,89.809,21.499"/>
					</g>
				</g>
			</g>
			<g>
				<g>
					<g>
						<path fill="#FFFFFF" d="M93.607,25.632c-0.932-0.281-1.883-0.521-2.849-0.648c-0.047-0.006-0.078,0.018-0.091,0.052
							c-0.029,0.012-0.055,0.035-0.066,0.065c-0.054,0.143-0.084,0.291-0.135,0.434c-0.053,0.145-0.122,0.28-0.18,0.421
							c-0.044,0.109,0.027,0.196,0.12,0.225c0.268,0.368,0.577,0.697,0.907,1.01c0.333,0.317,0.701,0.72,1.119,0.921
							c0.058,0.028,0.111,0.021,0.153,0c0.063,0.012,0.128-0.012,0.164-0.09c0.32-0.705,0.647-1.408,0.971-2.112
							C93.772,25.799,93.733,25.67,93.607,25.632 M92.498,27.714c-0.273-0.285-0.632-0.525-0.921-0.785
							c-0.31-0.277-0.613-0.565-0.932-0.834c0.14-0.242,0.219-0.582,0.184-0.872c0.817,0.255,1.645,0.477,2.469,0.713
							C93.031,26.529,92.767,27.121,92.498,27.714"/>
					</g>
				</g>
			</g>
			<g>
				<g>
					<g>
						<path fill="#FFFFFF" d="M90.715,31.542c-0.209-0.325-0.805-0.528-1.134-0.717c-0.453-0.258-0.915-0.55-1.418-0.705
							c-0.029-0.01-0.056,0.004-0.07,0.026c-0.047-0.018-0.101-0.01-0.147,0.04c-0.097,0.098-0.168,0.223-0.244,0.338
							c-0.078,0.116-0.165,0.226-0.234,0.348c-0.037,0.062-0.013,0.118,0.031,0.146c0.078,0.379,0.439,0.721,0.67,1.024
							c0.266,0.351,0.513,0.787,0.845,1.079c0.025,0.02,0.055,0.031,0.089,0.036c0.018,0.019,0.043,0.031,0.074,0.028
							c0.352-0.032,0.609-0.351,0.829-0.598c0.19-0.215,0.439-0.479,0.58-0.757C90.703,31.802,90.787,31.657,90.715,31.542
							 M89.842,32.198c-0.174,0.237-0.356,0.51-0.595,0.695c-0.18-0.379-0.491-0.718-0.752-1.04
							c-0.234-0.286-0.493-0.681-0.833-0.857c0.102-0.085,0.191-0.187,0.277-0.287c0.09-0.102,0.191-0.212,0.248-0.335
							c0.008-0.018,0.011-0.034,0.014-0.052c0.292,0.261,0.631,0.467,0.96,0.675c0.207,0.131,0.415,0.259,0.625,0.387
							c0.117,0.071,0.293,0.149,0.437,0.24C90.086,31.808,89.974,32.024,89.842,32.198"/>
					</g>
				</g>
			</g>
			<g>
				<g>
					<g>
						<path fill="#FFFFFF" d="M77.906,28.971c-0.095-0.124-0.217-0.224-0.313-0.346c-0.1-0.126-0.194-0.26-0.281-0.393
							c-0.004-0.006-0.009-0.011-0.015-0.015c-0.012-0.014-0.029-0.022-0.056-0.02c-0.431,0.045-0.825,0.22-1.228,0.377
							c-0.403,0.157-0.825,0.296-1.204,0.506c-0.078,0.043-0.079,0.127-0.038,0.188c-0.034,0.013-0.065,0.041-0.079,0.076
							c-0.104,0.259,0.152,0.696,0.271,0.922c0.177,0.34,0.423,0.73,0.748,0.941c0.085,0.054,0.187,0,0.22-0.083
							c0.05,0.006,0.102-0.008,0.143-0.051c0.337-0.347,0.692-0.661,1.06-0.979c0.307-0.267,0.649-0.578,0.775-0.976
							c0.003-0.008,0.003-0.016,0.003-0.021C77.936,29.059,77.938,29.013,77.906,28.971 M76.738,29.945
							c-0.333,0.267-0.678,0.535-0.933,0.883c-0.328-0.443-0.775-0.878-0.884-1.429c0.007-0.017,0.01-0.036-0.001-0.054
							c-0.007-0.008-0.013-0.015-0.018-0.022c0.003,0,0.005,0,0.008,0c0.437-0.104,0.858-0.295,1.276-0.457
							c0.356-0.139,0.72-0.266,1.034-0.482c0.063,0.282,0.219,0.577,0.455,0.742C77.361,29.392,77.063,29.685,76.738,29.945"/>
					</g>
				</g>
			</g>
			<g>
				<g>
					<g>
						<path fill="#FFFFFF" d="M80.476,31.881c-0.044-0.139-0.199-0.18-0.313-0.254c-0.123-0.08-0.23-0.176-0.345-0.267
							c-0.055-0.042-0.126-0.018-0.146,0.033c-0.023-0.012-0.051-0.013-0.076,0.005c-0.7,0.474-1.507,0.935-2.11,1.53
							c-0.076,0.074-0.056,0.173,0.005,0.234c0.083,0.307,0.367,0.556,0.608,0.744c0.288,0.227,0.707,0.51,1.087,0.505
							c0.116-0.001,0.162-0.126,0.108-0.21c0.065,0.012,0.139-0.007,0.181-0.07c0.408-0.626,0.771-1.42,0.991-2.136
							c0.004-0.014,0.005-0.025,0.003-0.038C80.48,31.935,80.484,31.907,80.476,31.881 M79.17,34.002
							c-0.016,0.039-0.014,0.075-0.001,0.105c-0.247-0.137-0.533-0.208-0.777-0.366c-0.229-0.147-0.493-0.342-0.653-0.581
							c0.721-0.406,1.371-1.062,1.964-1.625c0.004-0.003,0.005-0.009,0.008-0.012c0.072,0.117,0.166,0.22,0.27,0.309
							c0.073,0.063,0.165,0.151,0.265,0.187C79.817,32.609,79.423,33.333,79.17,34.002"/>
					</g>
				</g>
			</g>
		</g>
		<g>
			<path fill="#FFFEFE" d="M83.145,57.756c-2.197,0-4.264-0.856-5.817-2.41c-1.513-1.513-2.248-3.967-2.02-6.736
				c0.183-2.203,0.975-4.12,2.024-4.911c1.196-1.447,3.303-2.31,5.65-2.31c2.327,0,4.507,0.846,5.981,2.32
				c1.834,1.836,2.817,4.019,2.768,6.142c-0.048,1.992-1.01,3.896-2.784,5.509C87.408,56.9,85.343,57.756,83.145,57.756z
				 M82.981,42.257c-2.112,0-3.985,0.76-5.012,2.032l-0.085,0.081c-0.863,0.617-1.552,2.35-1.714,4.313
				c-0.204,2.478,0.457,4.74,1.769,6.052c1.391,1.39,3.238,2.156,5.205,2.156s3.814-0.766,5.206-2.156
				c1.632-1.484,2.473-3.129,2.515-4.903c0.044-1.885-0.849-3.842-2.515-5.508C87.037,43.01,85.079,42.257,82.981,42.257z"/>
		</g>
	</g>
	<g>
		<g>
			<g>
				<path fill="#FFFFFF" d="M40.174,84.86c-2.825,0-5.486-0.184-5.893-0.647l-0.055-0.079c-0.321-0.59-0.171-9.72-0.053-15.11
					l0.017-0.423c0.226-3.536,3.136-6.303,6.681-6.303c1.342,0,2.637,0.395,3.744,1.144l-0.485,0.718
					c-0.964-0.651-2.092-0.995-3.26-0.995c-3.215,0-5.831,2.616-5.831,5.831l-0.009,0.434c-0.109,5.163-0.208,13.095-0.041,14.244
					c1.236,0.587,11.036,0.36,11.901-0.104l0.021-0.016c0.263-0.545,0.17-3.635,0.054-7.524l0.866-0.025
					c0.198,6.656,0.214,8.093-0.564,8.336C46.486,84.646,43.234,84.86,40.174,84.86z"/>
			</g>
		</g>
		<g>
			<g>
				<path fill="#FFFEFE" d="M27.578,84.319c-0.969,0-1.268-0.081-1.433-0.161c-0.309-0.15-0.884-0.428-0.243-16.659
					c0-1.649,1.342-2.992,2.993-2.992c0.952,0,1.733,0.289,2.264,0.834c0.513,0.529,0.758,1.26,0.729,2.172
					c0.376,16.058,0.05,16.391-0.107,16.552l-0.127,0.13l-0.244,0.006l-0.051-0.011c-0.019-0.002-0.07-0.003-0.14-0.003
					c-0.272,0-0.736,0.023-1.272,0.051C29.177,84.276,28.304,84.319,27.578,84.319z M26.642,83.406
					c0.133,0.021,0.404,0.047,0.937,0.047c0.703,0,1.565-0.043,2.326-0.081c0.493-0.022,0.926-0.045,1.215-0.05
					c0.157-1.741,0.031-10.373-0.097-15.796c0.021-0.71-0.143-1.229-0.487-1.581c-0.457-0.473-1.145-0.572-1.64-0.572
					c-1.174,0-2.128,0.954-2.128,2.127C26.549,73.07,26.333,82.044,26.642,83.406z"/>
			</g>
		</g>
		<g>
			<g>
				<path fill="#FFFFFF" d="M60.767,81.681h-7.249c-1.013,0-1.983-0.432-2.662-1.185L40.769,69.309
					c-1.322-1.47-1.205-3.741,0.264-5.064c1.488-1.344,3.366-1.314,4.629,0.086l9.447,10.18h5.657c1.977,0,3.585,1.607,3.585,3.585
					C64.351,80.072,62.742,81.681,60.767,81.681z M43.386,64.105c-0.593,0-1.205,0.271-1.772,0.782
					c-0.54,0.487-0.857,1.154-0.896,1.878c-0.038,0.726,0.21,1.422,0.696,1.962l10.085,11.188c0.515,0.571,1.251,0.899,2.019,0.899
					h7.249c1.499,0,2.719-1.219,2.719-2.72c0-1.499-1.22-2.719-2.719-2.719H54.73l-9.708-10.461
					C44.543,64.384,43.979,64.105,43.386,64.105z"/>
			</g>
		</g>
		<g>
			<g>
				<g>
					<path fill="#FFFFFF" d="M35.271,31.685c-0.054,0.042,0.006,0.142,0.068,0.117c0.019-0.007,0.035-0.017,0.054-0.024
						c-0.449,5.068,4.469,8.243,9.132,7.997c-0.302,0.656-0.558,1.329-0.803,2.008c-0.03,0.083,0.047,0.161,0.125,0.164
						c1.231,0.045,2.406-0.332,3.53-0.816c0.293-0.126,0.543-0.277,0.764-0.451c0.227-0.114,0.446-0.243,0.654-0.394
						c0.029,0.015,0.063,0.023,0.104,0.021c3.165-0.177,6.414-0.558,9.035-2.502c1.884-1.396,3.328-3.378,3.933-5.638
						c0.028-0.078,0.06-0.154,0.087-0.233c0.626-1.846,0.539-3.954-0.294-5.722c-0.916-1.942-2.774-3.239-4.68-4.102
						c-3.622-1.643-8.022-1.778-11.864-0.632c-0.019-0.004-0.038-0.005-0.061-0.002c-2.381,0.396-4.498,1.492-6.146,3.068
						c-0.009,0.006-0.018,0.011-0.025,0.017c-0.014,0.01-0.021,0.022-0.027,0.036c-0.903,0.875-1.664,1.892-2.244,3.023
						c-0.005,0.004-0.013,0.008-0.019,0.013c-0.025,0.02-0.029,0.044-0.021,0.064c-0.591,1.174-0.992,2.466-1.158,3.836
						c-0.002,0.018-0.002,0.033-0.004,0.051C35.363,31.618,35.314,31.649,35.271,31.685 M35.786,30.783
						c0.026-0.158,0.061-0.31,0.095-0.465c0.538-0.221,1.053-0.552,1.529-0.905c-0.069,0.331-0.122,0.666-0.149,1.001
						c-0.305,0.204-0.608,0.406-0.918,0.602c-0.207,0.128-0.423,0.248-0.634,0.375C35.729,31.188,35.752,30.986,35.786,30.783
						 M35.923,30.113c0.211-0.871,0.541-1.695,0.965-2.466c0.53-0.257,1.043-0.606,1.544-0.932
						c-0.211,0.381-0.398,0.773-0.559,1.173c-0.53,0.304-1.067,0.615-1.544,0.983c-0.057,0.044,0.016,0.122,0.071,0.093
						c0.475-0.235,0.934-0.536,1.382-0.84c-0.13,0.349-0.239,0.704-0.324,1.065C36.953,29.51,36.432,29.799,35.923,30.113
						 M37.095,27.282c0.245-0.407,0.519-0.795,0.815-1.168c0.456-0.227,0.901-0.469,1.361-0.687
						c-0.247,0.328-0.478,0.668-0.686,1.02C38.097,26.72,37.574,26.979,37.095,27.282 M38.173,25.798
						c0.412-0.48,0.865-0.925,1.351-1.334c0.305-0.131,0.609-0.26,0.928-0.362c-0.374,0.36-0.725,0.748-1.047,1.159
						C38.993,25.423,38.573,25.596,38.173,25.798 M40.042,24.05c0.644-0.485,1.335-0.908,2.059-1.258
						c-0.52,0.332-1.013,0.716-1.475,1.143c-0.017-0.021-0.041-0.034-0.074-0.025C40.387,23.952,40.214,23.998,40.042,24.05
						 M57.421,37.611c-0.043,0.03-0.088,0.056-0.132,0.085c0.331-0.343,0.638-0.711,0.919-1.095
						c0.595-0.388,1.149-0.831,1.646-1.329C59.18,36.163,58.373,36.956,57.421,37.611 M56.831,37.983
						c-0.323,0.189-0.655,0.356-0.994,0.507c0.345-0.342,0.662-0.721,0.954-1.108c0.38-0.175,0.749-0.369,1.104-0.584
						C57.547,37.199,57.188,37.591,56.831,37.983 M55.473,38.648c-0.316,0.127-0.64,0.237-0.966,0.34
						c0.351-0.339,0.679-0.712,0.983-1.098c0.356-0.115,0.709-0.247,1.052-0.396C56.199,37.892,55.838,38.267,55.473,38.648
						 M54.269,39.06c-0.308,0.091-0.621,0.167-0.936,0.238c0.174-0.163,0.335-0.343,0.49-0.511c0.176-0.19,0.342-0.388,0.504-0.59
						c0.313-0.067,0.624-0.143,0.931-0.234C54.926,38.329,54.591,38.689,54.269,39.06 M53.031,39.366
						c-0.276,0.058-0.556,0.108-0.836,0.153c0.399-0.365,0.777-0.767,1.148-1.157c0.269-0.034,0.538-0.074,0.805-0.126
						c-0.137,0.156-0.275,0.309-0.419,0.458C53.509,38.923,53.252,39.132,53.031,39.366 M51.856,39.569
						c-0.34,0.051-0.681,0.092-1.022,0.13c0.199-0.183,0.375-0.405,0.555-0.596c0.204-0.219,0.406-0.438,0.608-0.658
						c0.378-0.002,0.756-0.017,1.134-0.056C52.695,38.764,52.251,39.154,51.856,39.569 M50.586,39.728
						c-0.423,0.043-0.846,0.079-1.266,0.108c0.006-0.007,0.013-0.012,0.019-0.019c0.016-0.015,0.035-0.037,0.057-0.061
						c0.023,0.015,0.053,0.018,0.081-0.002c0.546-0.368,1.033-0.872,1.494-1.35c0.277,0.025,0.557,0.039,0.837,0.044
						c-0.178,0.178-0.356,0.358-0.533,0.54C51.046,39.222,50.772,39.453,50.586,39.728 M50.788,38.386
						c-0.325,0.283-0.661,0.556-0.984,0.839c0.2-0.295,0.395-0.64,0.437-0.912C50.422,38.343,50.605,38.366,50.788,38.386
						 M48.293,39.998c-0.751,0.509-1.617,0.753-2.502,0.875c0.492-0.924,0.791-1.889,0.885-2.952
						c0.009-0.087-0.023-0.148-0.072-0.187c-0.055-0.083-0.149-0.14-0.27-0.123c-2.378,0.344-4.988-0.249-6.846-1.829
						c-1.057-0.899-1.649-2.477-1.784-4.029c0.026-0.026,0.019-0.062-0.005-0.08c-0.07-0.902,0.014-1.791,0.252-2.53
						c0.59-1.826,1.84-3.599,3.231-4.902c1.523-1.426,3.466-2.107,5.479-2.524c3.82-0.794,8.013-0.439,11.416,1.571
						c3.604,2.128,4.893,6.383,2.653,10.04c-0.975,1.592-2.491,2.837-4.186,3.597c-2.054,0.921-4.189,0.965-6.395,0.984
						c-0.018,0-0.031,0.006-0.047,0.01c-0.025-0.018-0.052-0.032-0.086-0.044c-0.106-0.035-0.198,0.094-0.144,0.187
						c0.087,0.146-0.585,1.008-0.643,1.079C48.962,39.472,48.646,39.76,48.293,39.998 M46.168,41.279
						c-0.308,0.099-1.114,0.402-1.614,0.396c0.063-0.037,0.126-0.075,0.19-0.112c0.158-0.089,0.316-0.18,0.474-0.271
						c0.039,0.047,0.096,0.079,0.165,0.074c0.264-0.019,0.529-0.05,0.793-0.09C46.174,41.276,46.17,41.278,46.168,41.279
						 M44.147,41.486c-0.026-0.074,0.021-0.232,0.104-0.424c0.501-0.192,0.997-0.599,1.39-0.975
						c-0.127,0.321-0.275,0.636-0.449,0.945c-0.021,0.036-0.028,0.076-0.026,0.117c-0.3,0.145-0.611,0.294-0.892,0.472
						C44.214,41.59,44.17,41.547,44.147,41.486 M44.367,40.805c0.148-0.305,0.329-0.634,0.431-0.849
						c0.243-0.13,0.465-0.338,0.684-0.503c0.163-0.125,0.325-0.253,0.486-0.379c-0.068,0.27-0.147,0.535-0.243,0.795
						c-0.011,0.001-0.022,0.001-0.033,0.011c-0.28,0.229-0.561,0.452-0.862,0.652C44.68,40.629,44.521,40.713,44.367,40.805
						 M44.689,39.527c-0.087-0.01-0.174-0.021-0.26-0.031c0.615-0.331,1.199-0.812,1.707-1.277c-0.035,0.237-0.08,0.474-0.135,0.706
						c-0.229,0.154-0.455,0.309-0.681,0.469c-0.152,0.107-0.322,0.21-0.474,0.328c-0.011-0.022-0.025-0.042-0.047-0.057
						C44.809,39.604,44.771,39.538,44.689,39.527 M44.135,39.458c-0.313-0.04-0.626-0.081-0.938-0.125
						c0.63-0.306,1.227-0.703,1.793-1.107c0.347-0.004,0.693-0.027,1.041-0.068C45.419,38.633,44.768,39.02,44.135,39.458
						 M42.905,39.29c-0.293-0.046-0.585-0.096-0.874-0.155c0.504-0.301,0.986-0.668,1.464-1.001
						c0.426,0.058,0.855,0.092,1.287,0.094C44.167,38.602,43.532,38.934,42.905,39.29 M41.754,39.075
						c-0.36-0.08-0.716-0.174-1.064-0.285c0.246-0.152,0.479-0.344,0.708-0.507c0.214-0.154,0.438-0.306,0.641-0.477
						c0.42,0.129,0.847,0.231,1.278,0.299C42.791,38.415,42.239,38.714,41.754,39.075 M40.458,38.715
						c-0.285-0.098-0.567-0.208-0.843-0.337c0.217-0.117,0.417-0.285,0.6-0.435c0.217-0.178,0.451-0.377,0.625-0.607
						c0.335,0.16,0.676,0.3,1.023,0.415c-0.229,0.137-0.447,0.296-0.666,0.445C40.952,38.363,40.683,38.517,40.458,38.715
						 M39.398,38.272c-0.279-0.139-0.553-0.297-0.818-0.474c0.468-0.244,0.917-0.626,1.315-0.999
						c0.139,0.093,0.28,0.185,0.434,0.271c0.117,0.067,0.236,0.129,0.355,0.191c-0.195,0.181-0.378,0.38-0.591,0.544
						C39.874,37.976,39.619,38.106,39.398,38.272 M38.28,37.587c-0.229-0.171-0.438-0.354-0.637-0.546
						c0.489-0.254,0.955-0.608,1.394-0.949c0.218,0.22,0.462,0.427,0.735,0.621c-0.201,0.161-0.405,0.319-0.613,0.47
						c-0.24,0.173-0.506,0.322-0.741,0.503C38.371,37.652,38.325,37.622,38.28,37.587 M37.514,36.916
						c-0.194-0.198-0.373-0.407-0.535-0.624c0.473-0.326,0.913-0.715,1.354-1.083c0.173,0.271,0.367,0.527,0.594,0.769
						C38.453,36.284,37.959,36.577,37.514,36.916 M36.887,36.163c-0.214-0.301-0.397-0.617-0.556-0.947
						c0.542-0.237,1.048-0.626,1.496-1.021c0.124,0.315,0.268,0.618,0.438,0.902C37.805,35.441,37.317,35.779,36.887,36.163
						 M36.273,35.088c-0.125-0.277-0.226-0.564-0.312-0.856c0.292-0.191,0.565-0.423,0.84-0.632
						c0.229-0.174,0.457-0.349,0.682-0.528c0.082,0.349,0.178,0.685,0.295,1C37.293,34.441,36.772,34.743,36.273,35.088
						 M35.905,34.035c-0.091-0.349-0.154-0.708-0.192-1.073c0.326-0.135,0.625-0.346,0.924-0.53c0.221-0.134,0.439-0.271,0.657-0.41
						c0.005,0.036,0.008,0.072,0.013,0.108c0.041,0.277,0.091,0.545,0.148,0.805c-0.291,0.197-0.578,0.402-0.863,0.607
						C36.366,33.706,36.126,33.859,35.905,34.035 M35.697,32.805c-0.032-0.383-0.032-0.773-0.006-1.168
						c0.547-0.28,1.069-0.677,1.556-1.063c-0.026,0.432-0.019,0.864,0.028,1.294c-0.244,0.136-0.485,0.274-0.726,0.415
						C36.265,32.448,35.96,32.602,35.697,32.805"/>
				</g>
			</g>
		</g>
		<g>
			<g>
				<path fill="#FFFEFE" d="M40.98,61.661c-4.537,0-8.229-3.691-8.229-8.229c-0.113-2.373,0.554-4.401,1.929-5.843
					c1.466-1.537,3.703-2.384,6.301-2.384c2.229,0,4.553,1.103,6.214,2.952c1.449,1.613,2.183,3.528,2.018,5.264
					c0.183,1.302-0.612,3.218-2.041,4.904C45.375,60.445,43.118,61.661,40.98,61.661z M40.98,46.071
					c-2.357,0-4.372,0.751-5.673,2.115c-1.225,1.284-1.793,3.042-1.688,5.225c0,4.08,3.303,7.383,7.362,7.383
					c1.855,0,3.922-1.132,5.529-3.03c1.274-1.502,2.013-3.216,1.838-4.262l-0.01-0.058l0.007-0.058
					c0.161-1.506-0.494-3.201-1.795-4.65C45.05,47.067,42.968,46.071,40.98,46.071z"/>
			</g>
		</g>
	</g>
	<g>
		<path fill="#FFFFFF" d="M139.026,115.774h-1.733V92.102c0-1.424-2.788-3.01-6.789-3.01H38.056c-4.001,0-6.788,1.586-6.788,3.01
			v23.673h-1.733V92.102c0-2.659,3.743-4.742,8.521-4.742h92.449c4.779,0,8.522,2.082,8.522,4.742L139.026,115.774L139.026,115.774z
			"/>
	</g>
</g>
</svg>
